SplineFontDB: 3.2
FontName: HindSiliguri-Regular
FullName: Hind Siliguri Regular
FamilyName: Hind Siliguri
Weight: Book
Copyright: Copyright (c) 2015 Indian Type Foundry (info@indiantypefoundry.com)
Version: 1.001;PS 1.0;hotconv 1.0.86;makeotf.lib2.5.63406; ttfautohint (v1.5.33-1714) -l 8 -r 50 -G 200 -x 13 -D latn -f beng -w G -W -c -X ""
ItalicAngle: 0
UnderlinePosition: -150
UnderlineWidth: 50
Ascent: 800
Descent: 200
InvalidEm: 0
sfntRevision: 0x00010042
LayerCount: 2
Layer: 0 1 "Back" 1
Layer: 1 1 "Fore" 0
XUID: [1021 1004 64122485 12113897]
StyleMap: 0x0040
FSType: 0
OS2Version: 4
OS2_WeightWidthSlopeOnly: 0
OS2_UseTypoMetrics: 1
CreationTime: 1445051939
ModificationTime: 1678953424
PfmFamily: 17
TTFWeight: 400
TTFWidth: 5
LineGap: 0
VLineGap: 0
Panose: 2 0 0 0 0 0 0 0 0 0
OS2TypoAscent: 1116
OS2TypoAOffset: 0
OS2TypoDescent: -501
OS2TypoDOffset: 0
OS2TypoLinegap: 0
OS2WinAscent: 1116
OS2WinAOffset: 0
OS2WinDescent: 501
OS2WinDOffset: 0
HheadAscent: 1116
HheadAOffset: 0
HheadDescent: -501
HheadDOffset: 0
OS2SubXSize: 650
OS2SubYSize: 600
OS2SubXOff: 0
OS2SubYOff: 75
OS2SupXSize: 650
OS2SupYSize: 600
OS2SupXOff: 0
OS2SupYOff: 350
OS2StrikeYSize: 50
OS2StrikeYPos: 303
OS2CapHeight: 679
OS2XHeight: 505
OS2Vendor: 'ITFO'
OS2CodePages: 20000093.00000000
OS2UnicodeRanges: 00010007.00000000.00000000.00000000
Lookup: 1 0 0 "Single Substitution lookup 0" { "Single Substitution lookup 0 subtable"  } []
Lookup: 1 0 0 "Single Substitution lookup 1" { "Single Substitution lookup 1 subtable"  } []
Lookup: 1 0 0 "Single Substitution lookup 2" { "Single Substitution lookup 2 subtable"  } []
Lookup: 1 0 0 "Single Substitution lookup 3" { "Single Substitution lookup 3 subtable"  } []
Lookup: 1 0 0 "Single Substitution lookup 4" { "Single Substitution lookup 4 subtable"  } []
Lookup: 1 0 0 "Single Substitution lookup 5" { "Single Substitution lookup 5 subtable"  } []
Lookup: 1 0 0 "Single Substitution lookup 6" { "Single Substitution lookup 6 subtable"  } []

StartChar: .notdef
Encoding: 65536 -1 0
Width: 751
GlyphClass: 1
Flags: W
LayerCount: 2
Fore
SplineSet
575 0 m 1,0,-1
 176 0 l 1,1,-1
 176 701 l 1,2,-1
 575 701 l 1,3,-1
 575 0 l 1,0,-1
235 646 m 1,4,-1
 235 55 l 1,5,-1
 516 55 l 1,6,-1
 516 646 l 1,7,-1
 235 646 l 1,4,-1
EndSplineSet
EndChar

StartChar: exclam
Encoding: 33 33 4
Width: 251
GlyphClass: 2
Flags: W
LayerCount: 2
Fore
SplineSet
164 204 m 1,0,-1
 87 204 l 1,1,-1
 87 674 l 1,2,-1
 164 674 l 1,3,-1
 164 204 l 1,0,-1
184 51 m 0,4,5
 184 26 184 26 167 9 c 128,-1,6
 150 -8 150 -8 124 -8 c 128,-1,7
 98 -8 98 -8 81.5 9 c 128,-1,8
 65 26 65 26 65 51 c 0,9,10
 65 75 65 75 82 92.5 c 128,-1,11
 99 110 99 110 124 110 c 128,-1,12
 149 110 149 110 166.5 92.5 c 128,-1,13
 184 75 184 75 184 51 c 0,4,5
EndSplineSet
EndChar

StartChar: quotedbl
Encoding: 34 34 5
Width: 295
GlyphClass: 2
Flags: W
LayerCount: 2
Fore
SplineSet
251 444 m 1,0,-1
 181 444 l 1,1,-1
 181 681 l 1,2,-1
 251 681 l 1,3,-1
 251 444 l 1,0,-1
115 444 m 1,4,-1
 44 444 l 1,5,-1
 44 681 l 1,6,-1
 115 681 l 1,7,-1
 115 444 l 1,4,-1
EndSplineSet
EndChar

StartChar: numbersign
Encoding: 35 35 6
Width: 710
GlyphClass: 2
Flags: W
LayerCount: 2
Fore
SplineSet
449 0 m 1,0,-1
 376 0 l 1,1,-1
 412 170 l 1,2,-1
 233 170 l 1,3,-1
 197 0 l 1,4,-1
 126 0 l 1,5,-1
 162 170 l 1,6,-1
 53 170 l 1,7,-1
 53 233 l 1,8,-1
 175 233 l 1,9,-1
 218 439 l 1,10,-1
 107 439 l 1,11,-1
 107 503 l 1,12,-1
 232 503 l 1,13,-1
 268 674 l 1,14,-1
 340 674 l 1,15,-1
 304 503 l 1,16,-1
 483 503 l 1,17,-1
 519 674 l 1,18,-1
 590 674 l 1,19,-1
 554 503 l 1,20,-1
 657 503 l 1,21,-1
 657 439 l 1,22,-1
 541 439 l 1,23,-1
 498 233 l 1,24,-1
 605 233 l 1,25,-1
 605 170 l 1,26,-1
 485 170 l 1,27,-1
 449 0 l 1,0,-1
425 233 m 1,28,-1
 469 439 l 1,29,-1
 290 439 l 1,30,-1
 246 233 l 1,31,-1
 425 233 l 1,28,-1
EndSplineSet
EndChar

StartChar: dollar
Encoding: 36 36 7
Width: 505
GlyphClass: 2
Flags: W
LayerCount: 2
Fore
SplineSet
264 -109 m 1,0,-1
 195 -109 l 1,1,-1
 195 -5 l 1,2,3
 113 3 113 3 56 36 c 1,4,-1
 56 123 l 1,5,6
 129 68 129 68 234 68 c 0,7,8
 297 68 297 68 333.5 96.5 c 128,-1,9
 370 125 370 125 370 177 c 0,10,11
 370 201 370 201 360.5 219.5 c 128,-1,12
 351 238 351 238 325.5 255 c 128,-1,13
 300 272 300 272 285.5 279.5 c 128,-1,14
 271 287 271 287 230 304 c 0,15,16
 218 309 218 309 212 312 c 0,17,18
 176 328 176 328 152.5 341.5 c 128,-1,19
 129 355 129 355 103.5 377 c 128,-1,20
 78 399 78 399 65.5 429 c 128,-1,21
 53 459 53 459 53 497 c 0,22,23
 53 577 53 577 107.5 625 c 128,-1,24
 162 673 162 673 246 679 c 1,25,-1
 246 783 l 1,26,-1
 315 783 l 1,27,-1
 315 677 l 1,28,29
 374 670 374 670 417 649 c 1,30,-1
 417 564 l 1,31,32
 356 604 356 604 272 604 c 0,33,34
 211 604 211 604 175 575.5 c 128,-1,35
 139 547 139 547 139 501 c 0,36,37
 139 476 139 476 148.5 457.5 c 128,-1,38
 158 439 158 439 183.5 422 c 128,-1,39
 209 405 209 405 223.5 397.5 c 128,-1,40
 238 390 238 390 277 373 c 0,41,42
 284 370 284 370 288 368 c 0,43,44
 326 351 326 351 350 337.5 c 128,-1,45
 374 324 374 324 401 302 c 128,-1,46
 428 280 428 280 441 249 c 128,-1,47
 454 218 454 218 454 179 c 0,48,49
 454 97 454 97 401.5 49 c 128,-1,50
 349 1 349 1 264 -6 c 1,51,-1
 264 -109 l 1,0,-1
EndSplineSet
EndChar

StartChar: percent
Encoding: 37 37 8
Width: 847
GlyphClass: 2
Flags: W
LayerCount: 2
Fore
SplineSet
281 -1 m 1,0,-1
 206 -1 l 1,1,-1
 563 665 l 1,2,-1
 640 665 l 1,3,-1
 281 -1 l 1,0,-1
366 515 m 0,4,5
 366 449 366 449 319 402.5 c 128,-1,6
 272 356 272 356 207 356 c 128,-1,7
 142 356 142 356 95.5 402.5 c 128,-1,8
 49 449 49 449 49 515 c 0,9,10
 49 580 49 580 95.5 626.5 c 128,-1,11
 142 673 142 673 207 673 c 128,-1,12
 272 673 272 673 319 626.5 c 128,-1,13
 366 580 366 580 366 515 c 0,4,5
118 515 m 128,-1,15
 118 478 118 478 144 451.5 c 128,-1,16
 170 425 170 425 207 425 c 128,-1,17
 244 425 244 425 270.5 451.5 c 128,-1,18
 297 478 297 478 297 515 c 128,-1,19
 297 552 297 552 270.5 578 c 128,-1,20
 244 604 244 604 207 604 c 128,-1,21
 170 604 170 604 144 578 c 128,-1,14
 118 552 118 552 118 515 c 128,-1,15
798 151 m 128,-1,23
 798 86 798 86 751.5 39.5 c 128,-1,24
 705 -7 705 -7 640 -7 c 0,25,26
 574 -7 574 -7 528 39.5 c 128,-1,27
 482 86 482 86 482 151 c 0,28,29
 482 217 482 217 528 263.5 c 128,-1,30
 574 310 574 310 640 310 c 0,31,32
 705 310 705 310 751.5 263 c 128,-1,22
 798 216 798 216 798 151 c 128,-1,23
550 151 m 128,-1,34
 550 114 550 114 576.5 88 c 128,-1,35
 603 62 603 62 640 62 c 128,-1,36
 677 62 677 62 703.5 88 c 128,-1,37
 730 114 730 114 730 151 c 128,-1,38
 730 188 730 188 704 214.5 c 128,-1,39
 678 241 678 241 640 241 c 0,40,41
 603 241 603 241 576.5 214.5 c 128,-1,33
 550 188 550 188 550 151 c 128,-1,34
EndSplineSet
EndChar

StartChar: ampersand
Encoding: 38 38 9
Width: 703
GlyphClass: 2
Flags: W
LayerCount: 2
Fore
SplineSet
214 522 m 0,0,1
 214 490 214 490 232.5 458.5 c 128,-1,2
 251 427 251 427 299 378 c 1,3,4
 366 409 366 409 396.5 441.5 c 128,-1,5
 427 474 427 474 427 516 c 0,6,7
 427 559 427 559 399 588.5 c 128,-1,8
 371 618 371 618 318 618 c 0,9,10
 273 618 273 618 243.5 592.5 c 128,-1,11
 214 567 214 567 214 522 c 0,0,1
701 0 m 1,12,-1
 594 0 l 1,13,-1
 526 63 l 1,14,15
 445 -8 445 -8 317 -8 c 0,16,17
 204 -8 204 -8 134.5 43.5 c 128,-1,18
 65 95 65 95 65 176 c 0,19,20
 65 289 65 289 223 349 c 1,21,22
 176 400 176 400 154 439.5 c 128,-1,23
 132 479 132 479 132 523 c 0,24,25
 132 598 132 598 183 644 c 128,-1,26
 234 690 234 690 319 690 c 128,-1,27
 404 690 404 690 456 640.5 c 128,-1,28
 508 591 508 591 508 517 c 0,29,30
 508 399 508 399 349 328 c 1,31,-1
 518 171 l 1,32,33
 541 211 541 211 546 268 c 1,34,-1
 622 268 l 1,35,36
 616 182 616 182 574 119 c 1,37,-1
 701 0 l 1,12,-1
315 65 m 0,38,39
 408 65 408 65 471 114 c 1,40,-1
 273 299 l 1,41,42
 209 275 209 275 178 246 c 128,-1,43
 147 217 147 217 147 177 c 0,44,45
 147 126 147 126 194 95.5 c 128,-1,46
 241 65 241 65 315 65 c 0,38,39
EndSplineSet
EndChar

StartChar: quotesingle
Encoding: 39 39 10
Width: 159
GlyphClass: 2
Flags: W
LayerCount: 2
Fore
SplineSet
115 444 m 1,0,-1
 44 444 l 1,1,-1
 44 681 l 1,2,-1
 115 681 l 1,3,-1
 115 444 l 1,0,-1
EndSplineSet
EndChar

StartChar: parenleft
Encoding: 40 40 11
Width: 310
GlyphClass: 2
Flags: W
LayerCount: 2
Fore
SplineSet
320 -196 m 1,0,-1
 232 -196 l 1,1,2
 72 8 72 8 72 261 c 0,3,4
 72 383 72 383 113 499 c 128,-1,5
 154 615 154 615 225 707 c 1,6,-1
 312 707 l 1,7,8
 155 495 155 495 155 257 c 0,9,10
 155 17 155 17 320 -196 c 1,0,-1
EndSplineSet
EndChar

StartChar: parenright
Encoding: 41 41 12
Width: 310
GlyphClass: 2
Flags: W
LayerCount: 2
Fore
SplineSet
78 -196 m 1,0,-1
 -10 -196 l 1,1,2
 155 17 155 17 155 257 c 128,-1,3
 155 497 155 497 -2 707 c 1,4,-1
 86 707 l 1,5,6
 157 615 157 615 198 499 c 128,-1,7
 239 383 239 383 239 261 c 0,8,9
 239 9 239 9 78 -196 c 1,0,-1
EndSplineSet
EndChar

StartChar: asterisk
Encoding: 42 42 13
Width: 408
GlyphClass: 2
Flags: W
LayerCount: 2
Fore
SplineSet
331 380 m 1,0,-1
 280 342 l 1,1,-1
 223 420 l 2,2,3
 209 440 209 440 204 459 c 1,4,5
 199 439 199 439 185 419 c 2,6,-1
 128 342 l 1,7,-1
 76 379 l 1,8,-1
 133 458 l 2,9,10
 149 479 149 479 164 487 c 1,11,-1
 156 487 l 2,12,13
 137 487 137 487 120 493 c 2,14,-1
 29 523 l 1,15,-1
 48 585 l 1,16,-1
 141 555 l 2,17,18
 160 549 160 549 181 532 c 1,19,20
 171 550 171 550 171 578 c 2,21,-1
 171 674 l 1,22,-1
 235 674 l 1,23,-1
 235 578 l 2,24,25
 235 552 235 552 227 534 c 1,26,27
 242 549 242 549 266 556 c 2,28,-1
 358 585 l 1,29,-1
 378 524 l 1,30,-1
 286 494 l 2,31,32
 270 488 270 488 250 488 c 2,33,-1
 243 488 l 1,34,35
 262 478 262 478 275 458 c 2,36,-1
 331 380 l 1,0,-1
EndSplineSet
EndChar

StartChar: plus
Encoding: 43 43 14
Width: 553
GlyphClass: 2
Flags: W
LayerCount: 2
Fore
SplineSet
497 304 m 1,0,-1
 310 304 l 1,1,-1
 310 115 l 1,2,-1
 236 115 l 1,3,-1
 236 304 l 1,4,-1
 57 304 l 1,5,-1
 57 376 l 1,6,-1
 236 376 l 1,7,-1
 236 565 l 1,8,-1
 310 565 l 1,9,-1
 310 376 l 1,10,-1
 497 376 l 1,11,-1
 497 304 l 1,0,-1
EndSplineSet
EndChar

StartChar: comma
Encoding: 44 44 15
Width: 225
GlyphClass: 2
Flags: W
LayerCount: 2
Fore
SplineSet
61 -123 m 1,0,-1
 -8 -123 l 1,1,-1
 85 101 l 1,2,-1
 190 101 l 1,3,-1
 61 -123 l 1,0,-1
EndSplineSet
EndChar

StartChar: hyphen
Encoding: 45 45 16
Width: 348
GlyphClass: 2
Flags: W
LayerCount: 2
Fore
SplineSet
291 234 m 1,0,-1
 57 234 l 1,1,-1
 57 303 l 1,2,-1
 291 303 l 1,3,-1
 291 234 l 1,0,-1
EndSplineSet
EndChar

StartChar: period
Encoding: 46 46 17
Width: 166
GlyphClass: 2
Flags: W
LayerCount: 2
Fore
SplineSet
142 51 m 128,-1,1
 142 26 142 26 125 9 c 128,-1,2
 108 -8 108 -8 83 -8 c 128,-1,3
 58 -8 58 -8 41 9 c 128,-1,4
 24 26 24 26 24 51 c 128,-1,5
 24 76 24 76 41 93 c 128,-1,6
 58 110 58 110 83 110 c 128,-1,7
 108 110 108 110 125 93 c 128,-1,0
 142 76 142 76 142 51 c 128,-1,1
EndSplineSet
EndChar

StartChar: slash
Encoding: 47 47 18
Width: 403
GlyphClass: 2
Flags: W
LayerCount: 2
Fore
SplineSet
71 -102 m 1,0,-1
 -9 -102 l 1,1,-1
 355 707 l 1,2,-1
 436 707 l 1,3,-1
 71 -102 l 1,0,-1
EndSplineSet
EndChar

StartChar: zero
Encoding: 48 48 19
Width: 544
GlyphClass: 2
Flags: W
LayerCount: 2
Fore
SplineSet
501 329 m 0,0,1
 501 176 501 176 441 84 c 128,-1,2
 381 -8 381 -8 270 -8 c 0,3,4
 167 -8 167 -8 105 84 c 128,-1,5
 43 176 43 176 43 329 c 0,6,7
 43 483 43 483 105.5 572.5 c 128,-1,8
 168 662 168 662 270 662 c 0,9,10
 376 662 376 662 438.5 572.5 c 128,-1,11
 501 483 501 483 501 329 c 0,0,1
124 329 m 128,-1,13
 124 206 124 206 166 136.5 c 128,-1,14
 208 67 208 67 270 67 c 0,15,16
 339 67 339 67 379.5 135 c 128,-1,17
 420 203 420 203 420 329 c 0,18,19
 420 454 420 454 377.5 520.5 c 128,-1,20
 335 587 335 587 270 587 c 0,21,22
 210 587 210 587 167 519.5 c 128,-1,12
 124 452 124 452 124 329 c 128,-1,13
EndSplineSet
EndChar

StartChar: one
Encoding: 49 49 20
Width: 323
GlyphClass: 2
Flags: W
LayerCount: 2
Fore
SplineSet
247 0 m 1,0,-1
 169 0 l 1,1,-1
 169 568 l 1,2,-1
 18 475 l 1,3,-1
 18 560 l 1,4,-1
 173 654 l 1,5,-1
 247 654 l 1,6,-1
 247 0 l 1,0,-1
EndSplineSet
EndChar

StartChar: two
Encoding: 50 50 21
Width: 494
GlyphClass: 2
Flags: W
LayerCount: 2
Fore
SplineSet
451 0 m 1,0,-1
 38 0 l 1,1,-1
 38 67 l 1,2,3
 348 301 348 301 348 457 c 0,4,5
 348 519 348 519 312 552.5 c 128,-1,6
 276 586 276 586 215 586 c 0,7,8
 136 586 136 586 59 527 c 1,9,-1
 59 606 l 1,10,11
 130 661 130 661 222 661 c 0,12,13
 310 661 310 661 370 610 c 128,-1,14
 430 559 430 559 430 465 c 0,15,16
 430 288 430 288 147 69 c 1,17,-1
 451 69 l 1,18,-1
 451 0 l 1,0,-1
EndSplineSet
EndChar

StartChar: three
Encoding: 51 51 22
Width: 466
GlyphClass: 2
Flags: W
LayerCount: 2
Fore
SplineSet
415 180 m 0,0,1
 415 100 415 100 359 47 c 128,-1,2
 303 -6 303 -6 201 -6 c 0,3,4
 107 -6 107 -6 38 27 c 1,5,-1
 38 106 l 1,6,7
 112 67 112 67 199 67 c 0,8,9
 263 67 263 67 298.5 100 c 128,-1,10
 334 133 334 133 334 186 c 128,-1,11
 334 239 334 239 294.5 267.5 c 128,-1,12
 255 296 255 296 181 296 c 2,13,-1
 139 296 l 1,14,-1
 139 365 l 1,15,-1
 181 365 l 2,16,17
 237 365 237 365 275.5 396.5 c 128,-1,18
 314 428 314 428 314 481 c 128,-1,19
 314 534 314 534 281 561 c 128,-1,20
 248 588 248 588 190 588 c 0,21,22
 121 588 121 588 58 547 c 1,23,-1
 58 624 l 1,24,25
 116 661 116 661 192 661 c 0,26,27
 289 661 289 661 342.5 611.5 c 128,-1,28
 396 562 396 562 396 489 c 0,29,30
 396 436 396 436 369.5 394 c 128,-1,31
 343 352 343 352 291 331 c 1,32,33
 348 318 348 318 381.5 278.5 c 128,-1,34
 415 239 415 239 415 180 c 0,0,1
EndSplineSet
EndChar

StartChar: four
Encoding: 52 52 23
Width: 540
GlyphClass: 2
Flags: W
LayerCount: 2
Fore
SplineSet
122 228 m 1,0,-1
 341 228 l 1,1,-1
 341 607 l 1,2,-1
 122 228 l 1,0,-1
419 0 m 1,3,-1
 341 0 l 1,4,-1
 341 159 l 1,5,-1
 42 159 l 1,6,-1
 42 228 l 1,7,-1
 291 654 l 1,8,-1
 419 654 l 1,9,-1
 419 228 l 1,10,-1
 516 228 l 1,11,-1
 516 159 l 1,12,-1
 419 159 l 1,13,-1
 419 0 l 1,3,-1
EndSplineSet
EndChar

StartChar: five
Encoding: 53 53 24
Width: 509
GlyphClass: 2
Flags: W
LayerCount: 2
Fore
SplineSet
464 204 m 0,0,1
 464 107 464 107 400.5 49.5 c 128,-1,2
 337 -8 337 -8 227 -8 c 0,3,4
 128 -8 128 -8 59 26 c 1,5,-1
 59 104 l 1,6,7
 123 66 123 66 214 66 c 0,8,9
 382 66 382 66 382 207 c 0,10,11
 382 264 382 264 343 295.5 c 128,-1,12
 304 327 304 327 242 327 c 0,13,14
 169 327 169 327 91 292 c 1,15,-1
 91 654 l 1,16,-1
 419 654 l 1,17,-1
 419 585 l 1,18,-1
 169 585 l 1,19,-1
 169 389 l 1,20,21
 214 399 214 399 247 399 c 0,22,23
 347 399 347 399 405.5 346 c 128,-1,24
 464 293 464 293 464 204 c 0,0,1
EndSplineSet
EndChar

StartChar: six
Encoding: 54 54 25
Width: 526
GlyphClass: 2
Flags: W
LayerCount: 2
Fore
SplineSet
490 213 m 0,0,1
 490 113 490 113 433.5 51 c 128,-1,2
 377 -11 377 -11 284 -11 c 0,3,4
 172 -11 172 -11 112 74 c 128,-1,5
 52 159 52 159 52 296 c 0,6,7
 52 459 52 459 132 566 c 128,-1,8
 212 673 212 673 352 673 c 0,9,10
 397 673 397 673 444 658 c 1,11,-1
 444 581 l 1,12,13
 401 600 401 600 353 600 c 0,14,15
 259 600 259 600 203 529.5 c 128,-1,16
 147 459 147 459 134 352 c 1,17,18
 200 421 200 421 297 421 c 0,19,20
 387 421 387 421 438.5 364 c 128,-1,21
 490 307 490 307 490 213 c 0,0,1
284 62 m 0,22,23
 341 62 341 62 374.5 104 c 128,-1,24
 408 146 408 146 408 214 c 0,25,26
 408 276 408 276 374.5 313 c 128,-1,27
 341 350 341 350 287 350 c 0,28,29
 197 350 197 350 131 277 c 1,30,31
 135 171 135 171 177 116.5 c 128,-1,32
 219 62 219 62 284 62 c 0,22,23
EndSplineSet
EndChar

StartChar: seven
Encoding: 55 55 26
Width: 451
GlyphClass: 2
Flags: W
LayerCount: 2
Fore
SplineSet
168 0 m 1,0,-1
 84 0 l 1,1,-1
 355 585 l 1,2,-1
 12 585 l 1,3,-1
 12 654 l 1,4,-1
 439 654 l 1,5,-1
 439 585 l 1,6,-1
 168 0 l 1,0,-1
EndSplineSet
EndChar

StartChar: eight
Encoding: 56 56 27
Width: 536
GlyphClass: 2
Flags: W
LayerCount: 2
Fore
SplineSet
485 170 m 0,0,1
 485 89 485 89 422 40.5 c 128,-1,2
 359 -8 359 -8 264 -8 c 0,3,4
 173 -8 173 -8 112 39 c 128,-1,5
 51 86 51 86 51 165 c 0,6,7
 51 224 51 224 82.5 265.5 c 128,-1,8
 114 307 114 307 169 326 c 1,9,10
 62 367 62 367 62 477 c 0,11,12
 62 564 62 564 122 612.5 c 128,-1,13
 182 661 182 661 264 661 c 0,14,15
 349 661 349 661 409 613.5 c 128,-1,16
 469 566 469 566 469 476 c 0,17,18
 469 425 469 425 441 386.5 c 128,-1,19
 413 348 413 348 364 328 c 1,20,21
 485 291 485 291 485 170 c 0,0,1
131 169 m 0,22,23
 131 123 131 123 166 92.5 c 128,-1,24
 201 62 201 62 265 62 c 0,25,26
 332 62 332 62 368 95 c 128,-1,27
 404 128 404 128 404 177 c 0,28,29
 404 225 404 225 369 258 c 128,-1,30
 334 291 334 291 265 290 c 0,31,32
 198 289 198 289 164.5 254.5 c 128,-1,33
 131 220 131 220 131 169 c 0,22,23
142 478 m 0,34,35
 142 421 142 421 177.5 392 c 128,-1,36
 213 363 213 363 268 363 c 0,37,38
 321 363 321 363 355 393.5 c 128,-1,39
 389 424 389 424 389 479 c 0,40,41
 389 527 389 527 357 559 c 128,-1,42
 325 591 325 591 264 591 c 0,43,44
 208 591 208 591 175 558 c 128,-1,45
 142 525 142 525 142 478 c 0,34,35
EndSplineSet
EndChar

StartChar: nine
Encoding: 57 57 28
Width: 504
GlyphClass: 2
Flags: W
LayerCount: 2
Fore
SplineSet
252 304 m 0,0,1
 334 304 334 304 384 368 c 1,2,-1
 384 373 l 2,3,4
 384 468 384 468 350.5 528.5 c 128,-1,5
 317 589 317 589 243 589 c 0,6,7
 186 589 186 589 152 551 c 128,-1,8
 118 513 118 513 118 447 c 0,9,10
 118 378 118 378 154 341 c 128,-1,11
 190 304 190 304 252 304 c 0,0,1
462 373 m 0,12,13
 462 195 462 195 390.5 93.5 c 128,-1,14
 319 -8 319 -8 177 -8 c 0,15,16
 119 -8 119 -8 64 11 c 1,17,-1
 64 89 l 1,18,19
 116 66 116 66 174 66 c 0,20,21
 355 66 355 66 380 293 c 1,22,23
 330 234 330 234 232 234 c 0,24,25
 152 234 152 234 94 292.5 c 128,-1,26
 36 351 36 351 36 447 c 0,27,28
 36 540 36 540 91 601 c 128,-1,29
 146 662 146 662 241 662 c 0,30,31
 351 662 351 662 406.5 580 c 128,-1,32
 462 498 462 498 462 373 c 0,12,13
EndSplineSet
EndChar

StartChar: colon
Encoding: 58 58 29
Width: 235
GlyphClass: 2
Flags: W
LayerCount: 2
Fore
SplineSet
176 380 m 0,0,1
 176 355 176 355 159 338.5 c 128,-1,2
 142 322 142 322 117 322 c 128,-1,3
 92 322 92 322 75.5 338.5 c 128,-1,4
 59 355 59 355 59 380 c 0,5,6
 59 404 59 404 75.5 421 c 128,-1,7
 92 438 92 438 117 438 c 128,-1,8
 142 438 142 438 159 421 c 128,-1,9
 176 404 176 404 176 380 c 0,0,1
176 57 m 128,-1,11
 176 32 176 32 159 15.5 c 128,-1,12
 142 -1 142 -1 117 -1 c 128,-1,13
 92 -1 92 -1 75.5 15.5 c 128,-1,14
 59 32 59 32 59 57 c 128,-1,15
 59 82 59 82 75.5 99 c 128,-1,16
 92 116 92 116 117 116 c 128,-1,17
 142 116 142 116 159 99 c 128,-1,10
 176 82 176 82 176 57 c 128,-1,11
EndSplineSet
EndChar

StartChar: semicolon
Encoding: 59 59 30
Width: 225
GlyphClass: 2
Flags: W
LayerCount: 2
Fore
SplineSet
61 -123 m 1,0,-1
 -8 -123 l 1,1,-1
 85 101 l 1,2,-1
 190 101 l 1,3,-1
 61 -123 l 1,0,-1
187 379 m 0,4,5
 187 354 187 354 170 337.5 c 128,-1,6
 153 321 153 321 128 321 c 128,-1,7
 103 321 103 321 86.5 337.5 c 128,-1,8
 70 354 70 354 70 379 c 0,9,10
 70 403 70 403 86.5 420 c 128,-1,11
 103 437 103 437 128 437 c 128,-1,12
 153 437 153 437 170 420 c 128,-1,13
 187 403 187 403 187 379 c 0,4,5
EndSplineSet
EndChar

StartChar: less
Encoding: 60 60 31
Width: 527
GlyphClass: 2
Flags: W
LayerCount: 2
Fore
SplineSet
478 196 m 1,0,-1
 478 114 l 1,1,-1
 57 303 l 1,2,-1
 57 379 l 1,3,-1
 478 567 l 1,4,-1
 478 486 l 1,5,-1
 140 342 l 1,6,-1
 478 196 l 1,0,-1
EndSplineSet
EndChar

StartChar: equal
Encoding: 61 61 32
Width: 553
GlyphClass: 2
Flags: W
LayerCount: 2
Fore
SplineSet
497 407 m 1,0,-1
 57 407 l 1,1,-1
 57 475 l 1,2,-1
 497 475 l 1,3,-1
 497 407 l 1,0,-1
497 205 m 1,4,-1
 57 205 l 1,5,-1
 57 274 l 1,6,-1
 497 274 l 1,7,-1
 497 205 l 1,4,-1
EndSplineSet
EndChar

StartChar: greater
Encoding: 62 62 33
Width: 527
GlyphClass: 2
Flags: W
LayerCount: 2
Fore
SplineSet
470 303 m 1,0,-1
 49 114 l 1,1,-1
 49 196 l 1,2,-1
 386 342 l 1,3,-1
 49 486 l 1,4,-1
 49 567 l 1,5,-1
 470 379 l 1,6,-1
 470 303 l 1,0,-1
EndSplineSet
EndChar

StartChar: question
Encoding: 63 63 34
Width: 452
GlyphClass: 2
Flags: W
LayerCount: 2
Fore
SplineSet
217 204 m 1,0,-1
 141 204 l 1,1,-1
 140 370 l 1,2,3
 232 370 232 370 282 401.5 c 128,-1,4
 332 433 332 433 332 496 c 0,5,6
 332 547 332 547 299 579 c 128,-1,7
 266 611 266 611 201 611 c 0,8,9
 124 611 124 611 45 561 c 1,10,-1
 45 641 l 1,11,12
 110 682 110 682 205 682 c 128,-1,13
 300 682 300 682 357 633.5 c 128,-1,14
 414 585 414 585 414 499 c 0,15,16
 414 414 414 414 355 367 c 128,-1,17
 296 320 296 320 218 313 c 1,18,-1
 217 204 l 1,0,-1
238 51 m 0,19,20
 238 26 238 26 220.5 9 c 128,-1,21
 203 -8 203 -8 177 -8 c 0,22,23
 152 -8 152 -8 135.5 9 c 128,-1,24
 119 26 119 26 119 51 c 0,25,26
 119 75 119 75 136 92.5 c 128,-1,27
 153 110 153 110 177 110 c 0,28,29
 202 110 202 110 220 92.5 c 128,-1,30
 238 75 238 75 238 51 c 0,19,20
EndSplineSet
EndChar

StartChar: at
Encoding: 64 64 35
Width: 905
GlyphClass: 2
Flags: W
LayerCount: 2
Fore
SplineSet
590 -134 m 1,0,1
 523 -168 523 -168 414 -168 c 0,2,3
 251 -168 251 -168 155.5 -65.5 c 128,-1,4
 60 37 60 37 60 196 c 0,5,6
 60 375 60 375 186 494 c 128,-1,7
 312 613 312 613 491 613 c 0,8,9
 645 613 645 613 751.5 517 c 128,-1,10
 858 421 858 421 858 264 c 0,11,12
 858 149 858 149 804 85 c 128,-1,13
 750 21 750 21 681 21 c 0,14,15
 589 21 589 21 564 107 c 1,16,17
 511 18 511 18 416 18 c 0,18,19
 342 18 342 18 299.5 70.5 c 128,-1,20
 257 123 257 123 257 202 c 0,21,22
 257 292 257 292 312.5 353.5 c 128,-1,23
 368 415 368 415 450 415 c 0,24,25
 530 415 530 415 568 351 c 1,26,27
 568 359 568 359 569.5 378.5 c 128,-1,28
 571 398 571 398 572 410 c 1,29,-1
 638 410 l 1,30,-1
 623 272 l 2,31,32
 619 219 619 219 619 186 c 0,33,34
 619 85 619 85 685 85 c 0,35,36
 729 85 729 85 758.5 133.5 c 128,-1,37
 788 182 788 182 788 259 c 0,38,39
 788 395 788 395 703.5 470.5 c 128,-1,40
 619 546 619 546 489 546 c 0,41,42
 345 546 345 546 240.5 445.5 c 128,-1,43
 136 345 136 345 136 196 c 0,44,45
 136 54 136 54 217.5 -23 c 128,-1,46
 299 -100 299 -100 416 -100 c 0,47,48
 516 -100 516 -100 594 -57 c 1,49,-1
 590 -134 l 1,0,1
429 83 m 0,50,51
 469 83 469 83 504.5 111 c 128,-1,52
 540 139 540 139 556 189 c 1,53,54
 558 225 558 225 560 244 c 1,55,56
 544 349 544 349 452 349 c 0,57,58
 400 349 400 349 366 305 c 128,-1,59
 332 261 332 261 332 198 c 0,60,61
 332 146 332 146 359 114.5 c 128,-1,62
 386 83 386 83 429 83 c 0,50,51
EndSplineSet
EndChar

StartChar: A
Encoding: 65 65 36
Width: 648
GlyphClass: 2
Flags: W
LayerCount: 2
Fore
SplineSet
218 284 m 2,0,-1
 205 246 l 1,1,-1
 444 246 l 1,2,-1
 431 285 l 1,3,-1
 326 609 l 1,4,5
 314 566 314 566 218 284 c 2,0,-1
122 0 m 1,6,-1
 35 0 l 1,7,-1
 270 674 l 1,8,-1
 382 674 l 1,9,-1
 613 0 l 1,10,-1
 526 0 l 1,11,-1
 467 177 l 1,12,-1
 182 177 l 1,13,-1
 122 0 l 1,6,-1
EndSplineSet
EndChar

StartChar: B
Encoding: 66 66 37
Width: 571
GlyphClass: 2
Flags: W
LayerCount: 2
Fore
SplineSet
323 0 m 2,0,-1
 77 0 l 1,1,-1
 77 674 l 1,2,-1
 280 674 l 2,3,4
 384 674 384 674 446.5 626 c 128,-1,5
 509 578 509 578 509 497 c 0,6,7
 509 439 509 439 476.5 396.5 c 128,-1,8
 444 354 444 354 393 343 c 1,9,10
 449 334 449 334 488.5 292.5 c 128,-1,11
 528 251 528 251 528 180 c 0,12,13
 528 99 528 99 474.5 49.5 c 128,-1,14
 421 0 421 0 323 0 c 2,0,-1
280 605 m 2,15,-1
 158 605 l 1,16,-1
 158 375 l 1,17,-1
 266 375 l 2,18,19
 347 375 347 375 386 409 c 128,-1,20
 425 443 425 443 425 497 c 0,21,22
 425 544 425 544 388.5 574.5 c 128,-1,23
 352 605 352 605 280 605 c 2,15,-1
296 306 m 2,24,-1
 158 306 l 1,25,-1
 158 69 l 1,26,-1
 311 69 l 2,27,28
 375 69 375 69 409.5 98.5 c 128,-1,29
 444 128 444 128 444 185 c 128,-1,30
 444 242 444 242 405.5 274 c 128,-1,31
 367 306 367 306 296 306 c 2,24,-1
EndSplineSet
EndChar

StartChar: C
Encoding: 67 67 38
Width: 602
GlyphClass: 2
Flags: W
LayerCount: 2
Fore
SplineSet
560 34 m 1,0,1
 498 -8 498 -8 390 -8 c 0,2,3
 238 -8 238 -8 143 85.5 c 128,-1,4
 48 179 48 179 48 340 c 0,5,6
 48 492 48 492 144.5 587.5 c 128,-1,7
 241 683 241 683 387 683 c 0,8,9
 492 683 492 683 558 647 c 1,10,-1
 558 564 l 1,11,12
 514 587 514 587 479 597 c 128,-1,13
 444 607 444 607 387 607 c 0,14,15
 278 607 278 607 205.5 533 c 128,-1,16
 133 459 133 459 133 340 c 0,17,18
 133 216 133 216 205 142 c 128,-1,19
 277 68 277 68 396 68 c 0,20,21
 492 68 492 68 560 119 c 1,22,-1
 560 34 l 1,0,1
EndSplineSet
EndChar

StartChar: D
Encoding: 68 68 39
Width: 661
GlyphClass: 2
Flags: W
LayerCount: 2
Fore
SplineSet
281 0 m 2,0,-1
 77 0 l 1,1,-1
 77 674 l 1,2,-1
 277 674 l 2,3,4
 426 674 426 674 521.5 581.5 c 128,-1,5
 617 489 617 489 617 342 c 0,6,7
 617 196 617 196 528.5 98 c 128,-1,8
 440 0 440 0 281 0 c 2,0,-1
276 602 m 2,9,-1
 159 602 l 1,10,-1
 159 71 l 1,11,-1
 280 71 l 2,12,13
 405 71 405 71 469 148.5 c 128,-1,14
 533 226 533 226 533 342 c 0,15,16
 533 452 533 452 461.5 527 c 128,-1,17
 390 602 390 602 276 602 c 2,9,-1
EndSplineSet
EndChar

StartChar: E
Encoding: 69 69 40
Width: 501
GlyphClass: 2
Flags: W
LayerCount: 2
Fore
SplineSet
453 0 m 1,0,-1
 77 0 l 1,1,-1
 77 674 l 1,2,-1
 448 674 l 1,3,-1
 448 603 l 1,4,-1
 158 603 l 1,5,-1
 158 372 l 1,6,-1
 414 372 l 1,7,-1
 414 301 l 1,8,-1
 158 301 l 1,9,-1
 158 71 l 1,10,-1
 453 71 l 1,11,-1
 453 0 l 1,0,-1
EndSplineSet
EndChar

StartChar: F
Encoding: 70 70 41
Width: 489
GlyphClass: 2
Flags: W
LayerCount: 2
Fore
SplineSet
412 293 m 1,0,-1
 158 293 l 1,1,-1
 158 0 l 1,2,-1
 77 0 l 1,3,-1
 77 674 l 1,4,-1
 447 674 l 1,5,-1
 447 603 l 1,6,-1
 158 603 l 1,7,-1
 158 364 l 1,8,-1
 412 364 l 1,9,-1
 412 293 l 1,0,-1
EndSplineSet
EndChar

StartChar: G
Encoding: 71 71 42
Width: 670
GlyphClass: 2
Flags: W
LayerCount: 2
Fore
SplineSet
603 53 m 1,0,1
 522 -8 522 -8 394 -8 c 0,2,3
 238 -8 238 -8 143 84.5 c 128,-1,4
 48 177 48 177 48 338 c 0,5,6
 48 491 48 491 142.5 588.5 c 128,-1,7
 237 686 237 686 381 686 c 0,8,9
 500 686 500 686 578 640 c 1,10,-1
 578 553 l 1,11,12
 496 607 496 607 388 607 c 0,13,14
 275 607 275 607 204 533.5 c 128,-1,15
 133 460 133 460 133 338 c 0,16,17
 133 213 133 213 203 141.5 c 128,-1,18
 273 70 273 70 396 70 c 0,19,20
 464 70 464 70 522 97 c 1,21,-1
 522 307 l 1,22,-1
 374 307 l 1,23,-1
 374 378 l 1,24,-1
 603 378 l 1,25,-1
 603 56 l 1,26,-1
 602 56 l 1,27,-1
 603 53 l 1,0,1
EndSplineSet
EndChar

StartChar: H
Encoding: 72 72 43
Width: 643
GlyphClass: 2
Flags: W
LayerCount: 2
Fore
SplineSet
566 0 m 1,0,-1
 485 0 l 1,1,-1
 485 305 l 1,2,-1
 158 305 l 1,3,-1
 158 0 l 1,4,-1
 77 0 l 1,5,-1
 77 674 l 1,6,-1
 158 674 l 1,7,-1
 158 378 l 1,8,-1
 485 378 l 1,9,-1
 485 674 l 1,10,-1
 566 674 l 1,11,-1
 566 0 l 1,0,-1
EndSplineSet
EndChar

StartChar: I
Encoding: 73 73 44
Width: 247
GlyphClass: 2
Flags: W
LayerCount: 2
Fore
SplineSet
164 0 m 1,0,-1
 83 0 l 1,1,-1
 83 674 l 1,2,-1
 164 674 l 1,3,-1
 164 0 l 1,0,-1
EndSplineSet
EndChar

StartChar: J
Encoding: 74 74 45
Width: 358
GlyphClass: 2
Flags: W
LayerCount: 2
Fore
SplineSet
282 173 m 2,0,1
 282 0 282 0 125 0 c 0,2,3
 69 0 69 0 30 22 c 1,4,-1
 30 100 l 1,5,6
 70 74 70 74 114 74 c 0,7,8
 201 74 201 74 201 166 c 2,9,-1
 201 674 l 1,10,-1
 282 674 l 1,11,-1
 282 173 l 2,0,1
EndSplineSet
EndChar

StartChar: K
Encoding: 75 75 46
Width: 573
GlyphClass: 2
Flags: W
LayerCount: 2
Fore
SplineSet
545 0 m 1,0,-1
 440 0 l 1,1,-1
 174 333 l 1,2,-1
 431 674 l 1,3,-1
 531 674 l 1,4,-1
 274 333 l 1,5,-1
 545 0 l 1,0,-1
158 0 m 1,6,-1
 77 0 l 1,7,-1
 77 674 l 1,8,-1
 158 674 l 1,9,-1
 158 0 l 1,6,-1
EndSplineSet
EndChar

StartChar: L
Encoding: 76 76 47
Width: 477
GlyphClass: 2
Flags: W
LayerCount: 2
Fore
SplineSet
445 0 m 1,0,-1
 77 0 l 1,1,-1
 77 674 l 1,2,-1
 158 674 l 1,3,-1
 158 73 l 1,4,-1
 445 73 l 1,5,-1
 445 0 l 1,0,-1
EndSplineSet
EndChar

StartChar: M
Encoding: 77 77 48
Width: 857
GlyphClass: 2
Flags: W
LayerCount: 2
Fore
SplineSet
151 0 m 1,0,-1
 70 0 l 1,1,-1
 119 674 l 1,2,-1
 222 674 l 1,3,-1
 311 428 l 1,4,-1
 419 114 l 1,5,6
 477 278 477 278 533 428 c 2,7,-1
 626 674 l 1,8,-1
 729 674 l 1,9,-1
 788 0 l 1,10,-1
 707 0 l 1,11,-1
 684 266 l 1,12,-1
 660 565 l 1,13,14
 607 417 607 417 551 266 c 2,15,-1
 457 15 l 1,16,-1
 380 15 l 1,17,-1
 291 266 l 1,18,-1
 189 559 l 1,19,20
 189 520 189 520 170 266 c 2,21,-1
 151 0 l 1,0,-1
EndSplineSet
EndChar

StartChar: N
Encoding: 78 78 49
Width: 673
GlyphClass: 2
Flags: W
LayerCount: 2
Fore
SplineSet
158 0 m 1,0,-1
 77 0 l 1,1,-1
 77 674 l 1,2,-1
 179 674 l 1,3,-1
 348 390 l 1,4,-1
 519 98 l 1,5,6
 515 195 515 195 515 389 c 2,7,-1
 515 674 l 1,8,-1
 596 674 l 1,9,-1
 596 0 l 1,10,-1
 494 0 l 1,11,-1
 325 282 l 2,12,13
 274 367 274 367 231 440.5 c 128,-1,14
 188 514 188 514 170 546 c 2,15,-1
 153 577 l 1,16,17
 158 473 158 473 158 284 c 2,18,-1
 158 0 l 1,0,-1
EndSplineSet
EndChar

StartChar: O
Encoding: 79 79 50
Width: 700
GlyphClass: 2
Flags: W
LayerCount: 2
Fore
SplineSet
653 340 m 0,0,1
 653 181 653 181 571.5 86.5 c 128,-1,2
 490 -8 490 -8 351 -8 c 0,3,4
 214 -8 214 -8 131 87 c 128,-1,5
 48 182 48 182 48 340 c 0,6,7
 48 499 48 499 129.5 593 c 128,-1,8
 211 687 211 687 350 687 c 0,9,10
 492 687 492 687 572.5 593.5 c 128,-1,11
 653 500 653 500 653 340 c 0,0,1
133 340 m 0,12,13
 133 215 133 215 192.5 142 c 128,-1,14
 252 69 252 69 351 69 c 0,15,16
 454 69 454 69 510.5 141 c 128,-1,17
 567 213 567 213 567 340 c 128,-1,18
 567 467 567 467 510 539 c 128,-1,19
 453 611 453 611 350 611 c 0,20,21
 248 611 248 611 190.5 538.5 c 128,-1,22
 133 466 133 466 133 340 c 0,12,13
EndSplineSet
EndChar

StartChar: P
Encoding: 80 80 51
Width: 545
GlyphClass: 2
Flags: W
LayerCount: 2
Fore
SplineSet
262 248 m 2,0,-1
 158 248 l 1,1,-1
 158 0 l 1,2,-1
 77 0 l 1,3,-1
 77 674 l 1,4,-1
 254 674 l 2,5,6
 371 674 371 674 438.5 613.5 c 128,-1,7
 506 553 506 553 506 457 c 0,8,9
 506 367 506 367 439 307.5 c 128,-1,10
 372 248 372 248 262 248 c 2,0,-1
255 605 m 2,11,-1
 158 605 l 1,12,-1
 158 317 l 1,13,-1
 262 317 l 2,14,15
 338 317 338 317 381 356.5 c 128,-1,16
 424 396 424 396 424 457 c 0,17,18
 424 525 424 525 380 565 c 128,-1,19
 336 605 336 605 255 605 c 2,11,-1
EndSplineSet
EndChar

StartChar: Q
Encoding: 81 81 52
Width: 709
GlyphClass: 2
Flags: W
LayerCount: 2
Fore
SplineSet
653 340 m 0,0,1
 653 224 653 224 608.5 140.5 c 128,-1,2
 564 57 564 57 483 19 c 1,3,-1
 683 -105 l 1,4,-1
 595 -142 l 1,5,-1
 395 -5 l 1,6,7
 374 -8 374 -8 351 -8 c 0,8,9
 214 -8 214 -8 131 87 c 128,-1,10
 48 182 48 182 48 340 c 0,11,12
 48 499 48 499 129.5 593 c 128,-1,13
 211 687 211 687 350 687 c 0,14,15
 492 687 492 687 572.5 593.5 c 128,-1,16
 653 500 653 500 653 340 c 0,0,1
133 340 m 0,17,18
 133 215 133 215 192.5 142 c 128,-1,19
 252 69 252 69 351 69 c 0,20,21
 454 69 454 69 510.5 141 c 128,-1,22
 567 213 567 213 567 340 c 128,-1,23
 567 467 567 467 510 539 c 128,-1,24
 453 611 453 611 350 611 c 0,25,26
 248 611 248 611 190.5 538.5 c 128,-1,27
 133 466 133 466 133 340 c 0,17,18
EndSplineSet
EndChar

StartChar: R
Encoding: 82 82 53
Width: 548
GlyphClass: 2
Flags: W
LayerCount: 2
Fore
SplineSet
251 604 m 2,0,-1
 158 604 l 1,1,-1
 158 335 l 1,2,-1
 260 335 l 2,3,4
 329 335 329 335 365.5 372.5 c 128,-1,5
 402 410 402 410 402 469 c 0,6,7
 402 604 402 604 251 604 c 2,0,-1
255 266 m 1,8,-1
 158 266 l 1,9,-1
 158 0 l 1,10,-1
 77 0 l 1,11,-1
 77 674 l 1,12,-1
 246 674 l 2,13,14
 363 674 363 674 423.5 619 c 128,-1,15
 484 564 484 564 484 467 c 0,16,17
 482 397 482 397 447 348 c 128,-1,18
 412 299 412 299 348 279 c 1,19,-1
 525 0 l 1,20,-1
 428 0 l 1,21,-1
 263 266 l 1,22,-1
 255 266 l 1,8,-1
EndSplineSet
EndChar

StartChar: S
Encoding: 83 83 54
Width: 524
GlyphClass: 2
Flags: W
LayerCount: 2
Fore
SplineSet
467 179 m 0,0,1
 467 90 467 90 406 41.5 c 128,-1,2
 345 -7 345 -7 249 -7 c 0,3,4
 143 -7 143 -7 69 36 c 1,5,-1
 69 123 l 1,6,7
 142 68 142 68 247 68 c 0,8,9
 310 68 310 68 346 96 c 128,-1,10
 382 124 382 124 382 177 c 0,11,12
 382 199 382 199 373.5 216.5 c 128,-1,13
 365 234 365 234 345.5 248.5 c 128,-1,14
 326 263 326 263 308.5 272.5 c 128,-1,15
 291 282 291 282 261 296 c 0,16,17
 255 299 255 299 243 304 c 0,18,19
 200 323 200 323 177.5 335 c 128,-1,20
 155 347 155 347 124.5 370.5 c 128,-1,21
 94 394 94 394 80 425 c 128,-1,22
 66 456 66 456 66 497 c 0,23,24
 66 583 66 583 127.5 631.5 c 128,-1,25
 189 680 189 680 282 680 c 0,26,27
 369 680 369 680 430 649 c 1,28,-1
 430 564 l 1,29,30
 369 604 369 604 284 604 c 0,31,32
 223 604 223 604 187 575.5 c 128,-1,33
 151 547 151 547 151 501 c 0,34,35
 151 477 151 477 160.5 458 c 128,-1,36
 170 439 170 439 194 422.5 c 128,-1,37
 218 406 218 406 235 397.5 c 128,-1,38
 252 389 252 389 288 373 c 0,39,40
 322 358 322 358 340 349.5 c 128,-1,41
 358 341 358 341 386.5 322.5 c 128,-1,42
 415 304 415 304 429.5 286.5 c 128,-1,43
 444 269 444 269 455.5 240.5 c 128,-1,44
 467 212 467 212 467 179 c 0,0,1
EndSplineSet
EndChar

StartChar: T
Encoding: 84 84 55
Width: 482
GlyphClass: 2
Flags: W
LayerCount: 2
Fore
SplineSet
463 603 m 1,0,-1
 281 603 l 1,1,-1
 281 0 l 1,2,-1
 200 0 l 1,3,-1
 200 603 l 1,4,-1
 18 603 l 1,5,-1
 18 674 l 1,6,-1
 463 674 l 1,7,-1
 463 603 l 1,0,-1
EndSplineSet
EndChar

StartChar: U
Encoding: 85 85 56
Width: 645
GlyphClass: 2
Flags: W
LayerCount: 2
Fore
SplineSet
569 256 m 2,0,1
 569 126 569 126 503.5 59 c 128,-1,2
 438 -8 438 -8 321 -8 c 0,3,4
 206 -8 206 -8 141 57.5 c 128,-1,5
 76 123 76 123 76 248 c 2,6,-1
 76 674 l 1,7,-1
 157 674 l 1,8,-1
 157 249 l 2,9,10
 157 156 157 156 201.5 112 c 128,-1,11
 246 68 246 68 321 68 c 0,12,13
 488 68 488 68 488 254 c 2,14,-1
 488 674 l 1,15,-1
 569 674 l 1,16,-1
 569 256 l 2,0,1
EndSplineSet
EndChar

StartChar: V
Encoding: 86 86 57
Width: 637
GlyphClass: 2
Flags: W
LayerCount: 2
Fore
SplineSet
366 0 m 1,0,-1
 264 0 l 1,1,-1
 36 674 l 1,2,-1
 123 674 l 1,3,-1
 211 407 l 1,4,-1
 316 73 l 1,5,6
 355 199 355 199 424 407 c 2,7,-1
 514 674 l 1,8,-1
 601 674 l 1,9,-1
 366 0 l 1,0,-1
EndSplineSet
EndChar

StartChar: W
Encoding: 87 87 58
Width: 938
GlyphClass: 2
Flags: W
LayerCount: 2
Fore
SplineSet
315 0 m 1,0,-1
 212 0 l 1,1,-1
 36 674 l 1,2,-1
 121 674 l 1,3,-1
 184 424 l 1,4,-1
 267 85 l 1,5,6
 323 290 323 290 362 424 c 2,7,-1
 432 664 l 1,8,-1
 513 664 l 1,9,-1
 587 424 l 1,10,-1
 689 82 l 1,11,12
 735 303 735 303 763 423 c 2,13,-1
 820 674 l 1,14,-1
 902 674 l 1,15,-1
 744 0 l 1,16,-1
 640 0 l 1,17,-1
 575 213 l 1,18,-1
 474 550 l 1,19,20
 443 432 443 432 378 213 c 2,21,-1
 315 0 l 1,0,-1
EndSplineSet
EndChar

StartChar: X
Encoding: 88 88 59
Width: 613
GlyphClass: 2
Flags: W
LayerCount: 2
Fore
SplineSet
135 0 m 1,0,-1
 39 0 l 1,1,-1
 256 340 l 1,2,-1
 51 674 l 1,3,-1
 146 674 l 1,4,-1
 301 413 l 1,5,-1
 456 674 l 1,6,-1
 552 674 l 1,7,-1
 348 340 l 1,8,-1
 574 0 l 1,9,-1
 479 0 l 1,10,-1
 303 271 l 1,11,-1
 135 0 l 1,0,-1
EndSplineSet
EndChar

StartChar: Y
Encoding: 89 89 60
Width: 593
GlyphClass: 2
Flags: W
LayerCount: 2
Fore
SplineSet
336 0 m 1,0,-1
 255 0 l 1,1,-1
 255 250 l 1,2,-1
 26 674 l 1,3,-1
 120 674 l 1,4,-1
 171 575 l 2,5,6
 223 475 223 475 254 412 c 128,-1,7
 285 349 285 349 290 336 c 2,8,-1
 295 324 l 1,9,10
 304 349 304 349 422 575 c 2,11,-1
 473 674 l 1,12,-1
 567 674 l 1,13,-1
 336 251 l 1,14,-1
 336 0 l 1,0,-1
EndSplineSet
EndChar

StartChar: Z
Encoding: 90 90 61
Width: 569
GlyphClass: 2
Flags: W
LayerCount: 2
Fore
SplineSet
517 0 m 1,0,-1
 52 0 l 1,1,-1
 52 67 l 1,2,-1
 408 605 l 1,3,-1
 57 605 l 1,4,-1
 57 674 l 1,5,-1
 502 674 l 1,6,-1
 502 608 l 1,7,-1
 146 69 l 1,8,-1
 517 69 l 1,9,-1
 517 0 l 1,0,-1
EndSplineSet
EndChar

StartChar: bracketleft
Encoding: 91 91 62
Width: 310
GlyphClass: 2
Flags: W
LayerCount: 2
Fore
SplineSet
307 -183 m 1,0,-1
 77 -183 l 1,1,-1
 77 707 l 1,2,-1
 307 707 l 1,3,-1
 307 637 l 1,4,-1
 155 637 l 1,5,-1
 155 -111 l 1,6,-1
 307 -111 l 1,7,-1
 307 -183 l 1,0,-1
EndSplineSet
EndChar

StartChar: backslash
Encoding: 92 92 63
Width: 402
GlyphClass: 2
Flags: W
LayerCount: 2
Fore
SplineSet
412 -103 m 1,0,-1
 332 -103 l 1,1,-1
 -33 707 l 1,2,-1
 48 707 l 1,3,-1
 412 -103 l 1,0,-1
EndSplineSet
EndChar

StartChar: bracketright
Encoding: 93 93 64
Width: 310
GlyphClass: 2
Flags: W
LayerCount: 2
Fore
SplineSet
233 -183 m 1,0,-1
 3 -183 l 1,1,-1
 3 -111 l 1,2,-1
 155 -111 l 1,3,-1
 155 637 l 1,4,-1
 3 637 l 1,5,-1
 3 707 l 1,6,-1
 233 707 l 1,7,-1
 233 -183 l 1,0,-1
EndSplineSet
EndChar

StartChar: asciicircum
Encoding: 94 94 65
Width: 461
GlyphClass: 2
Flags: W
LayerCount: 2
Fore
SplineSet
124 332 m 1,0,-1
 45 332 l 1,1,-1
 187 594 l 1,2,-1
 278 594 l 1,3,-1
 416 332 l 1,4,-1
 337 332 l 1,5,-1
 232 540 l 1,6,-1
 124 332 l 1,0,-1
EndSplineSet
EndChar

StartChar: underscore
Encoding: 95 95 66
Width: 561
GlyphClass: 2
Flags: W
LayerCount: 2
Fore
SplineSet
533 -100 m 1,0,-1
 28 -100 l 1,1,-1
 28 -31 l 1,2,-1
 533 -31 l 1,3,-1
 533 -100 l 1,0,-1
EndSplineSet
EndChar

StartChar: grave
Encoding: 96 96 67
Width: 421
GlyphClass: 2
Flags: W
LayerCount: 2
Fore
SplineSet
308 642 m 1,0,-1
 239 642 l 1,1,-1
 115 798 l 1,2,-1
 210 798 l 1,3,-1
 308 642 l 1,0,-1
EndSplineSet
EndChar

StartChar: a
Encoding: 97 97 68
Width: 492
GlyphClass: 2
Flags: W
LayerCount: 2
Fore
SplineSet
228 61 m 0,0,1
 282 61 282 61 314 91.5 c 128,-1,2
 346 122 346 122 346 169 c 2,3,-1
 346 234 l 1,4,-1
 258 234 l 2,5,6
 194 234 194 234 162 209 c 128,-1,7
 130 184 130 184 130 146 c 128,-1,8
 130 108 130 108 155 84.5 c 128,-1,9
 180 61 180 61 228 61 c 0,0,1
347 60 m 1,10,11
 308 -5 308 -5 205 -5 c 0,12,13
 134 -5 134 -5 90.5 37 c 128,-1,14
 47 79 47 79 47 143 c 0,15,16
 47 216 47 216 102.5 256.5 c 128,-1,17
 158 297 158 297 254 297 c 2,18,-1
 346 297 l 1,19,-1
 346 323 l 2,20,21
 346 383 346 383 319 413.5 c 128,-1,22
 292 444 292 444 228 444 c 0,23,24
 147 444 147 444 84 401 c 1,25,-1
 84 480 l 1,26,27
 141 515 141 515 234 515 c 0,28,29
 425 515 425 515 425 321 c 2,30,-1
 425 0 l 1,31,-1
 347 0 l 1,32,-1
 347 60 l 1,10,11
EndSplineSet
EndChar

StartChar: b
Encoding: 98 98 69
Width: 570
GlyphClass: 2
Flags: W
LayerCount: 2
Fore
SplineSet
155 0 m 1,0,-1
 76 0 l 1,1,-1
 76 707 l 1,2,-1
 155 707 l 1,3,-1
 155 431 l 1,4,5
 210 515 210 515 309 515 c 0,6,7
 405 515 405 515 466 441.5 c 128,-1,8
 527 368 527 368 527 249 c 0,9,10
 527 142 527 142 469.5 67 c 128,-1,11
 412 -8 412 -8 311 -8 c 0,12,13
 209 -8 209 -8 155 75 c 1,14,-1
 155 0 l 1,0,-1
155 257 m 0,15,16
 155 156 155 156 198.5 110 c 128,-1,17
 242 64 242 64 304 64 c 0,18,19
 365 64 365 64 405 115 c 128,-1,20
 445 166 445 166 445 248 c 0,21,22
 445 342 445 342 403.5 392.5 c 128,-1,23
 362 443 362 443 299 443 c 0,24,25
 245 443 245 443 200 398 c 128,-1,26
 155 353 155 353 155 257 c 0,15,16
EndSplineSet
EndChar

StartChar: c
Encoding: 99 99 70
Width: 471
GlyphClass: 2
Flags: W
LayerCount: 2
Fore
SplineSet
422 18 m 1,0,1
 374 -11 374 -11 304 -11 c 0,2,3
 184 -11 184 -11 113.5 65.5 c 128,-1,4
 43 142 43 142 43 252 c 0,5,6
 43 360 43 360 113.5 438 c 128,-1,7
 184 516 184 516 306 516 c 0,8,9
 371 516 371 516 422 488 c 1,10,-1
 422 413 l 1,11,12
 376 444 376 444 314 444 c 0,13,14
 228 444 228 444 176.5 388.5 c 128,-1,15
 125 333 125 333 125 251 c 0,16,17
 126 169 126 169 175 114.5 c 128,-1,18
 224 60 224 60 314 60 c 0,19,20
 372 60 372 60 422 93 c 1,21,-1
 422 18 l 1,0,1
EndSplineSet
EndChar

StartChar: d
Encoding: 100 100 71
Width: 567
GlyphClass: 2
Flags: W
LayerCount: 2
Fore
SplineSet
125 248 m 0,0,1
 125 166 125 166 165 115 c 128,-1,2
 205 64 205 64 266 64 c 0,3,4
 328 64 328 64 371.5 110 c 128,-1,5
 415 156 415 156 415 257 c 0,6,7
 415 353 415 353 370 398 c 128,-1,8
 325 443 325 443 271 443 c 0,9,10
 208 443 208 443 166.5 392.5 c 128,-1,11
 125 342 125 342 125 248 c 0,0,1
494 0 m 1,12,-1
 415 0 l 1,13,-1
 415 75 l 1,14,15
 361 -8 361 -8 259 -8 c 0,16,17
 158 -8 158 -8 100.5 67 c 128,-1,18
 43 142 43 142 43 249 c 0,19,20
 43 368 43 368 104 441.5 c 128,-1,21
 165 515 165 515 261 515 c 0,22,23
 360 515 360 515 415 430 c 1,24,-1
 415 707 l 1,25,-1
 494 707 l 1,26,-1
 494 0 l 1,12,-1
EndSplineSet
EndChar

StartChar: e
Encoding: 101 101 72
Width: 522
GlyphClass: 2
Flags: W
LayerCount: 2
Fore
SplineSet
443 26 m 1,0,1
 384 -5 384 -5 299 -5 c 0,2,3
 184 -5 184 -5 113.5 65.5 c 128,-1,4
 43 136 43 136 43 252 c 0,5,6
 43 373 43 373 106 443 c 128,-1,7
 169 513 169 513 268 513 c 0,8,9
 363 513 363 513 419 452 c 128,-1,10
 475 391 475 391 475 279 c 0,11,12
 475 247 475 247 470 220 c 1,13,-1
 124 220 l 1,14,15
 133 145 133 145 181 105 c 128,-1,16
 229 65 229 65 307 65 c 0,17,18
 392 65 392 65 443 100 c 1,19,-1
 443 26 l 1,0,1
268 444 m 0,20,21
 211 444 211 444 171 403 c 128,-1,22
 131 362 131 362 124 286 c 1,23,-1
 396 286 l 1,24,-1
 396 306 l 2,25,26
 396 369 396 369 362 406.5 c 128,-1,27
 328 444 328 444 268 444 c 0,20,21
EndSplineSet
EndChar

StartChar: f
Encoding: 102 102 73
Width: 329
GlyphClass: 2
Flags: W
LayerCount: 2
Fore
SplineSet
308 443 m 1,0,-1
 196 443 l 1,1,-1
 196 0 l 1,2,-1
 117 0 l 1,3,-1
 117 443 l 1,4,-1
 30 443 l 1,5,-1
 30 507 l 1,6,-1
 117 507 l 1,7,-1
 117 554 l 2,8,9
 117 628 117 628 156.5 671 c 128,-1,10
 196 714 196 714 266 714 c 0,11,12
 290 714 290 714 315 707 c 1,13,-1
 315 635 l 1,14,15
 291 643 291 643 269 643 c 0,16,17
 237 643 237 643 216.5 621 c 128,-1,18
 196 599 196 599 196 553 c 2,19,-1
 196 507 l 1,20,-1
 308 507 l 1,21,-1
 308 443 l 1,0,-1
EndSplineSet
EndChar

StartChar: g
Encoding: 103 103 74
Width: 549
GlyphClass: 2
Flags: W
LayerCount: 2
Fore
SplineSet
482 41 m 2,0,1
 482 -75 482 -75 418 -133.5 c 128,-1,2
 354 -192 354 -192 253 -192 c 0,3,4
 161 -192 161 -192 96 -161 c 1,5,-1
 96 -82 l 1,6,7
 160 -119 160 -119 246 -119 c 0,8,9
 319 -119 319 -119 361 -80 c 128,-1,10
 403 -41 403 -41 403 42 c 2,11,-1
 403 99 l 1,12,13
 353 13 353 13 254 13 c 0,14,15
 167 13 167 13 105.5 77 c 128,-1,16
 44 141 44 141 44 255 c 0,17,18
 44 368 44 368 101 441 c 128,-1,19
 158 514 158 514 250 514 c 0,20,21
 354 514 354 514 403 423 c 1,22,-1
 403 507 l 1,23,-1
 482 507 l 1,24,-1
 482 41 l 2,0,1
126 257 m 0,25,26
 126 172 126 172 168 127.5 c 128,-1,27
 210 83 210 83 263 83 c 0,28,29
 318 83 318 83 360.5 125.5 c 128,-1,30
 403 168 403 168 403 252 c 0,31,32
 403 349 403 349 362 396 c 128,-1,33
 321 443 321 443 267 443 c 0,34,35
 202 443 202 443 164 391.5 c 128,-1,36
 126 340 126 340 126 257 c 0,25,26
EndSplineSet
EndChar

StartChar: h
Encoding: 104 104 75
Width: 540
GlyphClass: 2
Flags: W
LayerCount: 2
Fore
SplineSet
473 0 m 1,0,-1
 394 0 l 1,1,-1
 394 328 l 2,2,3
 394 383 394 383 365.5 413 c 128,-1,4
 337 443 337 443 291 443 c 0,5,6
 235 443 235 443 193 400 c 128,-1,7
 151 357 151 357 151 277 c 2,8,-1
 151 0 l 1,9,-1
 73 0 l 1,10,-1
 73 707 l 1,11,-1
 151 707 l 1,12,-1
 151 419 l 1,13,14
 196 514 196 514 311 514 c 0,15,16
 384 514 384 514 428.5 469 c 128,-1,17
 473 424 473 424 473 347 c 2,18,-1
 473 0 l 1,0,-1
EndSplineSet
EndChar

StartChar: i
Encoding: 105 105 76
Width: 233
GlyphClass: 2
Flags: W
LayerCount: 2
Fore
SplineSet
156 0 m 1,0,-1
 77 0 l 1,1,-1
 77 507 l 1,2,-1
 156 507 l 1,3,-1
 156 0 l 1,0,-1
168 666 m 128,-1,5
 168 644 168 644 153 629.5 c 128,-1,6
 138 615 138 615 116 615 c 128,-1,7
 94 615 94 615 79.5 629.5 c 128,-1,8
 65 644 65 644 65 666 c 128,-1,9
 65 688 65 688 79.5 703 c 128,-1,10
 94 718 94 718 116 718 c 128,-1,11
 138 718 138 718 153 703 c 128,-1,4
 168 688 168 688 168 666 c 128,-1,5
EndSplineSet
EndChar

StartChar: j
Encoding: 106 106 77
Width: 228
GlyphClass: 2
Flags: W
LayerCount: 2
Fore
SplineSet
156 -55 m 2,0,1
 156 -121 156 -121 121.5 -158 c 128,-1,2
 87 -195 87 -195 26 -195 c 0,3,4
 -7 -195 -7 -195 -46 -180 c 1,5,-1
 -46 -110 l 1,6,7
 -8 -126 -8 -126 22 -126 c 0,8,9
 78 -126 78 -126 78 -53 c 2,10,-1
 78 507 l 1,11,-1
 156 507 l 1,12,-1
 156 -55 l 2,0,1
168 666 m 128,-1,14
 168 644 168 644 153 629.5 c 128,-1,15
 138 615 138 615 116 615 c 128,-1,16
 94 615 94 615 79.5 629.5 c 128,-1,17
 65 644 65 644 65 666 c 128,-1,18
 65 688 65 688 79.5 703 c 128,-1,19
 94 718 94 718 116 718 c 128,-1,20
 138 718 138 718 153 703 c 128,-1,13
 168 688 168 688 168 666 c 128,-1,14
EndSplineSet
EndChar

StartChar: k
Encoding: 107 107 78
Width: 480
GlyphClass: 2
Flags: W
LayerCount: 2
Fore
SplineSet
151 0 m 1,0,-1
 73 0 l 1,1,-1
 73 703 l 1,2,-1
 151 703 l 1,3,-1
 151 0 l 1,0,-1
254 266 m 1,4,-1
 460 0 l 1,5,-1
 365 0 l 1,6,-1
 161 266 l 1,7,-1
 360 507 l 1,8,-1
 454 507 l 1,9,-1
 254 266 l 1,4,-1
EndSplineSet
EndChar

StartChar: l
Encoding: 108 108 79
Width: 233
GlyphClass: 2
Flags: W
LayerCount: 2
Fore
SplineSet
156 0 m 1,0,-1
 77 0 l 1,1,-1
 77 707 l 1,2,-1
 156 707 l 1,3,-1
 156 0 l 1,0,-1
EndSplineSet
EndChar

StartChar: m
Encoding: 109 109 80
Width: 818
GlyphClass: 2
Flags: W
LayerCount: 2
Fore
SplineSet
751 0 m 1,0,-1
 672 0 l 1,1,-1
 672 328 l 2,2,3
 672 443 672 443 575 443 c 0,4,5
 527 443 527 443 489 399.5 c 128,-1,6
 451 356 451 356 451 277 c 2,7,-1
 451 0 l 1,8,-1
 372 0 l 1,9,-1
 372 328 l 2,10,11
 372 443 372 443 275 443 c 0,12,13
 227 443 227 443 189 399.5 c 128,-1,14
 151 356 151 356 151 277 c 2,15,-1
 151 0 l 1,16,-1
 73 0 l 1,17,-1
 73 507 l 1,18,-1
 151 507 l 1,19,-1
 151 425 l 1,20,21
 193 514 193 514 294 514 c 0,22,23
 411 514 411 514 442 415 c 1,24,25
 464 463 464 463 503.5 488.5 c 128,-1,26
 543 514 543 514 592 514 c 0,27,28
 671 514 671 514 711 469 c 128,-1,29
 751 424 751 424 751 348 c 2,30,-1
 751 0 l 1,0,-1
EndSplineSet
EndChar

StartChar: n
Encoding: 110 110 81
Width: 540
GlyphClass: 2
Flags: W
LayerCount: 2
Fore
SplineSet
473 0 m 1,0,-1
 394 0 l 1,1,-1
 394 328 l 2,2,3
 394 384 394 384 365.5 413.5 c 128,-1,4
 337 443 337 443 291 443 c 0,5,6
 234 443 234 443 192.5 399 c 128,-1,7
 151 355 151 355 151 277 c 2,8,-1
 151 0 l 1,9,-1
 73 0 l 1,10,-1
 73 507 l 1,11,-1
 151 507 l 1,12,-1
 151 419 l 1,13,14
 196 514 196 514 311 514 c 0,15,16
 385 514 385 514 429 469 c 128,-1,17
 473 424 473 424 473 349 c 2,18,-1
 473 0 l 1,0,-1
EndSplineSet
EndChar

StartChar: o
Encoding: 111 111 82
Width: 562
GlyphClass: 2
Flags: W
LayerCount: 2
Fore
SplineSet
519 252 m 0,0,1
 519 139 519 139 455 65 c 128,-1,2
 391 -9 391 -9 279 -9 c 0,3,4
 170 -9 170 -9 106.5 64.5 c 128,-1,5
 43 138 43 138 43 250 c 0,6,7
 43 363 43 363 108.5 438.5 c 128,-1,8
 174 514 174 514 279 514 c 0,9,10
 394 514 394 514 456.5 440 c 128,-1,11
 519 366 519 366 519 252 c 0,0,1
125 251 m 0,12,13
 125 172 125 172 167 116.5 c 128,-1,14
 209 61 209 61 279 61 c 0,15,16
 355 61 355 61 396 115.5 c 128,-1,17
 437 170 437 170 437 251 c 0,18,19
 437 335 437 335 398 389.5 c 128,-1,20
 359 444 359 444 279 444 c 0,21,22
 207 444 207 444 166 388 c 128,-1,23
 125 332 125 332 125 251 c 0,12,13
EndSplineSet
EndChar

StartChar: p
Encoding: 112 112 83
Width: 567
GlyphClass: 2
Flags: W
LayerCount: 2
Fore
SplineSet
151 -197 m 1,0,-1
 73 -197 l 1,1,-1
 73 507 l 1,2,-1
 151 507 l 1,3,-1
 151 430 l 1,4,5
 204 515 204 515 308 515 c 0,6,7
 409 515 409 515 466.5 441.5 c 128,-1,8
 524 368 524 368 524 258 c 0,9,10
 524 141 524 141 463.5 66.5 c 128,-1,11
 403 -8 403 -8 306 -8 c 0,12,13
 206 -8 206 -8 151 77 c 1,14,-1
 151 -197 l 1,0,-1
151 253 m 0,15,16
 151 156 151 156 196 110 c 128,-1,17
 241 64 241 64 296 64 c 0,18,19
 360 64 360 64 401 114.5 c 128,-1,20
 442 165 442 165 442 258 c 0,21,22
 442 341 442 341 402 392 c 128,-1,23
 362 443 362 443 301 443 c 128,-1,24
 240 443 240 443 195.5 398.5 c 128,-1,25
 151 354 151 354 151 253 c 0,15,16
EndSplineSet
EndChar

StartChar: q
Encoding: 113 113 84
Width: 567
GlyphClass: 2
Flags: W
LayerCount: 2
Fore
SplineSet
125 258 m 0,0,1
 125 165 125 165 166 114.5 c 128,-1,2
 207 64 207 64 271 64 c 0,3,4
 326 64 326 64 370.5 109.5 c 128,-1,5
 415 155 415 155 415 253 c 0,6,7
 415 354 415 354 371 398.5 c 128,-1,8
 327 443 327 443 266 443 c 128,-1,9
 205 443 205 443 165 392 c 128,-1,10
 125 341 125 341 125 258 c 0,0,1
494 -197 m 1,11,-1
 415 -197 l 1,12,-1
 415 76 l 1,13,14
 360 -8 360 -8 261 -8 c 0,15,16
 164 -8 164 -8 103.5 66.5 c 128,-1,17
 43 141 43 141 43 258 c 0,18,19
 43 368 43 368 101 441.5 c 128,-1,20
 159 515 159 515 260 515 c 128,-1,21
 361 515 361 515 415 432 c 1,22,-1
 415 507 l 1,23,-1
 494 507 l 1,24,-1
 494 -197 l 1,11,-1
EndSplineSet
EndChar

StartChar: r
Encoding: 114 114 85
Width: 326
GlyphClass: 2
Flags: W
LayerCount: 2
Fore
SplineSet
151 0 m 1,0,-1
 72 0 l 1,1,-1
 73 507 l 1,2,-1
 151 507 l 1,3,-1
 151 418 l 1,4,5
 191 512 191 512 289 512 c 0,6,7
 307 512 307 512 317 510 c 1,8,-1
 317 432 l 1,9,10
 296 439 296 439 274 439 c 0,11,12
 221 439 221 439 186 390 c 128,-1,13
 151 341 151 341 151 277 c 2,14,-1
 151 0 l 1,0,-1
EndSplineSet
EndChar

StartChar: s
Encoding: 115 115 86
Width: 412
GlyphClass: 2
Flags: W
LayerCount: 2
Fore
SplineSet
378 135 m 0,0,1
 378 70 378 70 332.5 32 c 128,-1,2
 287 -6 287 -6 208 -6 c 0,3,4
 116 -6 116 -6 59 25 c 1,5,-1
 59 102 l 1,6,7
 126 62 126 62 203 62 c 0,8,9
 249 62 249 62 273 80 c 128,-1,10
 297 98 297 98 297 129 c 0,11,12
 297 165 297 165 270.5 185 c 128,-1,13
 244 205 244 205 182 230 c 0,14,15
 125 252 125 252 90.5 285 c 128,-1,16
 56 318 56 318 56 374 c 0,17,18
 56 437 56 437 103.5 474.5 c 128,-1,19
 151 512 151 512 222 512 c 0,20,21
 301 512 301 512 349 490 c 1,22,-1
 349 415 l 1,23,24
 303 443 303 443 223 443 c 0,25,26
 183 443 183 443 159.5 424.5 c 128,-1,27
 136 406 136 406 136 377 c 0,28,29
 136 359 136 359 143 345.5 c 128,-1,30
 150 332 150 332 170.5 319 c 128,-1,31
 191 306 191 306 200.5 301.5 c 128,-1,32
 210 297 210 297 242 283 c 0,33,34
 306 257 306 257 342 224 c 128,-1,35
 378 191 378 191 378 135 c 0,0,1
EndSplineSet
EndChar

StartChar: t
Encoding: 116 116 87
Width: 369
GlyphClass: 2
Flags: W
LayerCount: 2
Fore
SplineSet
327 13 m 1,0,1
 294 -5 294 -5 253 -5 c 0,2,3
 103 -5 103 -5 103 148 c 2,4,-1
 103 443 l 1,5,-1
 22 443 l 1,6,-1
 22 507 l 1,7,-1
 103 507 l 1,8,-1
 103 633 l 1,9,-1
 182 633 l 1,10,-1
 182 507 l 1,11,-1
 322 507 l 1,12,-1
 322 443 l 1,13,-1
 182 443 l 1,14,-1
 182 146 l 2,15,16
 182 65 182 65 258 65 c 0,17,18
 297 65 297 65 327 88 c 1,19,-1
 327 13 l 1,0,1
EndSplineSet
EndChar

StartChar: u
Encoding: 117 117 88
Width: 540
GlyphClass: 2
Flags: W
LayerCount: 2
Fore
SplineSet
467 0 m 1,0,-1
 388 0 l 1,1,-1
 388 88 l 1,2,3
 348 -6 348 -6 229 -6 c 0,4,5
 154 -6 154 -6 110.5 38.5 c 128,-1,6
 67 83 67 83 67 158 c 2,7,-1
 67 507 l 1,8,-1
 146 507 l 1,9,-1
 146 178 l 2,10,11
 146 123 146 123 174 94 c 128,-1,12
 202 65 202 65 250 65 c 0,13,14
 313 65 313 65 350.5 109 c 128,-1,15
 388 153 388 153 388 228 c 2,16,-1
 388 507 l 1,17,-1
 467 507 l 1,18,-1
 467 0 l 1,0,-1
EndSplineSet
EndChar

StartChar: v
Encoding: 118 118 89
Width: 505
GlyphClass: 2
Flags: W
LayerCount: 2
Fore
SplineSet
299 0 m 1,0,-1
 202 0 l 1,1,-1
 25 507 l 1,2,-1
 107 507 l 1,3,-1
 177 293 l 1,4,-1
 251 62 l 1,5,6
 260 105 260 105 326 293 c 2,7,-1
 398 507 l 1,8,-1
 480 507 l 1,9,-1
 299 0 l 1,0,-1
EndSplineSet
EndChar

StartChar: w
Encoding: 119 119 90
Width: 792
GlyphClass: 2
Flags: W
LayerCount: 2
Fore
SplineSet
278 0 m 1,0,-1
 181 0 l 1,1,-1
 25 507 l 1,2,-1
 109 507 l 1,3,-1
 158 339 l 2,4,5
 184 251 184 251 201.5 185.5 c 128,-1,6
 219 120 219 120 224 98 c 2,7,-1
 229 77 l 1,8,9
 244 141 244 141 302 340 c 2,10,-1
 350 507 l 1,11,-1
 434 507 l 1,12,-1
 483 340 l 1,13,-1
 558 76 l 1,14,15
 572 135 572 135 635 340 c 2,16,-1
 686 507 l 1,17,-1
 767 507 l 1,18,-1
 607 0 l 1,19,-1
 510 0 l 1,20,-1
 462 166 l 1,21,-1
 392 419 l 1,22,23
 377 355 377 355 324 166 c 2,24,-1
 278 0 l 1,0,-1
EndSplineSet
EndChar

StartChar: x
Encoding: 120 120 91
Width: 478
GlyphClass: 2
Flags: W
LayerCount: 2
Fore
SplineSet
112 0 m 1,0,-1
 25 0 l 1,1,-1
 195 260 l 1,2,-1
 35 508 l 1,3,-1
 126 508 l 1,4,-1
 241 318 l 1,5,-1
 357 508 l 1,6,-1
 447 508 l 1,7,-1
 283 259 l 1,8,-1
 453 0 l 1,9,-1
 362 0 l 1,10,-1
 239 200 l 1,11,-1
 112 0 l 1,0,-1
EndSplineSet
EndChar

StartChar: y
Encoding: 121 121 92
Width: 493
GlyphClass: 2
Flags: W
LayerCount: 2
Fore
SplineSet
293 13 m 2,0,1
 254 -90 254 -90 200.5 -132 c 128,-1,2
 147 -174 147 -174 78 -174 c 0,3,4
 52 -174 52 -174 36 -169 c 1,5,-1
 36 -98 l 1,6,7
 51 -102 51 -102 70 -102 c 0,8,9
 171 -102 171 -102 213 13 c 1,10,-1
 8 507 l 1,11,-1
 97 507 l 1,12,-1
 163 340 l 1,13,-1
 252 110 l 1,14,15
 260 136 260 136 332 340 c 2,16,-1
 391 507 l 1,17,-1
 476 507 l 1,18,-1
 293 13 l 2,0,1
EndSplineSet
EndChar

StartChar: z
Encoding: 122 122 93
Width: 453
GlyphClass: 2
Flags: W
LayerCount: 2
Fore
SplineSet
409 0 m 1,0,-1
 44 0 l 1,1,-1
 44 62 l 1,2,-1
 301 437 l 1,3,-1
 54 437 l 1,4,-1
 54 507 l 1,5,-1
 395 507 l 1,6,-1
 395 449 l 1,7,-1
 135 71 l 1,8,-1
 409 71 l 1,9,-1
 409 0 l 1,0,-1
EndSplineSet
EndChar

StartChar: braceleft
Encoding: 123 123 94
Width: 334
GlyphClass: 2
Flags: W
LayerCount: 2
Fore
SplineSet
321 -181 m 1,0,1
 300 -189 300 -189 274 -189 c 0,2,3
 219 -189 219 -189 181.5 -148.5 c 128,-1,4
 144 -108 144 -108 144 -40 c 0,5,6
 144 -13 144 -13 154.5 34 c 128,-1,7
 165 81 165 81 165 103 c 0,8,9
 165 204 165 204 77 222 c 0,10,11
 68 224 68 224 48 224 c 1,12,-1
 48 301 l 1,13,14
 66 301 66 301 77 303 c 0,15,16
 120 309 120 309 142.5 341.5 c 128,-1,17
 165 374 165 374 165 420 c 0,18,19
 165 442 165 442 154.5 489 c 128,-1,20
 144 536 144 536 144 563 c 0,21,22
 144 631 144 631 182 672 c 128,-1,23
 220 713 220 713 274 713 c 0,24,25
 295 713 295 713 321 705 c 1,26,-1
 321 627 l 1,27,28
 304 636 304 636 288 636 c 0,29,30
 257 636 257 636 241 615 c 128,-1,31
 225 594 225 594 225 562 c 0,32,33
 225 536 225 536 235.5 485 c 128,-1,34
 246 434 246 434 246 405 c 0,35,36
 246 349 246 349 214.5 310 c 128,-1,37
 183 271 183 271 124 262 c 1,38,39
 183 253 183 253 214.5 213.5 c 128,-1,40
 246 174 246 174 246 119 c 0,41,42
 246 89 246 89 235.5 38 c 128,-1,43
 225 -13 225 -13 225 -39 c 0,44,45
 225 -71 225 -71 241 -92 c 128,-1,46
 257 -113 257 -113 288 -113 c 0,47,48
 304 -113 304 -113 321 -104 c 1,49,-1
 321 -181 l 1,0,1
EndSplineSet
EndChar

StartChar: bar
Encoding: 124 124 95
Width: 228
GlyphClass: 2
Flags: W
LayerCount: 2
Fore
SplineSet
150 -194 m 1,0,-1
 78 -194 l 1,1,-1
 78 695 l 1,2,-1
 150 695 l 1,3,-1
 150 -194 l 1,0,-1
EndSplineSet
EndChar

StartChar: braceright
Encoding: 125 125 96
Width: 334
GlyphClass: 2
Flags: W
LayerCount: 2
Fore
SplineSet
190 -40 m 0,0,1
 190 -108 190 -108 152.5 -148.5 c 128,-1,2
 115 -189 115 -189 60 -189 c 0,3,4
 34 -189 34 -189 13 -181 c 1,5,-1
 13 -104 l 1,6,7
 30 -113 30 -113 47 -113 c 0,8,9
 77 -113 77 -113 93 -92 c 128,-1,10
 109 -71 109 -71 109 -39 c 0,11,12
 109 -13 109 -13 99 38 c 128,-1,13
 89 89 89 89 89 119 c 0,14,15
 89 174 89 174 120.5 213.5 c 128,-1,16
 152 253 152 253 210 262 c 1,17,18
 152 271 152 271 120.5 310 c 128,-1,19
 89 349 89 349 89 405 c 0,20,21
 89 435 89 435 99 485.5 c 128,-1,22
 109 536 109 536 109 562 c 0,23,24
 109 594 109 594 93 615 c 128,-1,25
 77 636 77 636 47 636 c 0,26,27
 30 636 30 636 13 627 c 1,28,-1
 13 705 l 1,29,30
 39 713 39 713 60 713 c 0,31,32
 114 713 114 713 152 672 c 128,-1,33
 190 631 190 631 190 563 c 0,34,35
 190 536 190 536 179.5 489 c 128,-1,36
 169 442 169 442 169 420 c 0,37,38
 169 374 169 374 191.5 341.5 c 128,-1,39
 214 309 214 309 257 303 c 0,40,41
 268 301 268 301 286 301 c 1,42,-1
 286 224 l 1,43,44
 266 224 266 224 257 222 c 0,45,46
 212 213 212 213 190.5 181 c 128,-1,47
 169 149 169 149 169 103 c 0,48,49
 169 81 169 81 179.5 34 c 128,-1,50
 190 -13 190 -13 190 -40 c 0,0,1
EndSplineSet
EndChar

StartChar: asciitilde
Encoding: 126 126 97
Width: 599
GlyphClass: 2
Flags: W
LayerCount: 2
Fore
SplineSet
204 268 m 0,0,1
 137 268 137 268 89 199 c 1,2,-1
 36 245 l 1,3,4
 104 340 104 340 192 340 c 0,5,6
 246 340 246 340 313.5 303 c 128,-1,7
 381 266 381 266 413 266 c 0,8,9
 469 266 469 266 504 326 c 1,10,-1
 563 284 l 1,11,12
 505 194 505 194 420 194 c 0,13,14
 373 194 373 194 302.5 231 c 128,-1,15
 232 268 232 268 204 268 c 0,0,1
EndSplineSet
EndChar

StartChar: exclamdown
Encoding: 161 161 98
Width: 251
GlyphClass: 2
Flags: W
LayerCount: 2
Fore
SplineSet
164 -165 m 1,0,-1
 87 -165 l 1,1,-1
 87 305 l 1,2,-1
 164 305 l 1,3,-1
 164 -165 l 1,0,-1
184 458 m 0,4,5
 184 434 184 434 166.5 416.5 c 128,-1,6
 149 399 149 399 124 399 c 128,-1,7
 99 399 99 399 82 416.5 c 128,-1,8
 65 434 65 434 65 458 c 0,9,10
 65 484 65 484 81.5 500.5 c 128,-1,11
 98 517 98 517 124 517 c 128,-1,12
 150 517 150 517 167 500 c 128,-1,13
 184 483 184 483 184 458 c 0,4,5
EndSplineSet
EndChar

StartChar: cent
Encoding: 162 162 99
Width: 452
GlyphClass: 2
Flags: W
LayerCount: 2
Fore
SplineSet
412 14 m 1,0,1
 379 -2 379 -2 334 -7 c 1,2,-1
 334 -111 l 1,3,-1
 265 -111 l 1,4,-1
 265 -5 l 1,5,6
 162 8 162 8 104 80 c 128,-1,7
 46 152 46 152 46 252 c 0,8,9
 46 349 46 349 104.5 422.5 c 128,-1,10
 163 496 163 496 265 510 c 1,11,-1
 265 615 l 1,12,-1
 334 615 l 1,13,-1
 334 512 l 1,14,15
 376 507 376 507 412 490 c 1,16,-1
 412 416 l 1,17,18
 365 441 365 441 318 441 c 0,19,20
 231 441 231 441 179.5 386.5 c 128,-1,21
 128 332 128 332 127 251 c 0,22,23
 128 170 128 170 177.5 117 c 128,-1,24
 227 64 227 64 318 64 c 0,25,26
 370 64 370 64 412 88 c 1,27,-1
 412 14 l 1,0,1
EndSplineSet
EndChar

StartChar: sterling
Encoding: 163 163 100
Width: 522
GlyphClass: 2
Flags: W
LayerCount: 2
Fore
SplineSet
483 0 m 1,0,-1
 61 0 l 1,1,-1
 61 66 l 1,2,3
 118 93 118 93 139 133 c 128,-1,4
 160 173 160 173 160 249 c 0,5,6
 160 262 160 262 158 292 c 1,7,-1
 66 292 l 1,8,-1
 66 355 l 1,9,-1
 151 355 l 1,10,11
 143 423 143 423 143 449 c 0,12,13
 143 550 143 550 196.5 604.5 c 128,-1,14
 250 659 250 659 347 659 c 0,15,16
 405 659 405 659 455 634 c 1,17,-1
 455 556 l 1,18,19
 407 584 407 584 355 584 c 0,20,21
 224 584 224 584 224 453 c 0,22,23
 224 423 224 423 232 355 c 1,24,-1
 412 355 l 1,25,-1
 412 292 l 1,26,-1
 238 292 l 1,27,28
 240 264 240 264 240 250 c 0,29,30
 240 173 240 173 219.5 133 c 128,-1,31
 199 93 199 93 161 69 c 1,32,-1
 483 69 l 1,33,-1
 483 0 l 1,0,-1
EndSplineSet
EndChar

StartChar: currency
Encoding: 164 164 101
Width: 543
GlyphClass: 2
Flags: W
LayerCount: 2
Fore
SplineSet
143 134 m 1,0,-1
 85 76 l 1,1,-1
 34 125 l 1,2,-1
 93 183 l 1,3,4
 55 236 55 236 55 309 c 0,5,6
 55 381 55 381 95 437 c 1,7,-1
 34 498 l 1,8,-1
 85 547 l 1,9,-1
 145 486 l 1,10,11
 202 527 202 527 275 527 c 0,12,13
 345 527 345 527 401 490 c 1,14,-1
 459 547 l 1,15,-1
 509 498 l 1,16,-1
 451 440 l 1,17,18
 489 384 489 384 489 315 c 0,19,20
 489 244 489 244 447 186 c 1,21,-1
 509 125 l 1,22,-1
 459 76 l 1,23,-1
 397 137 l 1,24,25
 341 98 341 98 269 98 c 0,26,27
 196 98 196 98 143 134 c 1,0,-1
123 313 m 0,28,29
 123 248 123 248 165 205.5 c 128,-1,30
 207 163 207 163 272 163 c 0,31,32
 336 163 336 163 378 205 c 128,-1,33
 420 247 420 247 420 312 c 0,34,35
 420 376 420 376 378 419 c 128,-1,36
 336 462 336 462 272 462 c 0,37,38
 207 462 207 462 165 419.5 c 128,-1,39
 123 377 123 377 123 313 c 0,28,29
EndSplineSet
EndChar

StartChar: yen
Encoding: 165 165 102
Width: 585
GlyphClass: 2
Flags: W
LayerCount: 2
Fore
SplineSet
509 157 m 1,0,-1
 331 157 l 1,1,-1
 331 0 l 1,2,-1
 249 0 l 1,3,-1
 249 157 l 1,4,-1
 72 157 l 1,5,-1
 72 215 l 1,6,-1
 249 215 l 1,7,-1
 249 253 l 1,8,-1
 222 303 l 1,9,-1
 72 303 l 1,10,-1
 72 362 l 1,11,-1
 190 362 l 1,12,-1
 33 654 l 1,13,-1
 125 654 l 1,14,-1
 290 332 l 1,15,-1
 457 654 l 1,16,-1
 549 654 l 1,17,-1
 390 362 l 1,18,-1
 509 362 l 1,19,-1
 509 303 l 1,20,-1
 358 303 l 1,21,-1
 331 254 l 1,22,-1
 331 215 l 1,23,-1
 509 215 l 1,24,-1
 509 157 l 1,0,-1
EndSplineSet
EndChar

StartChar: brokenbar
Encoding: 166 166 103
Width: 228
GlyphClass: 2
Flags: W
LayerCount: 2
Fore
SplineSet
150 367 m 1,0,-1
 78 367 l 1,1,-1
 78 698 l 1,2,-1
 150 698 l 1,3,-1
 150 367 l 1,0,-1
150 -178 m 1,4,-1
 78 -178 l 1,5,-1
 78 153 l 1,6,-1
 150 153 l 1,7,-1
 150 -178 l 1,4,-1
EndSplineSet
EndChar

StartChar: section
Encoding: 167 167 104
Width: 512
GlyphClass: 2
Flags: W
LayerCount: 2
Fore
SplineSet
273 169 m 0,0,1
 333 142 333 142 354 131 c 1,2,3
 379 161 379 161 379 203 c 0,4,5
 379 246 379 246 348 271.5 c 128,-1,6
 317 297 317 297 252 328 c 0,7,8
 239 334 239 334 206.5 347.5 c 128,-1,9
 174 361 174 361 158 369 c 1,10,11
 132 340 132 340 132 300 c 0,12,13
 132 275 132 275 141.5 256 c 128,-1,14
 151 237 151 237 174.5 220.5 c 128,-1,15
 198 204 198 204 216.5 194.5 c 128,-1,16
 235 185 235 185 273 169 c 0,0,1
458 203 m 0,17,18
 458 131 458 131 415 85 c 1,19,20
 456 41 456 41 456 -22 c 0,21,22
 456 -109 456 -109 395.5 -156 c 128,-1,23
 335 -203 335 -203 240 -203 c 0,24,25
 133 -203 133 -203 59 -159 c 1,26,-1
 59 -72 l 1,27,28
 133 -128 133 -128 237 -128 c 0,29,30
 302 -128 302 -128 337.5 -101 c 128,-1,31
 373 -74 373 -74 373 -23 c 0,32,33
 373 18 373 18 343 43 c 128,-1,34
 313 68 313 68 242 100 c 0,35,36
 208 115 208 115 195 121 c 128,-1,37
 182 127 182 127 153 142.5 c 128,-1,38
 124 158 124 158 111 171 c 128,-1,39
 98 184 98 184 81 203.5 c 128,-1,40
 64 223 64 223 57.5 246.5 c 128,-1,41
 51 270 51 270 51 299 c 0,42,43
 51 365 51 365 93 412 c 1,44,45
 55 450 55 450 55 508 c 0,46,47
 55 591 55 591 115.5 635.5 c 128,-1,48
 176 680 176 680 269 680 c 0,49,50
 356 680 356 680 417 649 c 1,51,-1
 417 564 l 1,52,53
 356 604 356 604 272 604 c 0,54,55
 209 604 209 604 174 580 c 128,-1,56
 139 556 139 556 139 511 c 0,57,58
 139 491 139 491 145.5 477 c 128,-1,59
 152 463 152 463 169 451 c 128,-1,60
 186 439 186 439 198.5 432.5 c 128,-1,61
 211 426 211 426 241.5 413.5 c 128,-1,62
 272 401 272 401 288 394 c 0,63,64
 321 379 321 379 339.5 369.5 c 128,-1,65
 358 360 358 360 384 342 c 128,-1,66
 410 324 410 324 423.5 306.5 c 128,-1,67
 437 289 437 289 447.5 262 c 128,-1,68
 458 235 458 235 458 203 c 0,17,18
EndSplineSet
EndChar

StartChar: dieresis
Encoding: 168 168 105
Width: 421
GlyphClass: 2
Flags: W
LayerCount: 2
Fore
SplineSet
363 723 m 128,-1,1
 363 701 363 701 348 686 c 128,-1,2
 333 671 333 671 311 671 c 128,-1,3
 289 671 289 671 274.5 686 c 128,-1,4
 260 701 260 701 260 723 c 128,-1,5
 260 745 260 745 274.5 759.5 c 128,-1,6
 289 774 289 774 311 774 c 128,-1,7
 333 774 333 774 348 759.5 c 128,-1,0
 363 745 363 745 363 723 c 128,-1,1
161 723 m 128,-1,9
 161 701 161 701 146.5 686 c 128,-1,10
 132 671 132 671 110 671 c 128,-1,11
 88 671 88 671 73 686 c 128,-1,12
 58 701 58 701 58 723 c 128,-1,13
 58 745 58 745 73 759.5 c 128,-1,14
 88 774 88 774 110 774 c 128,-1,15
 132 774 132 774 146.5 759.5 c 128,-1,8
 161 745 161 745 161 723 c 128,-1,9
EndSplineSet
EndChar

StartChar: copyright
Encoding: 169 169 106
Width: 776
GlyphClass: 2
Flags: W
LayerCount: 2
Fore
SplineSet
495 168 m 1,0,1
 463 147 463 147 411 147 c 0,2,3
 325 147 325 147 274 201.5 c 128,-1,4
 223 256 223 256 223 335 c 0,5,6
 224 412 224 412 274.5 468 c 128,-1,7
 325 524 325 524 412 524 c 0,8,9
 459 524 459 524 495 504 c 1,10,-1
 495 439 l 1,11,12
 460 462 460 462 417 462 c 0,13,14
 362 462 362 462 327.5 426.5 c 128,-1,15
 293 391 293 391 293 334 c 0,16,17
 294 280 294 280 328 244 c 128,-1,18
 362 208 362 208 417 208 c 0,19,20
 463 208 463 208 495 233 c 1,21,-1
 495 168 l 1,0,1
733 336 m 0,22,23
 733 195 733 195 631.5 93 c 128,-1,24
 530 -9 530 -9 388 -9 c 128,-1,25
 246 -9 246 -9 144.5 93 c 128,-1,26
 43 195 43 195 43 336 c 0,27,28
 43 478 43 478 144.5 580 c 128,-1,29
 246 682 246 682 388 682 c 128,-1,30
 530 682 530 682 631.5 580 c 128,-1,31
 733 478 733 478 733 336 c 0,22,23
110 336 m 128,-1,33
 110 220 110 220 192 138.5 c 128,-1,34
 274 57 274 57 389 57 c 128,-1,35
 504 57 504 57 586 138.5 c 128,-1,36
 668 220 668 220 668 336 c 128,-1,37
 668 452 668 452 586 534 c 128,-1,38
 504 616 504 616 389 616 c 128,-1,39
 274 616 274 616 192 534 c 128,-1,32
 110 452 110 452 110 336 c 128,-1,33
EndSplineSet
EndChar

StartChar: ordfeminine
Encoding: 170 170 107
Width: 350
GlyphClass: 2
Flags: W
LayerCount: 2
Fore
SplineSet
154 445 m 0,0,1
 197 445 197 445 225 470 c 128,-1,2
 253 495 253 495 253 529 c 2,3,-1
 253 588 l 1,4,-1
 190 588 l 2,5,6
 71 588 71 588 71 514 c 0,7,8
 71 483 71 483 92.5 464 c 128,-1,9
 114 445 114 445 154 445 c 0,0,1
255 446 m 1,10,11
 211 388 211 388 136 388 c 0,12,13
 76 388 76 388 39 421.5 c 128,-1,14
 2 455 2 455 2 512 c 0,15,16
 2 574 2 574 49 608.5 c 128,-1,17
 96 643 96 643 178 643 c 2,18,-1
 253 643 l 1,19,-1
 253 664 l 2,20,21
 253 715 253 715 230.5 741 c 128,-1,22
 208 767 208 767 154 767 c 0,23,24
 88 767 88 767 33 730 c 1,25,-1
 33 795 l 1,26,27
 86 826 86 826 159 826 c 0,28,29
 243 826 243 826 281.5 784.5 c 128,-1,30
 320 743 320 743 320 662 c 2,31,-1
 320 392 l 1,32,-1
 255 392 l 1,33,-1
 255 446 l 1,10,11
EndSplineSet
EndChar

StartChar: guillemotleft
Encoding: 171 171 108
Width: 480
GlyphClass: 2
Flags: W
LayerCount: 2
Fore
SplineSet
304 253 m 1,0,-1
 450 91 l 1,1,-1
 363 91 l 1,2,-1
 213 253 l 1,3,-1
 363 415 l 1,4,-1
 450 415 l 1,5,-1
 304 253 l 1,0,-1
264 91 m 1,6,-1
 177 91 l 1,7,-1
 27 253 l 1,8,-1
 177 415 l 1,9,-1
 264 415 l 1,10,-1
 118 253 l 1,11,-1
 264 91 l 1,6,-1
EndSplineSet
EndChar

StartChar: logicalnot
Encoding: 172 172 109
Width: 549
GlyphClass: 2
Flags: W
LayerCount: 2
Fore
SplineSet
512 160 m 1,0,-1
 439 160 l 1,1,-1
 439 342 l 1,2,-1
 25 342 l 1,3,-1
 25 413 l 1,4,-1
 512 413 l 1,5,-1
 512 160 l 1,0,-1
EndSplineSet
EndChar

StartChar: uni00AD
Encoding: 173 173 110
Width: 348
GlyphClass: 2
Flags: W
LayerCount: 2
Fore
SplineSet
291 234 m 1,0,-1
 57 234 l 1,1,-1
 57 303 l 1,2,-1
 291 303 l 1,3,-1
 291 234 l 1,0,-1
EndSplineSet
EndChar

StartChar: registered
Encoding: 174 174 111
Width: 449
GlyphClass: 2
Flags: W
LayerCount: 2
Fore
SplineSet
203 473 m 1,0,-1
 159 473 l 1,1,-1
 159 687 l 1,2,-1
 220 687 l 2,3,4
 302 687 302 687 302 619 c 0,5,6
 302 576 302 576 266 559 c 1,7,-1
 320 473 l 1,8,-1
 268 473 l 1,9,-1
 222 551 l 1,10,-1
 203 551 l 1,11,-1
 203 473 l 1,0,-1
225 651 m 2,12,-1
 203 651 l 1,13,-1
 203 587 l 1,14,-1
 228 587 l 2,15,16
 257 587 257 587 257 619 c 128,-1,17
 257 651 257 651 225 651 c 2,12,-1
439 573 m 128,-1,19
 439 480 439 480 378.5 420 c 128,-1,20
 318 360 318 360 225 360 c 0,21,22
 131 360 131 360 70.5 420 c 128,-1,23
 10 480 10 480 10 573 c 128,-1,24
 10 666 10 666 70.5 727 c 128,-1,25
 131 788 131 788 225 788 c 0,26,27
 318 788 318 788 378.5 727 c 128,-1,18
 439 666 439 666 439 573 c 128,-1,19
59 573 m 128,-1,29
 59 498 59 498 104.5 452 c 128,-1,30
 150 406 150 406 226 406 c 0,31,32
 301 406 301 406 347 452.5 c 128,-1,33
 393 499 393 499 393 573 c 0,34,35
 393 648 393 648 347 694.5 c 128,-1,36
 301 741 301 741 226 741 c 0,37,38
 150 741 150 741 104.5 694.5 c 128,-1,28
 59 648 59 648 59 573 c 128,-1,29
EndSplineSet
EndChar

StartChar: macron
Encoding: 175 175 112
Width: 421
GlyphClass: 2
Flags: W
LayerCount: 2
Fore
SplineSet
351 693 m 1,0,-1
 69 693 l 1,1,-1
 69 749 l 1,2,-1
 351 749 l 1,3,-1
 351 693 l 1,0,-1
EndSplineSet
EndChar

StartChar: degree
Encoding: 176 176 113
Width: 355
GlyphClass: 2
Flags: W
LayerCount: 2
Fore
SplineSet
325 533 m 128,-1,1
 325 470 325 470 282 428 c 128,-1,2
 239 386 239 386 176 386 c 0,3,4
 112 386 112 386 71 426 c 128,-1,5
 30 466 30 466 30 530 c 0,6,7
 30 593 30 593 72.5 634.5 c 128,-1,8
 115 676 115 676 179 676 c 0,9,10
 242 676 242 676 283.5 636 c 128,-1,0
 325 596 325 596 325 533 c 128,-1,1
93 531 m 128,-1,12
 93 495 93 495 118 470 c 128,-1,13
 143 445 143 445 179 445 c 128,-1,14
 215 445 215 445 238 470 c 128,-1,15
 261 495 261 495 261 531 c 128,-1,16
 261 567 261 567 236.5 592.5 c 128,-1,17
 212 618 212 618 176 618 c 128,-1,18
 140 618 140 618 116.5 592.5 c 128,-1,11
 93 567 93 567 93 531 c 128,-1,12
EndSplineSet
EndChar

StartChar: plusminus
Encoding: 177 177 114
Width: 553
GlyphClass: 2
Flags: W
LayerCount: 2
Fore
SplineSet
497 331 m 1,0,-1
 310 331 l 1,1,-1
 310 162 l 1,2,-1
 236 162 l 1,3,-1
 236 331 l 1,4,-1
 57 331 l 1,5,-1
 57 400 l 1,6,-1
 236 400 l 1,7,-1
 236 569 l 1,8,-1
 310 569 l 1,9,-1
 310 400 l 1,10,-1
 497 400 l 1,11,-1
 497 331 l 1,0,-1
497 30 m 1,12,-1
 57 30 l 1,13,-1
 57 100 l 1,14,-1
 497 100 l 1,15,-1
 497 30 l 1,12,-1
EndSplineSet
EndChar

StartChar: twosuperior
Encoding: 178 178 115
Width: 365
GlyphClass: 2
Flags: W
LayerCount: 2
Fore
SplineSet
326 392 m 1,0,-1
 47 392 l 1,1,-1
 47 441 l 1,2,3
 245 590 245 590 245 690 c 0,4,5
 245 729 245 729 223.5 748 c 128,-1,6
 202 767 202 767 168 767 c 0,7,8
 114 767 114 767 61 724 c 1,9,-1
 61 793 l 1,10,11
 115 826 115 826 170 826 c 0,12,13
 229 826 229 826 270 791.5 c 128,-1,14
 311 757 311 757 311 695 c 0,15,16
 311 636 311 636 263 571 c 128,-1,17
 215 506 215 506 136 447 c 1,18,-1
 326 447 l 1,19,-1
 326 392 l 1,0,-1
EndSplineSet
EndChar

StartChar: threesuperior
Encoding: 179 179 116
Width: 325
GlyphClass: 2
Flags: W
LayerCount: 2
Fore
SplineSet
290 508 m 0,0,1
 290 455 290 455 253 421.5 c 128,-1,2
 216 388 216 388 149 388 c 0,3,4
 83 388 83 388 35 413 c 1,5,-1
 35 473 l 1,6,7
 85 445 85 445 146 445 c 0,8,9
 183 445 183 445 204 463 c 128,-1,10
 225 481 225 481 225 511 c 0,11,12
 225 544 225 544 199.5 563 c 128,-1,13
 174 582 174 582 127 582 c 2,14,-1
 103 582 l 1,15,-1
 103 637 l 1,16,-1
 127 637 l 2,17,18
 163 637 163 637 187.5 655 c 128,-1,19
 212 673 212 673 212 705 c 0,20,21
 212 768 212 768 139 768 c 0,22,23
 95 768 95 768 47 737 c 1,24,-1
 47 800 l 1,25,26
 91 826 91 826 141 826 c 0,27,28
 207 826 207 826 242.5 792.5 c 128,-1,29
 278 759 278 759 278 710 c 0,30,31
 278 671 278 671 257 645 c 128,-1,32
 236 619 236 619 199 611 c 1,33,34
 236 608 236 608 263 579 c 128,-1,35
 290 550 290 550 290 508 c 0,0,1
EndSplineSet
EndChar

StartChar: acute
Encoding: 180 180 117
Width: 421
GlyphClass: 2
Flags: W
LayerCount: 2
Fore
SplineSet
184 642 m 1,0,-1
 115 642 l 1,1,-1
 214 798 l 1,2,-1
 308 798 l 1,3,-1
 184 642 l 1,0,-1
EndSplineSet
EndChar

StartChar: uni00B5
Encoding: 181 181 118
Width: 546
GlyphClass: 2
Flags: W
LayerCount: 2
Fore
SplineSet
151 -179 m 1,0,-1
 73 -179 l 1,1,-1
 73 507 l 1,2,-1
 151 507 l 1,3,-1
 151 178 l 2,4,5
 151 125 151 125 187.5 95 c 128,-1,6
 224 65 224 65 273 65 c 0,7,8
 329 65 329 65 361.5 108.5 c 128,-1,9
 394 152 394 152 394 228 c 2,10,-1
 394 507 l 1,11,-1
 473 507 l 1,12,-1
 473 0 l 1,13,-1
 394 0 l 1,14,-1
 394 77 l 1,15,16
 358 -6 358 -6 261 -6 c 0,17,18
 195 -6 195 -6 151 32 c 1,19,-1
 151 -179 l 1,0,-1
EndSplineSet
EndChar

StartChar: paragraph
Encoding: 182 182 119
Width: 545
GlyphClass: 2
Flags: W
LayerCount: 2
Fore
SplineSet
286 -148 m 1,0,-1
 215 -148 l 1,1,-1
 215 341 l 1,2,3
 125 341 125 341 75.5 388 c 128,-1,4
 26 435 26 435 26 505 c 0,5,6
 26 573 26 573 76.5 623.5 c 128,-1,7
 127 674 127 674 219 674 c 2,8,-1
 286 674 l 1,9,-1
 286 -148 l 1,0,-1
472 -148 m 1,10,-1
 401 -148 l 1,11,-1
 401 674 l 1,12,-1
 472 674 l 1,13,-1
 472 -148 l 1,10,-1
EndSplineSet
EndChar

StartChar: periodcentered
Encoding: 183 183 120
Width: 232
GlyphClass: 2
Flags: W
LayerCount: 2
Fore
SplineSet
175 319 m 128,-1,1
 175 294 175 294 158 277 c 128,-1,2
 141 260 141 260 116 260 c 128,-1,3
 91 260 91 260 74 277 c 128,-1,4
 57 294 57 294 57 319 c 128,-1,5
 57 344 57 344 74 361 c 128,-1,6
 91 378 91 378 116 378 c 128,-1,7
 141 378 141 378 158 361 c 128,-1,0
 175 344 175 344 175 319 c 128,-1,1
EndSplineSet
EndChar

StartChar: cedilla
Encoding: 184 184 121
Width: 421
GlyphClass: 2
Flags: W
LayerCount: 2
Fore
SplineSet
285 -122 m 0,0,1
 285 -176 285 -176 246.5 -213 c 128,-1,2
 208 -250 208 -250 135 -252 c 1,3,-1
 135 -194 l 1,4,5
 219 -188 219 -188 219 -123 c 0,6,7
 219 -89 219 -89 196 -51 c 1,8,-1
 267 -51 l 1,9,10
 285 -76 285 -76 285 -122 c 0,0,1
EndSplineSet
EndChar

StartChar: onesuperior
Encoding: 185 185 122
Width: 250
GlyphClass: 2
Flags: W
LayerCount: 2
Fore
SplineSet
179 392 m 1,0,-1
 117 392 l 1,1,-1
 117 749 l 1,2,-1
 10 690 l 1,3,-1
 10 755 l 1,4,-1
 127 822 l 1,5,-1
 179 822 l 1,6,-1
 179 392 l 1,0,-1
EndSplineSet
EndChar

StartChar: ordmasculine
Encoding: 186 186 123
Width: 376
GlyphClass: 2
Flags: W
LayerCount: 2
Fore
SplineSet
381 607 m 0,0,1
 381 510 381 510 329.5 448 c 128,-1,2
 278 386 278 386 186 386 c 0,3,4
 97 386 97 386 45.5 448 c 128,-1,5
 -6 510 -6 510 -6 605 c 128,-1,6
 -6 700 -6 700 47 764 c 128,-1,7
 100 828 100 828 186 828 c 0,8,9
 280 828 280 828 330.5 765.5 c 128,-1,10
 381 703 381 703 381 607 c 0,0,1
63 606 m 128,-1,12
 63 538 63 538 96.5 491 c 128,-1,13
 130 444 130 444 187 444 c 0,14,15
 248 444 248 444 280 490 c 128,-1,16
 312 536 312 536 312 606 c 0,17,18
 312 677 312 677 282 723 c 128,-1,19
 252 769 252 769 186 769 c 0,20,21
 128 769 128 769 95.5 721.5 c 128,-1,11
 63 674 63 674 63 606 c 128,-1,12
EndSplineSet
EndChar

StartChar: guillemotright
Encoding: 187 187 124
Width: 482
GlyphClass: 2
Flags: W
LayerCount: 2
Fore
SplineSet
453 253 m 1,0,-1
 302 91 l 1,1,-1
 215 91 l 1,2,-1
 362 253 l 1,3,-1
 215 415 l 1,4,-1
 302 415 l 1,5,-1
 453 253 l 1,0,-1
116 91 m 1,6,-1
 29 91 l 1,7,-1
 176 253 l 1,8,-1
 29 415 l 1,9,-1
 116 415 l 1,10,-1
 267 253 l 1,11,-1
 116 91 l 1,6,-1
EndSplineSet
EndChar

StartChar: onequarter
Encoding: 188 188 125
Width: 832
GlyphClass: 2
Flags: W
LayerCount: 2
Fore
SplineSet
215 0 m 1,0,-1
 144 0 l 1,1,-1
 595 712 l 1,2,-1
 666 712 l 1,3,-1
 215 0 l 1,0,-1
235 281 m 1,4,-1
 172 281 l 1,5,-1
 172 638 l 1,6,-1
 65 579 l 1,7,-1
 65 644 l 1,8,-1
 183 711 l 1,9,-1
 235 711 l 1,10,-1
 235 281 l 1,4,-1
531 150 m 1,11,-1
 664 150 l 1,12,-1
 664 380 l 1,13,-1
 531 150 l 1,11,-1
725 0 m 1,14,-1
 664 0 l 1,15,-1
 664 99 l 1,16,-1
 467 99 l 1,17,-1
 467 150 l 1,18,-1
 631 429 l 1,19,-1
 725 429 l 1,20,-1
 725 150 l 1,21,-1
 787 150 l 1,22,-1
 787 99 l 1,23,-1
 725 99 l 1,24,-1
 725 0 l 1,14,-1
EndSplineSet
EndChar

StartChar: onehalf
Encoding: 189 189 126
Width: 833
GlyphClass: 2
Flags: W
LayerCount: 2
Fore
SplineSet
215 0 m 1,0,-1
 144 0 l 1,1,-1
 595 712 l 1,2,-1
 666 712 l 1,3,-1
 215 0 l 1,0,-1
235 281 m 1,4,-1
 172 281 l 1,5,-1
 172 638 l 1,6,-1
 65 579 l 1,7,-1
 65 644 l 1,8,-1
 183 711 l 1,9,-1
 235 711 l 1,10,-1
 235 281 l 1,4,-1
793 0 m 1,11,-1
 514 0 l 1,12,-1
 514 49 l 1,13,14
 599 112 599 112 655.5 178 c 128,-1,15
 712 244 712 244 712 298 c 0,16,17
 712 337 712 337 690.5 356 c 128,-1,18
 669 375 669 375 635 375 c 0,19,20
 581 375 581 375 528 332 c 1,21,-1
 528 401 l 1,22,23
 582 434 582 434 637 434 c 0,24,25
 696 434 696 434 737.5 399.5 c 128,-1,26
 779 365 779 365 779 303 c 0,27,28
 779 244 779 244 731 179 c 128,-1,29
 683 114 683 114 604 55 c 1,30,-1
 793 55 l 1,31,-1
 793 0 l 1,11,-1
EndSplineSet
EndChar

StartChar: threequarters
Encoding: 190 190 127
Width: 866
GlyphClass: 2
Flags: W
LayerCount: 2
Fore
SplineSet
272 0 m 1,0,-1
 200 0 l 1,1,-1
 651 712 l 1,2,-1
 722 712 l 1,3,-1
 272 0 l 1,0,-1
327 397 m 0,4,5
 327 344 327 344 290 310.5 c 128,-1,6
 253 277 253 277 186 277 c 0,7,8
 120 277 120 277 72 302 c 1,9,-1
 72 362 l 1,10,11
 122 334 122 334 183 334 c 0,12,13
 220 334 220 334 241 352 c 128,-1,14
 262 370 262 370 262 400 c 0,15,16
 262 433 262 433 236.5 452 c 128,-1,17
 211 471 211 471 164 471 c 2,18,-1
 140 471 l 1,19,-1
 140 526 l 1,20,-1
 164 526 l 2,21,22
 200 526 200 526 224.5 544 c 128,-1,23
 249 562 249 562 249 594 c 0,24,25
 249 657 249 657 176 657 c 0,26,27
 132 657 132 657 84 626 c 1,28,-1
 84 689 l 1,29,30
 128 715 128 715 178 715 c 0,31,32
 244 715 244 715 279.5 681.5 c 128,-1,33
 315 648 315 648 315 599 c 0,34,35
 315 560 315 560 294 534 c 128,-1,36
 273 508 273 508 236 500 c 1,37,38
 273 497 273 497 300 468 c 128,-1,39
 327 439 327 439 327 397 c 0,4,5
587 150 m 1,40,-1
 720 150 l 1,41,-1
 720 379 l 1,42,-1
 587 150 l 1,40,-1
781 0 m 1,43,-1
 720 0 l 1,44,-1
 720 99 l 1,45,-1
 523 99 l 1,46,-1
 523 150 l 1,47,-1
 687 429 l 1,48,-1
 781 429 l 1,49,-1
 781 150 l 1,50,-1
 843 150 l 1,51,-1
 843 99 l 1,52,-1
 781 99 l 1,53,-1
 781 0 l 1,43,-1
EndSplineSet
EndChar

StartChar: questiondown
Encoding: 191 191 128
Width: 452
GlyphClass: 2
Flags: W
LayerCount: 2
Fore
SplineSet
414 -132 m 1,0,1
 349 -173 349 -173 254 -173 c 128,-1,2
 159 -173 159 -173 102 -124.5 c 128,-1,3
 45 -76 45 -76 45 10 c 0,4,5
 45 95 45 95 104 142 c 128,-1,6
 163 189 163 189 241 196 c 1,7,-1
 242 305 l 1,8,-1
 318 305 l 1,9,-1
 319 139 l 1,10,11
 227 139 227 139 177 107.5 c 128,-1,12
 127 76 127 76 127 13 c 0,13,14
 127 -38 127 -38 160 -69.5 c 128,-1,15
 193 -101 193 -101 259 -101 c 0,16,17
 337 -101 337 -101 414 -52 c 1,18,-1
 414 -132 l 1,0,1
340 459 m 128,-1,20
 340 434 340 434 323.5 416.5 c 128,-1,21
 307 399 307 399 282 399 c 128,-1,22
 257 399 257 399 239 416.5 c 128,-1,23
 221 434 221 434 221 459 c 128,-1,24
 221 484 221 484 238.5 500.5 c 128,-1,25
 256 517 256 517 282 517 c 0,26,27
 307 517 307 517 323.5 500.5 c 128,-1,19
 340 484 340 484 340 459 c 128,-1,20
EndSplineSet
EndChar

StartChar: Agrave
Encoding: 192 192 129
Width: 648
GlyphClass: 2
Flags: W
LayerCount: 2
Fore
SplineSet
218 284 m 2,0,-1
 205 246 l 1,1,-1
 444 246 l 1,2,-1
 431 285 l 1,3,-1
 326 609 l 1,4,5
 314 566 314 566 218 284 c 2,0,-1
122 0 m 1,6,-1
 35 0 l 1,7,-1
 270 674 l 1,8,-1
 382 674 l 1,9,-1
 613 0 l 1,10,-1
 526 0 l 1,11,-1
 467 177 l 1,12,-1
 182 177 l 1,13,-1
 122 0 l 1,6,-1
354 727 m 1,14,-1
 285 727 l 1,15,-1
 161 883 l 1,16,-1
 256 883 l 1,17,-1
 354 727 l 1,14,-1
EndSplineSet
EndChar

StartChar: Aacute
Encoding: 193 193 130
Width: 648
GlyphClass: 2
Flags: W
LayerCount: 2
Fore
SplineSet
218 284 m 2,0,-1
 205 246 l 1,1,-1
 444 246 l 1,2,-1
 431 285 l 1,3,-1
 326 609 l 1,4,5
 314 566 314 566 218 284 c 2,0,-1
122 0 m 1,6,-1
 35 0 l 1,7,-1
 270 674 l 1,8,-1
 382 674 l 1,9,-1
 613 0 l 1,10,-1
 526 0 l 1,11,-1
 467 177 l 1,12,-1
 182 177 l 1,13,-1
 122 0 l 1,6,-1
368 727 m 1,14,-1
 299 727 l 1,15,-1
 398 883 l 1,16,-1
 492 883 l 1,17,-1
 368 727 l 1,14,-1
EndSplineSet
EndChar

StartChar: Acircumflex
Encoding: 194 194 131
Width: 648
GlyphClass: 2
Flags: W
LayerCount: 2
Fore
SplineSet
218 284 m 2,0,-1
 205 246 l 1,1,-1
 444 246 l 1,2,-1
 431 285 l 1,3,-1
 326 609 l 1,4,5
 314 566 314 566 218 284 c 2,0,-1
122 0 m 1,6,-1
 35 0 l 1,7,-1
 270 674 l 1,8,-1
 382 674 l 1,9,-1
 613 0 l 1,10,-1
 526 0 l 1,11,-1
 467 177 l 1,12,-1
 182 177 l 1,13,-1
 122 0 l 1,6,-1
242 727 m 1,14,-1
 162 727 l 1,15,-1
 289 883 l 1,16,-1
 365 883 l 1,17,-1
 492 727 l 1,18,-1
 412 727 l 1,19,-1
 327 832 l 1,20,-1
 242 727 l 1,14,-1
EndSplineSet
EndChar

StartChar: Atilde
Encoding: 195 195 132
Width: 648
GlyphClass: 2
Flags: W
LayerCount: 2
Fore
SplineSet
218 284 m 2,0,-1
 205 246 l 1,1,-1
 444 246 l 1,2,-1
 431 285 l 1,3,-1
 326 609 l 1,4,5
 314 566 314 566 218 284 c 2,0,-1
122 0 m 1,6,-1
 35 0 l 1,7,-1
 270 674 l 1,8,-1
 382 674 l 1,9,-1
 613 0 l 1,10,-1
 526 0 l 1,11,-1
 467 177 l 1,12,-1
 182 177 l 1,13,-1
 122 0 l 1,6,-1
268 801 m 0,14,15
 227 801 227 801 200 753 c 1,16,-1
 157 790 l 1,17,18
 171 820 171 820 198.5 840.5 c 128,-1,19
 226 861 226 861 258 861 c 0,20,21
 288 861 288 861 331 839 c 128,-1,22
 374 817 374 817 392 817 c 0,23,24
 426 817 426 817 446 860 c 1,25,-1
 495 826 l 1,26,27
 463 757 463 757 396 757 c 0,28,29
 369 757 369 757 326.5 779 c 128,-1,30
 284 801 284 801 268 801 c 0,14,15
EndSplineSet
EndChar

StartChar: Adieresis
Encoding: 196 196 133
Width: 648
GlyphClass: 2
Flags: W
LayerCount: 2
Fore
SplineSet
218 284 m 2,0,-1
 205 246 l 1,1,-1
 444 246 l 1,2,-1
 431 285 l 1,3,-1
 326 609 l 1,4,5
 314 566 314 566 218 284 c 2,0,-1
122 0 m 1,6,-1
 35 0 l 1,7,-1
 270 674 l 1,8,-1
 382 674 l 1,9,-1
 613 0 l 1,10,-1
 526 0 l 1,11,-1
 467 177 l 1,12,-1
 182 177 l 1,13,-1
 122 0 l 1,6,-1
480 806 m 128,-1,15
 480 784 480 784 465 769 c 128,-1,16
 450 754 450 754 428 754 c 128,-1,17
 406 754 406 754 391.5 769 c 128,-1,18
 377 784 377 784 377 806 c 128,-1,19
 377 828 377 828 391.5 842.5 c 128,-1,20
 406 857 406 857 428 857 c 128,-1,21
 450 857 450 857 465 842.5 c 128,-1,14
 480 828 480 828 480 806 c 128,-1,15
278 806 m 128,-1,23
 278 784 278 784 263.5 769 c 128,-1,24
 249 754 249 754 227 754 c 128,-1,25
 205 754 205 754 190 769 c 128,-1,26
 175 784 175 784 175 806 c 128,-1,27
 175 828 175 828 190 842.5 c 128,-1,28
 205 857 205 857 227 857 c 128,-1,29
 249 857 249 857 263.5 842.5 c 128,-1,22
 278 828 278 828 278 806 c 128,-1,23
EndSplineSet
EndChar

StartChar: Aring
Encoding: 197 197 134
Width: 648
GlyphClass: 2
Flags: W
LayerCount: 2
Fore
SplineSet
218 284 m 2,0,-1
 205 246 l 1,1,-1
 444 246 l 1,2,-1
 431 285 l 1,3,-1
 326 609 l 1,4,5
 314 566 314 566 218 284 c 2,0,-1
122 0 m 1,6,-1
 35 0 l 1,7,-1
 270 674 l 1,8,-1
 382 674 l 1,9,-1
 613 0 l 1,10,-1
 526 0 l 1,11,-1
 467 177 l 1,12,-1
 182 177 l 1,13,-1
 122 0 l 1,6,-1
433 823 m 128,-1,15
 433 779 433 779 402 748 c 128,-1,16
 371 717 371 717 327 717 c 128,-1,17
 283 717 283 717 252 748 c 128,-1,18
 221 779 221 779 221 823 c 128,-1,19
 221 867 221 867 252 898.5 c 128,-1,20
 283 930 283 930 327 930 c 128,-1,21
 371 930 371 930 402 898.5 c 128,-1,14
 433 867 433 867 433 823 c 128,-1,15
274 824 m 0,22,23
 274 802 274 802 289.5 786 c 128,-1,24
 305 770 305 770 327 770 c 128,-1,25
 349 770 349 770 365 786 c 128,-1,26
 381 802 381 802 381 824 c 128,-1,27
 381 846 381 846 365.5 862 c 128,-1,28
 350 878 350 878 327 878 c 0,29,30
 305 878 305 878 289.5 862.5 c 128,-1,31
 274 847 274 847 274 824 c 0,22,23
EndSplineSet
EndChar

StartChar: AE
Encoding: 198 198 135
Width: 879
GlyphClass: 2
Flags: W
LayerCount: 2
Fore
SplineSet
110 0 m 1,0,-1
 23 0 l 1,1,-1
 406 674 l 1,2,-1
 825 674 l 1,3,-1
 825 603 l 1,4,-1
 536 603 l 1,5,-1
 536 372 l 1,6,-1
 792 372 l 1,7,-1
 792 301 l 1,8,-1
 536 301 l 1,9,-1
 536 71 l 1,10,-1
 831 71 l 1,11,-1
 831 0 l 1,12,-1
 456 0 l 1,13,-1
 456 177 l 1,14,-1
 212 177 l 1,15,-1
 110 0 l 1,0,-1
274 284 m 2,16,-1
 252 246 l 1,17,-1
 456 246 l 1,18,-1
 456 610 l 1,19,20
 402 507 402 507 274 284 c 2,16,-1
EndSplineSet
EndChar

StartChar: Ccedilla
Encoding: 199 199 136
Width: 602
GlyphClass: 2
Flags: W
LayerCount: 2
Fore
SplineSet
560 34 m 1,0,1
 498 -8 498 -8 390 -8 c 0,2,3
 238 -8 238 -8 143 85.5 c 128,-1,4
 48 179 48 179 48 340 c 0,5,6
 48 492 48 492 144.5 587.5 c 128,-1,7
 241 683 241 683 387 683 c 0,8,9
 492 683 492 683 558 647 c 1,10,-1
 558 564 l 1,11,12
 514 587 514 587 479 597 c 128,-1,13
 444 607 444 607 387 607 c 0,14,15
 278 607 278 607 205.5 533 c 128,-1,16
 133 459 133 459 133 340 c 0,17,18
 133 216 133 216 205 142 c 128,-1,19
 277 68 277 68 396 68 c 0,20,21
 492 68 492 68 560 119 c 1,22,-1
 560 34 l 1,0,1
422 -122 m 0,23,24
 422 -176 422 -176 383.5 -213 c 128,-1,25
 345 -250 345 -250 272 -252 c 1,26,-1
 272 -194 l 1,27,28
 356 -188 356 -188 356 -123 c 0,29,30
 356 -89 356 -89 333 -51 c 1,31,-1
 404 -51 l 1,32,33
 422 -76 422 -76 422 -122 c 0,23,24
EndSplineSet
EndChar

StartChar: Egrave
Encoding: 200 200 137
Width: 501
GlyphClass: 2
Flags: W
LayerCount: 2
Fore
SplineSet
453 0 m 1,0,-1
 77 0 l 1,1,-1
 77 674 l 1,2,-1
 448 674 l 1,3,-1
 448 603 l 1,4,-1
 158 603 l 1,5,-1
 158 372 l 1,6,-1
 414 372 l 1,7,-1
 414 301 l 1,8,-1
 158 301 l 1,9,-1
 158 71 l 1,10,-1
 453 71 l 1,11,-1
 453 0 l 1,0,-1
320 726 m 1,12,-1
 251 726 l 1,13,-1
 127 882 l 1,14,-1
 222 882 l 1,15,-1
 320 726 l 1,12,-1
EndSplineSet
EndChar

StartChar: Eacute
Encoding: 201 201 138
Width: 501
GlyphClass: 2
Flags: W
LayerCount: 2
Fore
SplineSet
453 0 m 1,0,-1
 77 0 l 1,1,-1
 77 674 l 1,2,-1
 448 674 l 1,3,-1
 448 603 l 1,4,-1
 158 603 l 1,5,-1
 158 372 l 1,6,-1
 414 372 l 1,7,-1
 414 301 l 1,8,-1
 158 301 l 1,9,-1
 158 71 l 1,10,-1
 453 71 l 1,11,-1
 453 0 l 1,0,-1
313 727 m 1,12,-1
 244 727 l 1,13,-1
 343 883 l 1,14,-1
 437 883 l 1,15,-1
 313 727 l 1,12,-1
EndSplineSet
EndChar

StartChar: Ecircumflex
Encoding: 202 202 139
Width: 501
GlyphClass: 2
Flags: W
LayerCount: 2
Fore
SplineSet
453 0 m 1,0,-1
 77 0 l 1,1,-1
 77 674 l 1,2,-1
 448 674 l 1,3,-1
 448 603 l 1,4,-1
 158 603 l 1,5,-1
 158 372 l 1,6,-1
 414 372 l 1,7,-1
 414 301 l 1,8,-1
 158 301 l 1,9,-1
 158 71 l 1,10,-1
 453 71 l 1,11,-1
 453 0 l 1,0,-1
188 727 m 1,12,-1
 108 727 l 1,13,-1
 235 883 l 1,14,-1
 311 883 l 1,15,-1
 438 727 l 1,16,-1
 358 727 l 1,17,-1
 273 832 l 1,18,-1
 188 727 l 1,12,-1
EndSplineSet
EndChar

StartChar: Edieresis
Encoding: 203 203 140
Width: 501
GlyphClass: 2
Flags: W
LayerCount: 2
Fore
SplineSet
453 0 m 1,0,-1
 77 0 l 1,1,-1
 77 674 l 1,2,-1
 448 674 l 1,3,-1
 448 603 l 1,4,-1
 158 603 l 1,5,-1
 158 372 l 1,6,-1
 414 372 l 1,7,-1
 414 301 l 1,8,-1
 158 301 l 1,9,-1
 158 71 l 1,10,-1
 453 71 l 1,11,-1
 453 0 l 1,0,-1
421 805 m 128,-1,13
 421 783 421 783 406 768 c 128,-1,14
 391 753 391 753 369 753 c 128,-1,15
 347 753 347 753 332.5 768 c 128,-1,16
 318 783 318 783 318 805 c 128,-1,17
 318 827 318 827 332.5 841.5 c 128,-1,18
 347 856 347 856 369 856 c 128,-1,19
 391 856 391 856 406 841.5 c 128,-1,12
 421 827 421 827 421 805 c 128,-1,13
219 805 m 128,-1,21
 219 783 219 783 204.5 768 c 128,-1,22
 190 753 190 753 168 753 c 128,-1,23
 146 753 146 753 131 768 c 128,-1,24
 116 783 116 783 116 805 c 128,-1,25
 116 827 116 827 131 841.5 c 128,-1,26
 146 856 146 856 168 856 c 128,-1,27
 190 856 190 856 204.5 841.5 c 128,-1,20
 219 827 219 827 219 805 c 128,-1,21
EndSplineSet
EndChar

StartChar: Igrave
Encoding: 204 204 141
Width: 247
GlyphClass: 2
Flags: W
LayerCount: 2
Fore
SplineSet
164 0 m 1,0,-1
 83 0 l 1,1,-1
 83 674 l 1,2,-1
 164 674 l 1,3,-1
 164 0 l 1,0,-1
153 727 m 1,4,-1
 84 727 l 1,5,-1
 -40 883 l 1,6,-1
 55 883 l 1,7,-1
 153 727 l 1,4,-1
EndSplineSet
EndChar

StartChar: Iacute
Encoding: 205 205 142
Width: 247
GlyphClass: 2
Flags: W
LayerCount: 2
Fore
SplineSet
164 0 m 1,0,-1
 83 0 l 1,1,-1
 83 674 l 1,2,-1
 164 674 l 1,3,-1
 164 0 l 1,0,-1
162 727 m 1,4,-1
 93 727 l 1,5,-1
 192 883 l 1,6,-1
 286 883 l 1,7,-1
 162 727 l 1,4,-1
EndSplineSet
EndChar

StartChar: Icircumflex
Encoding: 206 206 143
Width: 247
GlyphClass: 2
Flags: W
LayerCount: 2
Fore
SplineSet
164 0 m 1,0,-1
 83 0 l 1,1,-1
 83 674 l 1,2,-1
 164 674 l 1,3,-1
 164 0 l 1,0,-1
39 727 m 1,4,-1
 -41 727 l 1,5,-1
 86 883 l 1,6,-1
 162 883 l 1,7,-1
 289 727 l 1,8,-1
 209 727 l 1,9,-1
 124 832 l 1,10,-1
 39 727 l 1,4,-1
EndSplineSet
EndChar

StartChar: Idieresis
Encoding: 207 207 144
Width: 247
GlyphClass: 2
Flags: W
LayerCount: 2
Fore
SplineSet
164 0 m 1,0,-1
 83 0 l 1,1,-1
 83 674 l 1,2,-1
 164 674 l 1,3,-1
 164 0 l 1,0,-1
278 806 m 128,-1,5
 278 784 278 784 263 769 c 128,-1,6
 248 754 248 754 226 754 c 128,-1,7
 204 754 204 754 189.5 769 c 128,-1,8
 175 784 175 784 175 806 c 128,-1,9
 175 828 175 828 189.5 842.5 c 128,-1,10
 204 857 204 857 226 857 c 128,-1,11
 248 857 248 857 263 842.5 c 128,-1,4
 278 828 278 828 278 806 c 128,-1,5
76 806 m 128,-1,13
 76 784 76 784 61.5 769 c 128,-1,14
 47 754 47 754 25 754 c 128,-1,15
 3 754 3 754 -12 769 c 128,-1,16
 -27 784 -27 784 -27 806 c 128,-1,17
 -27 828 -27 828 -12 842.5 c 128,-1,18
 3 857 3 857 25 857 c 128,-1,19
 47 857 47 857 61.5 842.5 c 128,-1,12
 76 828 76 828 76 806 c 128,-1,13
EndSplineSet
EndChar

StartChar: Eth
Encoding: 208 208 145
Width: 730
GlyphClass: 2
Flags: W
LayerCount: 2
Fore
SplineSet
350 0 m 2,0,-1
 146 0 l 1,1,-1
 146 304 l 1,2,-1
 61 304 l 1,3,-1
 61 372 l 1,4,-1
 146 372 l 1,5,-1
 146 674 l 1,6,-1
 346 674 l 2,7,8
 496 674 496 674 591 581.5 c 128,-1,9
 686 489 686 489 686 342 c 0,10,11
 686 196 686 196 597.5 98 c 128,-1,12
 509 0 509 0 350 0 c 2,0,-1
403 304 m 1,13,-1
 228 304 l 1,14,-1
 228 71 l 1,15,-1
 350 71 l 2,16,17
 414 71 414 71 463.5 93 c 128,-1,18
 513 115 513 115 542.5 153.5 c 128,-1,19
 572 192 572 192 587 239.5 c 128,-1,20
 602 287 602 287 602 342 c 0,21,22
 602 452 602 452 531 527 c 128,-1,23
 460 602 460 602 345 602 c 2,24,-1
 228 602 l 1,25,-1
 228 372 l 1,26,-1
 403 372 l 1,27,-1
 403 304 l 1,13,-1
EndSplineSet
EndChar

StartChar: Ntilde
Encoding: 209 209 146
Width: 673
GlyphClass: 2
Flags: W
LayerCount: 2
Fore
SplineSet
158 0 m 1,0,-1
 77 0 l 1,1,-1
 77 674 l 1,2,-1
 179 674 l 1,3,-1
 348 390 l 1,4,-1
 519 98 l 1,5,6
 515 195 515 195 515 389 c 2,7,-1
 515 674 l 1,8,-1
 596 674 l 1,9,-1
 596 0 l 1,10,-1
 494 0 l 1,11,-1
 325 282 l 2,12,13
 274 367 274 367 231 440.5 c 128,-1,14
 188 514 188 514 170 546 c 2,15,-1
 153 577 l 1,16,17
 158 473 158 473 158 284 c 2,18,-1
 158 0 l 1,0,-1
287 801 m 0,19,20
 246 801 246 801 219 753 c 1,21,-1
 176 790 l 1,22,23
 190 820 190 820 217.5 840.5 c 128,-1,24
 245 861 245 861 277 861 c 0,25,26
 307 861 307 861 350 839 c 128,-1,27
 393 817 393 817 411 817 c 0,28,29
 445 817 445 817 465 860 c 1,30,-1
 514 826 l 1,31,32
 482 757 482 757 415 757 c 0,33,34
 388 757 388 757 345.5 779 c 128,-1,35
 303 801 303 801 287 801 c 0,19,20
EndSplineSet
EndChar

StartChar: Ograve
Encoding: 210 210 147
Width: 700
GlyphClass: 2
Flags: W
LayerCount: 2
Fore
SplineSet
653 340 m 0,0,1
 653 181 653 181 571.5 86.5 c 128,-1,2
 490 -8 490 -8 351 -8 c 0,3,4
 214 -8 214 -8 131 87 c 128,-1,5
 48 182 48 182 48 340 c 0,6,7
 48 499 48 499 129.5 593 c 128,-1,8
 211 687 211 687 350 687 c 0,9,10
 492 687 492 687 572.5 593.5 c 128,-1,11
 653 500 653 500 653 340 c 0,0,1
133 340 m 0,12,13
 133 215 133 215 192.5 142 c 128,-1,14
 252 69 252 69 351 69 c 0,15,16
 454 69 454 69 510.5 141 c 128,-1,17
 567 213 567 213 567 340 c 128,-1,18
 567 467 567 467 510 539 c 128,-1,19
 453 611 453 611 350 611 c 0,20,21
 248 611 248 611 190.5 538.5 c 128,-1,22
 133 466 133 466 133 340 c 0,12,13
393 727 m 1,23,-1
 324 727 l 1,24,-1
 200 883 l 1,25,-1
 295 883 l 1,26,-1
 393 727 l 1,23,-1
EndSplineSet
EndChar

StartChar: Oacute
Encoding: 211 211 148
Width: 700
GlyphClass: 2
Flags: W
LayerCount: 2
Fore
SplineSet
653 340 m 0,0,1
 653 181 653 181 571.5 86.5 c 128,-1,2
 490 -8 490 -8 351 -8 c 0,3,4
 214 -8 214 -8 131 87 c 128,-1,5
 48 182 48 182 48 340 c 0,6,7
 48 499 48 499 129.5 593 c 128,-1,8
 211 687 211 687 350 687 c 0,9,10
 492 687 492 687 572.5 593.5 c 128,-1,11
 653 500 653 500 653 340 c 0,0,1
133 340 m 0,12,13
 133 215 133 215 192.5 142 c 128,-1,14
 252 69 252 69 351 69 c 0,15,16
 454 69 454 69 510.5 141 c 128,-1,17
 567 213 567 213 567 340 c 128,-1,18
 567 467 567 467 510 539 c 128,-1,19
 453 611 453 611 350 611 c 0,20,21
 248 611 248 611 190.5 538.5 c 128,-1,22
 133 466 133 466 133 340 c 0,12,13
393 727 m 1,23,-1
 324 727 l 1,24,-1
 423 883 l 1,25,-1
 517 883 l 1,26,-1
 393 727 l 1,23,-1
EndSplineSet
EndChar

StartChar: Ocircumflex
Encoding: 212 212 149
Width: 700
GlyphClass: 2
Flags: W
LayerCount: 2
Fore
SplineSet
653 340 m 0,0,1
 653 181 653 181 571.5 86.5 c 128,-1,2
 490 -8 490 -8 351 -8 c 0,3,4
 214 -8 214 -8 131 87 c 128,-1,5
 48 182 48 182 48 340 c 0,6,7
 48 499 48 499 129.5 593 c 128,-1,8
 211 687 211 687 350 687 c 0,9,10
 492 687 492 687 572.5 593.5 c 128,-1,11
 653 500 653 500 653 340 c 0,0,1
133 340 m 0,12,13
 133 215 133 215 192.5 142 c 128,-1,14
 252 69 252 69 351 69 c 0,15,16
 454 69 454 69 510.5 141 c 128,-1,17
 567 213 567 213 567 340 c 128,-1,18
 567 467 567 467 510 539 c 128,-1,19
 453 611 453 611 350 611 c 0,20,21
 248 611 248 611 190.5 538.5 c 128,-1,22
 133 466 133 466 133 340 c 0,12,13
272 727 m 1,23,-1
 192 727 l 1,24,-1
 319 883 l 1,25,-1
 395 883 l 1,26,-1
 522 727 l 1,27,-1
 442 727 l 1,28,-1
 357 832 l 1,29,-1
 272 727 l 1,23,-1
EndSplineSet
EndChar

StartChar: Otilde
Encoding: 213 213 150
Width: 700
GlyphClass: 2
Flags: W
LayerCount: 2
Fore
SplineSet
653 340 m 0,0,1
 653 181 653 181 571.5 86.5 c 128,-1,2
 490 -8 490 -8 351 -8 c 0,3,4
 214 -8 214 -8 131 87 c 128,-1,5
 48 182 48 182 48 340 c 0,6,7
 48 499 48 499 129.5 593 c 128,-1,8
 211 687 211 687 350 687 c 0,9,10
 492 687 492 687 572.5 593.5 c 128,-1,11
 653 500 653 500 653 340 c 0,0,1
133 340 m 0,12,13
 133 215 133 215 192.5 142 c 128,-1,14
 252 69 252 69 351 69 c 0,15,16
 454 69 454 69 510.5 141 c 128,-1,17
 567 213 567 213 567 340 c 128,-1,18
 567 467 567 467 510 539 c 128,-1,19
 453 611 453 611 350 611 c 0,20,21
 248 611 248 611 190.5 538.5 c 128,-1,22
 133 466 133 466 133 340 c 0,12,13
294 802 m 0,23,24
 253 802 253 802 226 754 c 1,25,-1
 183 791 l 1,26,27
 197 821 197 821 224.5 841.5 c 128,-1,28
 252 862 252 862 284 862 c 0,29,30
 314 862 314 862 357 840 c 128,-1,31
 400 818 400 818 418 818 c 0,32,33
 452 818 452 818 472 861 c 1,34,-1
 521 827 l 1,35,36
 489 758 489 758 422 758 c 0,37,38
 395 758 395 758 352.5 780 c 128,-1,39
 310 802 310 802 294 802 c 0,23,24
EndSplineSet
EndChar

StartChar: Odieresis
Encoding: 214 214 151
Width: 700
GlyphClass: 2
Flags: W
LayerCount: 2
Fore
SplineSet
653 340 m 0,0,1
 653 181 653 181 571.5 86.5 c 128,-1,2
 490 -8 490 -8 351 -8 c 0,3,4
 214 -8 214 -8 131 87 c 128,-1,5
 48 182 48 182 48 340 c 0,6,7
 48 499 48 499 129.5 593 c 128,-1,8
 211 687 211 687 350 687 c 0,9,10
 492 687 492 687 572.5 593.5 c 128,-1,11
 653 500 653 500 653 340 c 0,0,1
133 340 m 0,12,13
 133 215 133 215 192.5 142 c 128,-1,14
 252 69 252 69 351 69 c 0,15,16
 454 69 454 69 510.5 141 c 128,-1,17
 567 213 567 213 567 340 c 128,-1,18
 567 467 567 467 510 539 c 128,-1,19
 453 611 453 611 350 611 c 0,20,21
 248 611 248 611 190.5 538.5 c 128,-1,22
 133 466 133 466 133 340 c 0,12,13
507 806 m 128,-1,24
 507 784 507 784 492 769 c 128,-1,25
 477 754 477 754 455 754 c 128,-1,26
 433 754 433 754 418.5 769 c 128,-1,27
 404 784 404 784 404 806 c 128,-1,28
 404 828 404 828 418.5 842.5 c 128,-1,29
 433 857 433 857 455 857 c 128,-1,30
 477 857 477 857 492 842.5 c 128,-1,23
 507 828 507 828 507 806 c 128,-1,24
305 806 m 128,-1,32
 305 784 305 784 290.5 769 c 128,-1,33
 276 754 276 754 254 754 c 128,-1,34
 232 754 232 754 217 769 c 128,-1,35
 202 784 202 784 202 806 c 128,-1,36
 202 828 202 828 217 842.5 c 128,-1,37
 232 857 232 857 254 857 c 128,-1,38
 276 857 276 857 290.5 842.5 c 128,-1,31
 305 828 305 828 305 806 c 128,-1,32
EndSplineSet
EndChar

StartChar: multiply
Encoding: 215 215 152
Width: 491
GlyphClass: 2
Flags: W
LayerCount: 2
Fore
SplineSet
428 210 m 1,0,-1
 377 159 l 1,1,-1
 245 290 l 1,2,-1
 114 159 l 1,3,-1
 63 211 l 1,4,-1
 194 341 l 1,5,-1
 59 475 l 1,6,-1
 110 525 l 1,7,-1
 245 392 l 1,8,-1
 380 526 l 1,9,-1
 431 475 l 1,10,-1
 296 341 l 1,11,-1
 428 210 l 1,0,-1
EndSplineSet
EndChar

StartChar: Oslash
Encoding: 216 216 153
Width: 675
GlyphClass: 2
Flags: W
LayerCount: 2
Fore
SplineSet
646 340 m 0,0,1
 646 181 646 181 564.5 86.5 c 128,-1,2
 483 -8 483 -8 345 -8 c 0,3,4
 244 -8 244 -8 168 46 c 1,5,-1
 127 -9 l 1,6,-1
 41 -9 l 1,7,-1
 118 94 l 1,8,9
 41 190 41 190 41 340 c 0,10,11
 41 499 41 499 122.5 593 c 128,-1,12
 204 687 204 687 343 687 c 0,13,14
 448 687 448 687 520 635 c 1,15,-1
 559 687 l 1,16,-1
 647 687 l 1,17,-1
 572 586 l 1,18,19
 646 493 646 493 646 340 c 0,0,1
125 340 m 0,20,21
 125 234 125 234 169 163 c 1,22,-1
 473 571 l 1,23,24
 421 612 421 612 343 612 c 0,25,26
 241 612 241 612 183 539.5 c 128,-1,27
 125 467 125 467 125 340 c 0,20,21
345 67 m 0,28,29
 448 67 448 67 505 139.5 c 128,-1,30
 562 212 562 212 562 340 c 0,31,32
 562 449 562 449 520 518 c 1,33,-1
 216 110 l 1,34,35
 270 67 270 67 345 67 c 0,28,29
EndSplineSet
EndChar

StartChar: Ugrave
Encoding: 217 217 154
Width: 645
GlyphClass: 2
Flags: W
LayerCount: 2
Fore
SplineSet
569 256 m 2,0,1
 569 126 569 126 503.5 59 c 128,-1,2
 438 -8 438 -8 321 -8 c 0,3,4
 206 -8 206 -8 141 57.5 c 128,-1,5
 76 123 76 123 76 248 c 2,6,-1
 76 674 l 1,7,-1
 157 674 l 1,8,-1
 157 249 l 2,9,10
 157 156 157 156 201.5 112 c 128,-1,11
 246 68 246 68 321 68 c 0,12,13
 488 68 488 68 488 254 c 2,14,-1
 488 674 l 1,15,-1
 569 674 l 1,16,-1
 569 256 l 2,0,1
360 727 m 1,17,-1
 291 727 l 1,18,-1
 167 883 l 1,19,-1
 262 883 l 1,20,-1
 360 727 l 1,17,-1
EndSplineSet
EndChar

StartChar: Uacute
Encoding: 218 218 155
Width: 645
GlyphClass: 2
Flags: W
LayerCount: 2
Fore
SplineSet
569 256 m 2,0,1
 569 126 569 126 503.5 59 c 128,-1,2
 438 -8 438 -8 321 -8 c 0,3,4
 206 -8 206 -8 141 57.5 c 128,-1,5
 76 123 76 123 76 248 c 2,6,-1
 76 674 l 1,7,-1
 157 674 l 1,8,-1
 157 249 l 2,9,10
 157 156 157 156 201.5 112 c 128,-1,11
 246 68 246 68 321 68 c 0,12,13
 488 68 488 68 488 254 c 2,14,-1
 488 674 l 1,15,-1
 569 674 l 1,16,-1
 569 256 l 2,0,1
369 727 m 1,17,-1
 300 727 l 1,18,-1
 399 883 l 1,19,-1
 493 883 l 1,20,-1
 369 727 l 1,17,-1
EndSplineSet
EndChar

StartChar: Ucircumflex
Encoding: 219 219 156
Width: 645
GlyphClass: 2
Flags: W
LayerCount: 2
Fore
SplineSet
569 256 m 2,0,1
 569 126 569 126 503.5 59 c 128,-1,2
 438 -8 438 -8 321 -8 c 0,3,4
 206 -8 206 -8 141 57.5 c 128,-1,5
 76 123 76 123 76 248 c 2,6,-1
 76 674 l 1,7,-1
 157 674 l 1,8,-1
 157 249 l 2,9,10
 157 156 157 156 201.5 112 c 128,-1,11
 246 68 246 68 321 68 c 0,12,13
 488 68 488 68 488 254 c 2,14,-1
 488 674 l 1,15,-1
 569 674 l 1,16,-1
 569 256 l 2,0,1
239 727 m 1,17,-1
 159 727 l 1,18,-1
 286 883 l 1,19,-1
 362 883 l 1,20,-1
 489 727 l 1,21,-1
 409 727 l 1,22,-1
 324 832 l 1,23,-1
 239 727 l 1,17,-1
EndSplineSet
EndChar

StartChar: Udieresis
Encoding: 220 220 157
Width: 645
GlyphClass: 2
Flags: W
LayerCount: 2
Fore
SplineSet
569 256 m 2,0,1
 569 126 569 126 503.5 59 c 128,-1,2
 438 -8 438 -8 321 -8 c 0,3,4
 206 -8 206 -8 141 57.5 c 128,-1,5
 76 123 76 123 76 248 c 2,6,-1
 76 674 l 1,7,-1
 157 674 l 1,8,-1
 157 249 l 2,9,10
 157 156 157 156 201.5 112 c 128,-1,11
 246 68 246 68 321 68 c 0,12,13
 488 68 488 68 488 254 c 2,14,-1
 488 674 l 1,15,-1
 569 674 l 1,16,-1
 569 256 l 2,0,1
476 806 m 128,-1,18
 476 784 476 784 461 769 c 128,-1,19
 446 754 446 754 424 754 c 128,-1,20
 402 754 402 754 387.5 769 c 128,-1,21
 373 784 373 784 373 806 c 128,-1,22
 373 828 373 828 387.5 842.5 c 128,-1,23
 402 857 402 857 424 857 c 128,-1,24
 446 857 446 857 461 842.5 c 128,-1,17
 476 828 476 828 476 806 c 128,-1,18
274 806 m 128,-1,26
 274 784 274 784 259.5 769 c 128,-1,27
 245 754 245 754 223 754 c 128,-1,28
 201 754 201 754 186 769 c 128,-1,29
 171 784 171 784 171 806 c 128,-1,30
 171 828 171 828 186 842.5 c 128,-1,31
 201 857 201 857 223 857 c 128,-1,32
 245 857 245 857 259.5 842.5 c 128,-1,25
 274 828 274 828 274 806 c 128,-1,26
EndSplineSet
EndChar

StartChar: Yacute
Encoding: 221 221 158
Width: 593
GlyphClass: 2
Flags: W
LayerCount: 2
Fore
SplineSet
336 0 m 1,0,-1
 255 0 l 1,1,-1
 255 250 l 1,2,-1
 26 674 l 1,3,-1
 120 674 l 1,4,-1
 171 575 l 2,5,6
 223 475 223 475 254 412 c 128,-1,7
 285 349 285 349 290 336 c 2,8,-1
 295 324 l 1,9,10
 304 349 304 349 422 575 c 2,11,-1
 473 674 l 1,12,-1
 567 674 l 1,13,-1
 336 251 l 1,14,-1
 336 0 l 1,0,-1
348 726 m 1,15,-1
 279 726 l 1,16,-1
 378 882 l 1,17,-1
 472 882 l 1,18,-1
 348 726 l 1,15,-1
EndSplineSet
EndChar

StartChar: Thorn
Encoding: 222 222 159
Width: 536
GlyphClass: 2
Flags: W
LayerCount: 2
Fore
SplineSet
254 124 m 2,0,-1
 158 124 l 1,1,-1
 158 0 l 1,2,-1
 77 0 l 1,3,-1
 77 674 l 1,4,-1
 158 674 l 1,5,-1
 158 550 l 1,6,-1
 246 550 l 2,7,8
 368 550 368 550 433 490.5 c 128,-1,9
 498 431 498 431 498 333 c 0,10,11
 498 241 498 241 433.5 182.5 c 128,-1,12
 369 124 369 124 254 124 c 2,0,-1
249 481 m 2,13,-1
 158 481 l 1,14,-1
 158 193 l 1,15,-1
 257 193 l 2,16,17
 336 193 336 193 376 231.5 c 128,-1,18
 416 270 416 270 416 331 c 0,19,20
 416 400 416 400 375 440.5 c 128,-1,21
 334 481 334 481 249 481 c 2,13,-1
EndSplineSet
EndChar

StartChar: germandbls
Encoding: 223 223 160
Width: 541
GlyphClass: 2
Flags: W
LayerCount: 2
Fore
SplineSet
512 137 m 0,0,1
 512 74 512 74 467.5 33.5 c 128,-1,2
 423 -7 423 -7 344 -7 c 0,3,4
 289 -7 289 -7 258 6 c 1,5,-1
 258 82 l 1,6,7
 297 62 297 62 343 62 c 0,8,9
 385 62 385 62 409.5 81.5 c 128,-1,10
 434 101 434 101 434 133 c 0,11,12
 434 158 434 158 418.5 180 c 128,-1,13
 403 202 403 202 381 219.5 c 128,-1,14
 359 237 359 237 337 255 c 128,-1,15
 315 273 315 273 299.5 297.5 c 128,-1,16
 284 322 284 322 284 352 c 0,17,18
 284 379 284 379 296.5 404 c 128,-1,19
 309 429 309 429 324.5 444.5 c 128,-1,20
 340 460 340 460 352.5 484 c 128,-1,21
 365 508 365 508 365 534 c 0,22,23
 365 571 365 571 338 594 c 128,-1,24
 311 617 311 617 267 617 c 0,25,26
 155 617 155 617 155 498 c 2,27,-1
 155 0 l 1,28,-1
 76 0 l 1,29,-1
 76 496 l 2,30,31
 76 592 76 592 128.5 641 c 128,-1,32
 181 690 181 690 269 690 c 0,33,34
 348 690 348 690 396.5 645 c 128,-1,35
 445 600 445 600 445 536 c 0,36,37
 445 492 445 492 425.5 458.5 c 128,-1,38
 406 425 406 425 387 401.5 c 128,-1,39
 368 378 368 378 368 358 c 0,40,41
 368 340 368 340 383 322.5 c 128,-1,42
 398 305 398 305 419 288.5 c 128,-1,43
 440 272 440 272 461 252.5 c 128,-1,44
 482 233 482 233 497 203 c 128,-1,45
 512 173 512 173 512 137 c 0,0,1
EndSplineSet
EndChar

StartChar: agrave
Encoding: 224 224 161
Width: 492
GlyphClass: 2
Flags: W
LayerCount: 2
Fore
SplineSet
228 61 m 0,0,1
 282 61 282 61 314 91.5 c 128,-1,2
 346 122 346 122 346 169 c 2,3,-1
 346 234 l 1,4,-1
 258 234 l 2,5,6
 194 234 194 234 162 209 c 128,-1,7
 130 184 130 184 130 146 c 128,-1,8
 130 108 130 108 155 84.5 c 128,-1,9
 180 61 180 61 228 61 c 0,0,1
347 60 m 1,10,11
 308 -5 308 -5 205 -5 c 0,12,13
 134 -5 134 -5 90.5 37 c 128,-1,14
 47 79 47 79 47 143 c 0,15,16
 47 216 47 216 102.5 256.5 c 128,-1,17
 158 297 158 297 254 297 c 2,18,-1
 346 297 l 1,19,-1
 346 323 l 2,20,21
 346 383 346 383 319 413.5 c 128,-1,22
 292 444 292 444 228 444 c 0,23,24
 147 444 147 444 84 401 c 1,25,-1
 84 480 l 1,26,27
 141 515 141 515 234 515 c 0,28,29
 425 515 425 515 425 321 c 2,30,-1
 425 0 l 1,31,-1
 347 0 l 1,32,-1
 347 60 l 1,10,11
291 560 m 1,33,-1
 222 560 l 1,34,-1
 98 716 l 1,35,-1
 193 716 l 1,36,-1
 291 560 l 1,33,-1
EndSplineSet
EndChar

StartChar: aacute
Encoding: 225 225 162
Width: 492
GlyphClass: 2
Flags: W
LayerCount: 2
Fore
SplineSet
228 61 m 0,0,1
 282 61 282 61 314 91.5 c 128,-1,2
 346 122 346 122 346 169 c 2,3,-1
 346 234 l 1,4,-1
 258 234 l 2,5,6
 194 234 194 234 162 209 c 128,-1,7
 130 184 130 184 130 146 c 128,-1,8
 130 108 130 108 155 84.5 c 128,-1,9
 180 61 180 61 228 61 c 0,0,1
347 60 m 1,10,11
 308 -5 308 -5 205 -5 c 0,12,13
 134 -5 134 -5 90.5 37 c 128,-1,14
 47 79 47 79 47 143 c 0,15,16
 47 216 47 216 102.5 256.5 c 128,-1,17
 158 297 158 297 254 297 c 2,18,-1
 346 297 l 1,19,-1
 346 323 l 2,20,21
 346 383 346 383 319 413.5 c 128,-1,22
 292 444 292 444 228 444 c 0,23,24
 147 444 147 444 84 401 c 1,25,-1
 84 480 l 1,26,27
 141 515 141 515 234 515 c 0,28,29
 425 515 425 515 425 321 c 2,30,-1
 425 0 l 1,31,-1
 347 0 l 1,32,-1
 347 60 l 1,10,11
292 560 m 1,33,-1
 223 560 l 1,34,-1
 322 716 l 1,35,-1
 416 716 l 1,36,-1
 292 560 l 1,33,-1
EndSplineSet
EndChar

StartChar: acircumflex
Encoding: 226 226 163
Width: 492
GlyphClass: 2
Flags: W
LayerCount: 2
Fore
SplineSet
228 61 m 0,0,1
 282 61 282 61 314 91.5 c 128,-1,2
 346 122 346 122 346 169 c 2,3,-1
 346 234 l 1,4,-1
 258 234 l 2,5,6
 194 234 194 234 162 209 c 128,-1,7
 130 184 130 184 130 146 c 128,-1,8
 130 108 130 108 155 84.5 c 128,-1,9
 180 61 180 61 228 61 c 0,0,1
347 60 m 1,10,11
 308 -5 308 -5 205 -5 c 0,12,13
 134 -5 134 -5 90.5 37 c 128,-1,14
 47 79 47 79 47 143 c 0,15,16
 47 216 47 216 102.5 256.5 c 128,-1,17
 158 297 158 297 254 297 c 2,18,-1
 346 297 l 1,19,-1
 346 323 l 2,20,21
 346 383 346 383 319 413.5 c 128,-1,22
 292 444 292 444 228 444 c 0,23,24
 147 444 147 444 84 401 c 1,25,-1
 84 480 l 1,26,27
 141 515 141 515 234 515 c 0,28,29
 425 515 425 515 425 321 c 2,30,-1
 425 0 l 1,31,-1
 347 0 l 1,32,-1
 347 60 l 1,10,11
169 559 m 1,33,-1
 89 559 l 1,34,-1
 216 715 l 1,35,-1
 292 715 l 1,36,-1
 419 559 l 1,37,-1
 339 559 l 1,38,-1
 254 664 l 1,39,-1
 169 559 l 1,33,-1
EndSplineSet
EndChar

StartChar: atilde
Encoding: 227 227 164
Width: 492
GlyphClass: 2
Flags: W
LayerCount: 2
Fore
SplineSet
228 61 m 0,0,1
 282 61 282 61 314 91.5 c 128,-1,2
 346 122 346 122 346 169 c 2,3,-1
 346 234 l 1,4,-1
 258 234 l 2,5,6
 194 234 194 234 162 209 c 128,-1,7
 130 184 130 184 130 146 c 128,-1,8
 130 108 130 108 155 84.5 c 128,-1,9
 180 61 180 61 228 61 c 0,0,1
347 60 m 1,10,11
 308 -5 308 -5 205 -5 c 0,12,13
 134 -5 134 -5 90.5 37 c 128,-1,14
 47 79 47 79 47 143 c 0,15,16
 47 216 47 216 102.5 256.5 c 128,-1,17
 158 297 158 297 254 297 c 2,18,-1
 346 297 l 1,19,-1
 346 323 l 2,20,21
 346 383 346 383 319 413.5 c 128,-1,22
 292 444 292 444 228 444 c 0,23,24
 147 444 147 444 84 401 c 1,25,-1
 84 480 l 1,26,27
 141 515 141 515 234 515 c 0,28,29
 425 515 425 515 425 321 c 2,30,-1
 425 0 l 1,31,-1
 347 0 l 1,32,-1
 347 60 l 1,10,11
192 634 m 0,33,34
 151 634 151 634 124 586 c 1,35,-1
 81 623 l 1,36,37
 95 653 95 653 122.5 673.5 c 128,-1,38
 150 694 150 694 182 694 c 0,39,40
 212 694 212 694 255 672 c 128,-1,41
 298 650 298 650 316 650 c 0,42,43
 350 650 350 650 370 693 c 1,44,-1
 419 659 l 1,45,46
 387 590 387 590 320 590 c 0,47,48
 293 590 293 590 250.5 612 c 128,-1,49
 208 634 208 634 192 634 c 0,33,34
EndSplineSet
EndChar

StartChar: adieresis
Encoding: 228 228 165
Width: 492
GlyphClass: 2
Flags: W
LayerCount: 2
Fore
SplineSet
228 61 m 0,0,1
 282 61 282 61 314 91.5 c 128,-1,2
 346 122 346 122 346 169 c 2,3,-1
 346 234 l 1,4,-1
 258 234 l 2,5,6
 194 234 194 234 162 209 c 128,-1,7
 130 184 130 184 130 146 c 128,-1,8
 130 108 130 108 155 84.5 c 128,-1,9
 180 61 180 61 228 61 c 0,0,1
347 60 m 1,10,11
 308 -5 308 -5 205 -5 c 0,12,13
 134 -5 134 -5 90.5 37 c 128,-1,14
 47 79 47 79 47 143 c 0,15,16
 47 216 47 216 102.5 256.5 c 128,-1,17
 158 297 158 297 254 297 c 2,18,-1
 346 297 l 1,19,-1
 346 323 l 2,20,21
 346 383 346 383 319 413.5 c 128,-1,22
 292 444 292 444 228 444 c 0,23,24
 147 444 147 444 84 401 c 1,25,-1
 84 480 l 1,26,27
 141 515 141 515 234 515 c 0,28,29
 425 515 425 515 425 321 c 2,30,-1
 425 0 l 1,31,-1
 347 0 l 1,32,-1
 347 60 l 1,10,11
405 636 m 128,-1,34
 405 614 405 614 390 599 c 128,-1,35
 375 584 375 584 353 584 c 128,-1,36
 331 584 331 584 316.5 599 c 128,-1,37
 302 614 302 614 302 636 c 128,-1,38
 302 658 302 658 316.5 672.5 c 128,-1,39
 331 687 331 687 353 687 c 128,-1,40
 375 687 375 687 390 672.5 c 128,-1,33
 405 658 405 658 405 636 c 128,-1,34
203 636 m 128,-1,42
 203 614 203 614 188.5 599 c 128,-1,43
 174 584 174 584 152 584 c 128,-1,44
 130 584 130 584 115 599 c 128,-1,45
 100 614 100 614 100 636 c 128,-1,46
 100 658 100 658 115 672.5 c 128,-1,47
 130 687 130 687 152 687 c 128,-1,48
 174 687 174 687 188.5 672.5 c 128,-1,41
 203 658 203 658 203 636 c 128,-1,42
EndSplineSet
EndChar

StartChar: aring
Encoding: 229 229 166
Width: 492
GlyphClass: 2
Flags: W
LayerCount: 2
Fore
SplineSet
228 61 m 0,0,1
 282 61 282 61 314 91.5 c 128,-1,2
 346 122 346 122 346 169 c 2,3,-1
 346 234 l 1,4,-1
 258 234 l 2,5,6
 194 234 194 234 162 209 c 128,-1,7
 130 184 130 184 130 146 c 128,-1,8
 130 108 130 108 155 84.5 c 128,-1,9
 180 61 180 61 228 61 c 0,0,1
347 60 m 1,10,11
 308 -5 308 -5 205 -5 c 0,12,13
 134 -5 134 -5 90.5 37 c 128,-1,14
 47 79 47 79 47 143 c 0,15,16
 47 216 47 216 102.5 256.5 c 128,-1,17
 158 297 158 297 254 297 c 2,18,-1
 346 297 l 1,19,-1
 346 323 l 2,20,21
 346 383 346 383 319 413.5 c 128,-1,22
 292 444 292 444 228 444 c 0,23,24
 147 444 147 444 84 401 c 1,25,-1
 84 480 l 1,26,27
 141 515 141 515 234 515 c 0,28,29
 425 515 425 515 425 321 c 2,30,-1
 425 0 l 1,31,-1
 347 0 l 1,32,-1
 347 60 l 1,10,11
361 656 m 128,-1,34
 361 612 361 612 330 581 c 128,-1,35
 299 550 299 550 255 550 c 128,-1,36
 211 550 211 550 180 581 c 128,-1,37
 149 612 149 612 149 656 c 128,-1,38
 149 700 149 700 180 731.5 c 128,-1,39
 211 763 211 763 255 763 c 128,-1,40
 299 763 299 763 330 731.5 c 128,-1,33
 361 700 361 700 361 656 c 128,-1,34
202 657 m 0,41,42
 202 635 202 635 217.5 619 c 128,-1,43
 233 603 233 603 255 603 c 128,-1,44
 277 603 277 603 293 619 c 128,-1,45
 309 635 309 635 309 657 c 0,46,47
 309 680 309 680 293.5 695.5 c 128,-1,48
 278 711 278 711 255 711 c 0,49,50
 233 711 233 711 217.5 695.5 c 128,-1,51
 202 680 202 680 202 657 c 0,41,42
EndSplineSet
EndChar

StartChar: ae
Encoding: 230 230 167
Width: 819
GlyphClass: 2
Flags: W
LayerCount: 2
Fore
SplineSet
396 99 m 1,0,1
 377 53 377 53 330 24 c 128,-1,2
 283 -5 283 -5 215 -5 c 0,3,4
 142 -5 142 -5 97 34.5 c 128,-1,5
 52 74 52 74 52 142 c 0,6,7
 52 216 52 216 108 257 c 128,-1,8
 164 298 164 298 261 298 c 2,9,-1
 351 298 l 1,10,-1
 351 323 l 2,11,12
 351 383 351 383 324 413.5 c 128,-1,13
 297 444 297 444 233 444 c 0,14,15
 153 444 153 444 89 402 c 1,16,-1
 89 479 l 1,17,18
 147 515 147 515 236 515 c 0,19,20
 365 515 365 515 401 425 c 1,21,22
 460 513 460 513 576 513 c 0,23,24
 674 513 674 513 726.5 451.5 c 128,-1,25
 779 390 779 390 779 275 c 0,26,27
 779 247 779 247 774 220 c 1,28,-1
 430 220 l 1,29,30
 439 145 439 145 488 105 c 128,-1,31
 537 65 537 65 609 65 c 0,32,33
 692 65 692 65 743 100 c 1,34,-1
 743 26 l 1,35,36
 686 -5 686 -5 603 -5 c 0,37,38
 538 -5 538 -5 482 23 c 128,-1,39
 426 51 426 51 396 99 c 1,0,1
134 145 m 0,40,41
 134 108 134 108 159.5 86 c 128,-1,42
 185 64 185 64 233 64 c 0,43,44
 283 64 283 64 317 95 c 128,-1,45
 351 126 351 126 351 177 c 2,46,-1
 351 232 l 1,47,-1
 276 232 l 2,48,49
 134 232 134 232 134 145 c 0,40,41
575 444 m 128,-1,51
 519 444 519 444 478.5 404 c 128,-1,52
 438 364 438 364 429 286 c 1,53,-1
 701 286 l 1,54,-1
 701 306 l 2,55,56
 700 372 700 372 665.5 408 c 128,-1,50
 631 444 631 444 575 444 c 128,-1,51
EndSplineSet
EndChar

StartChar: ccedilla
Encoding: 231 231 168
Width: 471
GlyphClass: 2
Flags: W
LayerCount: 2
Fore
SplineSet
422 18 m 1,0,1
 374 -11 374 -11 304 -11 c 0,2,3
 184 -11 184 -11 113.5 65.5 c 128,-1,4
 43 142 43 142 43 252 c 0,5,6
 43 360 43 360 113.5 438 c 128,-1,7
 184 516 184 516 306 516 c 0,8,9
 371 516 371 516 422 488 c 1,10,-1
 422 413 l 1,11,12
 376 444 376 444 314 444 c 0,13,14
 228 444 228 444 176.5 388.5 c 128,-1,15
 125 333 125 333 125 251 c 0,16,17
 126 169 126 169 175 114.5 c 128,-1,18
 224 60 224 60 314 60 c 0,19,20
 372 60 372 60 422 93 c 1,21,-1
 422 18 l 1,0,1
339 -122 m 0,22,23
 339 -176 339 -176 300.5 -213 c 128,-1,24
 262 -250 262 -250 189 -252 c 1,25,-1
 189 -194 l 1,26,27
 273 -188 273 -188 273 -123 c 0,28,29
 273 -89 273 -89 250 -51 c 1,30,-1
 321 -51 l 1,31,32
 339 -76 339 -76 339 -122 c 0,22,23
EndSplineSet
EndChar

StartChar: egrave
Encoding: 232 232 169
Width: 522
GlyphClass: 2
Flags: W
LayerCount: 2
Fore
SplineSet
443 26 m 1,0,1
 384 -5 384 -5 299 -5 c 0,2,3
 184 -5 184 -5 113.5 65.5 c 128,-1,4
 43 136 43 136 43 252 c 0,5,6
 43 373 43 373 106 443 c 128,-1,7
 169 513 169 513 268 513 c 0,8,9
 363 513 363 513 419 452 c 128,-1,10
 475 391 475 391 475 279 c 0,11,12
 475 247 475 247 470 220 c 1,13,-1
 124 220 l 1,14,15
 133 145 133 145 181 105 c 128,-1,16
 229 65 229 65 307 65 c 0,17,18
 392 65 392 65 443 100 c 1,19,-1
 443 26 l 1,0,1
268 444 m 0,20,21
 211 444 211 444 171 403 c 128,-1,22
 131 362 131 362 124 286 c 1,23,-1
 396 286 l 1,24,-1
 396 306 l 2,25,26
 396 369 396 369 362 406.5 c 128,-1,27
 328 444 328 444 268 444 c 0,20,21
318 560 m 1,28,-1
 249 560 l 1,29,-1
 125 716 l 1,30,-1
 220 716 l 1,31,-1
 318 560 l 1,28,-1
EndSplineSet
EndChar

StartChar: eacute
Encoding: 233 233 170
Width: 522
GlyphClass: 2
Flags: W
LayerCount: 2
Fore
SplineSet
443 26 m 1,0,1
 384 -5 384 -5 299 -5 c 0,2,3
 184 -5 184 -5 113.5 65.5 c 128,-1,4
 43 136 43 136 43 252 c 0,5,6
 43 373 43 373 106 443 c 128,-1,7
 169 513 169 513 268 513 c 0,8,9
 363 513 363 513 419 452 c 128,-1,10
 475 391 475 391 475 279 c 0,11,12
 475 247 475 247 470 220 c 1,13,-1
 124 220 l 1,14,15
 133 145 133 145 181 105 c 128,-1,16
 229 65 229 65 307 65 c 0,17,18
 392 65 392 65 443 100 c 1,19,-1
 443 26 l 1,0,1
268 444 m 0,20,21
 211 444 211 444 171 403 c 128,-1,22
 131 362 131 362 124 286 c 1,23,-1
 396 286 l 1,24,-1
 396 306 l 2,25,26
 396 369 396 369 362 406.5 c 128,-1,27
 328 444 328 444 268 444 c 0,20,21
320 560 m 1,28,-1
 251 560 l 1,29,-1
 350 716 l 1,30,-1
 444 716 l 1,31,-1
 320 560 l 1,28,-1
EndSplineSet
EndChar

StartChar: ecircumflex
Encoding: 234 234 171
Width: 522
GlyphClass: 2
Flags: W
LayerCount: 2
Fore
SplineSet
443 26 m 1,0,1
 384 -5 384 -5 299 -5 c 0,2,3
 184 -5 184 -5 113.5 65.5 c 128,-1,4
 43 136 43 136 43 252 c 0,5,6
 43 373 43 373 106 443 c 128,-1,7
 169 513 169 513 268 513 c 0,8,9
 363 513 363 513 419 452 c 128,-1,10
 475 391 475 391 475 279 c 0,11,12
 475 247 475 247 470 220 c 1,13,-1
 124 220 l 1,14,15
 133 145 133 145 181 105 c 128,-1,16
 229 65 229 65 307 65 c 0,17,18
 392 65 392 65 443 100 c 1,19,-1
 443 26 l 1,0,1
268 444 m 0,20,21
 211 444 211 444 171 403 c 128,-1,22
 131 362 131 362 124 286 c 1,23,-1
 396 286 l 1,24,-1
 396 306 l 2,25,26
 396 369 396 369 362 406.5 c 128,-1,27
 328 444 328 444 268 444 c 0,20,21
196 560 m 1,28,-1
 116 560 l 1,29,-1
 243 716 l 1,30,-1
 319 716 l 1,31,-1
 446 560 l 1,32,-1
 366 560 l 1,33,-1
 281 665 l 1,34,-1
 196 560 l 1,28,-1
EndSplineSet
EndChar

StartChar: edieresis
Encoding: 235 235 172
Width: 522
GlyphClass: 2
Flags: W
LayerCount: 2
Fore
SplineSet
443 26 m 1,0,1
 384 -5 384 -5 299 -5 c 0,2,3
 184 -5 184 -5 113.5 65.5 c 128,-1,4
 43 136 43 136 43 252 c 0,5,6
 43 373 43 373 106 443 c 128,-1,7
 169 513 169 513 268 513 c 0,8,9
 363 513 363 513 419 452 c 128,-1,10
 475 391 475 391 475 279 c 0,11,12
 475 247 475 247 470 220 c 1,13,-1
 124 220 l 1,14,15
 133 145 133 145 181 105 c 128,-1,16
 229 65 229 65 307 65 c 0,17,18
 392 65 392 65 443 100 c 1,19,-1
 443 26 l 1,0,1
268 444 m 0,20,21
 211 444 211 444 171 403 c 128,-1,22
 131 362 131 362 124 286 c 1,23,-1
 396 286 l 1,24,-1
 396 306 l 2,25,26
 396 369 396 369 362 406.5 c 128,-1,27
 328 444 328 444 268 444 c 0,20,21
434 639 m 128,-1,29
 434 617 434 617 419 602 c 128,-1,30
 404 587 404 587 382 587 c 128,-1,31
 360 587 360 587 345.5 602 c 128,-1,32
 331 617 331 617 331 639 c 128,-1,33
 331 661 331 661 345.5 675.5 c 128,-1,34
 360 690 360 690 382 690 c 128,-1,35
 404 690 404 690 419 675.5 c 128,-1,28
 434 661 434 661 434 639 c 128,-1,29
232 639 m 128,-1,37
 232 617 232 617 217.5 602 c 128,-1,38
 203 587 203 587 181 587 c 128,-1,39
 159 587 159 587 144 602 c 128,-1,40
 129 617 129 617 129 639 c 128,-1,41
 129 661 129 661 144 675.5 c 128,-1,42
 159 690 159 690 181 690 c 128,-1,43
 203 690 203 690 217.5 675.5 c 128,-1,36
 232 661 232 661 232 639 c 128,-1,37
EndSplineSet
EndChar

StartChar: igrave
Encoding: 236 236 173
Width: 233
GlyphClass: 2
Flags: W
LayerCount: 2
Fore
SplineSet
156 0 m 1,0,-1
 77 0 l 1,1,-1
 77 507 l 1,2,-1
 156 507 l 1,3,-1
 156 0 l 1,0,-1
145 559 m 1,4,-1
 76 559 l 1,5,-1
 -48 715 l 1,6,-1
 47 715 l 1,7,-1
 145 559 l 1,4,-1
EndSplineSet
EndChar

StartChar: iacute
Encoding: 237 237 174
Width: 233
GlyphClass: 2
Flags: W
LayerCount: 2
Fore
SplineSet
156 0 m 1,0,-1
 77 0 l 1,1,-1
 77 507 l 1,2,-1
 156 507 l 1,3,-1
 156 0 l 1,0,-1
157 560 m 1,4,-1
 88 560 l 1,5,-1
 187 716 l 1,6,-1
 281 716 l 1,7,-1
 157 560 l 1,4,-1
EndSplineSet
EndChar

StartChar: icircumflex
Encoding: 238 238 175
Width: 233
GlyphClass: 2
Flags: W
LayerCount: 2
Fore
SplineSet
156 0 m 1,0,-1
 77 0 l 1,1,-1
 77 507 l 1,2,-1
 156 507 l 1,3,-1
 156 0 l 1,0,-1
32 560 m 1,4,-1
 -48 560 l 1,5,-1
 79 716 l 1,6,-1
 155 716 l 1,7,-1
 282 560 l 1,8,-1
 202 560 l 1,9,-1
 117 665 l 1,10,-1
 32 560 l 1,4,-1
EndSplineSet
EndChar

StartChar: idieresis
Encoding: 239 239 176
Width: 233
GlyphClass: 2
Flags: W
LayerCount: 2
Fore
SplineSet
156 0 m 1,0,-1
 77 0 l 1,1,-1
 77 507 l 1,2,-1
 156 507 l 1,3,-1
 156 0 l 1,0,-1
269 640 m 128,-1,5
 269 618 269 618 254 603 c 128,-1,6
 239 588 239 588 217 588 c 128,-1,7
 195 588 195 588 180.5 603 c 128,-1,8
 166 618 166 618 166 640 c 128,-1,9
 166 662 166 662 180.5 676.5 c 128,-1,10
 195 691 195 691 217 691 c 128,-1,11
 239 691 239 691 254 676.5 c 128,-1,4
 269 662 269 662 269 640 c 128,-1,5
67 640 m 128,-1,13
 67 618 67 618 52.5 603 c 128,-1,14
 38 588 38 588 16 588 c 128,-1,15
 -6 588 -6 588 -21 603 c 128,-1,16
 -36 618 -36 618 -36 640 c 128,-1,17
 -36 662 -36 662 -21 676.5 c 128,-1,18
 -6 691 -6 691 16 691 c 128,-1,19
 38 691 38 691 52.5 676.5 c 128,-1,12
 67 662 67 662 67 640 c 128,-1,13
EndSplineSet
EndChar

StartChar: eth
Encoding: 240 240 177
Width: 517
GlyphClass: 2
Flags: W
LayerCount: 2
Fore
SplineSet
471 269 m 0,0,1
 471 133 471 133 412 62 c 128,-1,2
 353 -9 353 -9 251 -9 c 0,3,4
 156 -9 156 -9 97 53 c 128,-1,5
 38 115 38 115 38 202 c 0,6,7
 38 298 38 298 97 353 c 128,-1,8
 156 408 156 408 239 408 c 0,9,10
 331 408 331 408 390 340 c 1,11,12
 372 446 372 446 301 536 c 1,13,-1
 161 464 l 1,14,-1
 161 525 l 1,15,-1
 263 577 l 1,16,17
 204 636 204 636 131 674 c 1,18,-1
 255 674 l 1,19,20
 295 648 295 648 330 612 c 1,21,-1
 452 674 l 1,22,-1
 452 613 l 1,23,-1
 367 569 l 1,24,25
 471 435 471 435 471 269 c 0,0,1
251 64 m 0,26,27
 311 64 311 64 351.5 110.5 c 128,-1,28
 392 157 392 157 396 256 c 1,29,30
 336 335 336 335 245 335 c 0,31,32
 191 335 191 335 155.5 299.5 c 128,-1,33
 120 264 120 264 120 200 c 0,34,35
 120 138 120 138 157 101 c 128,-1,36
 194 64 194 64 251 64 c 0,26,27
EndSplineSet
EndChar

StartChar: ntilde
Encoding: 241 241 178
Width: 540
GlyphClass: 2
Flags: W
LayerCount: 2
Fore
SplineSet
473 0 m 1,0,-1
 394 0 l 1,1,-1
 394 328 l 2,2,3
 394 384 394 384 365.5 413.5 c 128,-1,4
 337 443 337 443 291 443 c 0,5,6
 234 443 234 443 192.5 399 c 128,-1,7
 151 355 151 355 151 277 c 2,8,-1
 151 0 l 1,9,-1
 73 0 l 1,10,-1
 73 507 l 1,11,-1
 151 507 l 1,12,-1
 151 419 l 1,13,14
 196 514 196 514 311 514 c 0,15,16
 385 514 385 514 429 469 c 128,-1,17
 473 424 473 424 473 349 c 2,18,-1
 473 0 l 1,0,-1
222 634 m 0,19,20
 181 634 181 634 154 586 c 1,21,-1
 111 623 l 1,22,23
 125 653 125 653 152.5 673.5 c 128,-1,24
 180 694 180 694 212 694 c 0,25,26
 242 694 242 694 285 672 c 128,-1,27
 328 650 328 650 346 650 c 0,28,29
 380 650 380 650 400 693 c 1,30,-1
 449 659 l 1,31,32
 417 590 417 590 350 590 c 0,33,34
 323 590 323 590 280.5 612 c 128,-1,35
 238 634 238 634 222 634 c 0,19,20
EndSplineSet
EndChar

StartChar: ograve
Encoding: 242 242 179
Width: 562
GlyphClass: 2
Flags: W
LayerCount: 2
Fore
SplineSet
519 252 m 0,0,1
 519 139 519 139 455 65 c 128,-1,2
 391 -9 391 -9 279 -9 c 0,3,4
 170 -9 170 -9 106.5 64.5 c 128,-1,5
 43 138 43 138 43 250 c 0,6,7
 43 363 43 363 108.5 438.5 c 128,-1,8
 174 514 174 514 279 514 c 0,9,10
 394 514 394 514 456.5 440 c 128,-1,11
 519 366 519 366 519 252 c 0,0,1
125 251 m 0,12,13
 125 172 125 172 167 116.5 c 128,-1,14
 209 61 209 61 279 61 c 0,15,16
 355 61 355 61 396 115.5 c 128,-1,17
 437 170 437 170 437 251 c 0,18,19
 437 335 437 335 398 389.5 c 128,-1,20
 359 444 359 444 279 444 c 0,21,22
 207 444 207 444 166 388 c 128,-1,23
 125 332 125 332 125 251 c 0,12,13
318 560 m 1,24,-1
 249 560 l 1,25,-1
 125 716 l 1,26,-1
 220 716 l 1,27,-1
 318 560 l 1,24,-1
EndSplineSet
EndChar

StartChar: oacute
Encoding: 243 243 180
Width: 562
GlyphClass: 2
Flags: W
LayerCount: 2
Fore
SplineSet
519 252 m 0,0,1
 519 139 519 139 455 65 c 128,-1,2
 391 -9 391 -9 279 -9 c 0,3,4
 170 -9 170 -9 106.5 64.5 c 128,-1,5
 43 138 43 138 43 250 c 0,6,7
 43 363 43 363 108.5 438.5 c 128,-1,8
 174 514 174 514 279 514 c 0,9,10
 394 514 394 514 456.5 440 c 128,-1,11
 519 366 519 366 519 252 c 0,0,1
125 251 m 0,12,13
 125 172 125 172 167 116.5 c 128,-1,14
 209 61 209 61 279 61 c 0,15,16
 355 61 355 61 396 115.5 c 128,-1,17
 437 170 437 170 437 251 c 0,18,19
 437 335 437 335 398 389.5 c 128,-1,20
 359 444 359 444 279 444 c 0,21,22
 207 444 207 444 166 388 c 128,-1,23
 125 332 125 332 125 251 c 0,12,13
327 560 m 1,24,-1
 258 560 l 1,25,-1
 357 716 l 1,26,-1
 451 716 l 1,27,-1
 327 560 l 1,24,-1
EndSplineSet
EndChar

StartChar: ocircumflex
Encoding: 244 244 181
Width: 562
GlyphClass: 2
Flags: W
LayerCount: 2
Fore
SplineSet
519 252 m 0,0,1
 519 139 519 139 455 65 c 128,-1,2
 391 -9 391 -9 279 -9 c 0,3,4
 170 -9 170 -9 106.5 64.5 c 128,-1,5
 43 138 43 138 43 250 c 0,6,7
 43 363 43 363 108.5 438.5 c 128,-1,8
 174 514 174 514 279 514 c 0,9,10
 394 514 394 514 456.5 440 c 128,-1,11
 519 366 519 366 519 252 c 0,0,1
125 251 m 0,12,13
 125 172 125 172 167 116.5 c 128,-1,14
 209 61 209 61 279 61 c 0,15,16
 355 61 355 61 396 115.5 c 128,-1,17
 437 170 437 170 437 251 c 0,18,19
 437 335 437 335 398 389.5 c 128,-1,20
 359 444 359 444 279 444 c 0,21,22
 207 444 207 444 166 388 c 128,-1,23
 125 332 125 332 125 251 c 0,12,13
199 559 m 1,24,-1
 119 559 l 1,25,-1
 246 715 l 1,26,-1
 322 715 l 1,27,-1
 449 559 l 1,28,-1
 369 559 l 1,29,-1
 284 664 l 1,30,-1
 199 559 l 1,24,-1
EndSplineSet
EndChar

StartChar: otilde
Encoding: 245 245 182
Width: 562
GlyphClass: 2
Flags: W
LayerCount: 2
Fore
SplineSet
519 252 m 0,0,1
 519 139 519 139 455 65 c 128,-1,2
 391 -9 391 -9 279 -9 c 0,3,4
 170 -9 170 -9 106.5 64.5 c 128,-1,5
 43 138 43 138 43 250 c 0,6,7
 43 363 43 363 108.5 438.5 c 128,-1,8
 174 514 174 514 279 514 c 0,9,10
 394 514 394 514 456.5 440 c 128,-1,11
 519 366 519 366 519 252 c 0,0,1
125 251 m 0,12,13
 125 172 125 172 167 116.5 c 128,-1,14
 209 61 209 61 279 61 c 0,15,16
 355 61 355 61 396 115.5 c 128,-1,17
 437 170 437 170 437 251 c 0,18,19
 437 335 437 335 398 389.5 c 128,-1,20
 359 444 359 444 279 444 c 0,21,22
 207 444 207 444 166 388 c 128,-1,23
 125 332 125 332 125 251 c 0,12,13
226 634 m 0,24,25
 185 634 185 634 158 586 c 1,26,-1
 115 623 l 1,27,28
 129 653 129 653 156.5 673.5 c 128,-1,29
 184 694 184 694 216 694 c 0,30,31
 246 694 246 694 289 672 c 128,-1,32
 332 650 332 650 350 650 c 0,33,34
 384 650 384 650 404 693 c 1,35,-1
 453 659 l 1,36,37
 421 590 421 590 354 590 c 0,38,39
 327 590 327 590 284.5 612 c 128,-1,40
 242 634 242 634 226 634 c 0,24,25
EndSplineSet
EndChar

StartChar: odieresis
Encoding: 246 246 183
Width: 562
GlyphClass: 2
Flags: W
LayerCount: 2
Fore
SplineSet
519 252 m 0,0,1
 519 139 519 139 455 65 c 128,-1,2
 391 -9 391 -9 279 -9 c 0,3,4
 170 -9 170 -9 106.5 64.5 c 128,-1,5
 43 138 43 138 43 250 c 0,6,7
 43 363 43 363 108.5 438.5 c 128,-1,8
 174 514 174 514 279 514 c 0,9,10
 394 514 394 514 456.5 440 c 128,-1,11
 519 366 519 366 519 252 c 0,0,1
125 251 m 0,12,13
 125 172 125 172 167 116.5 c 128,-1,14
 209 61 209 61 279 61 c 0,15,16
 355 61 355 61 396 115.5 c 128,-1,17
 437 170 437 170 437 251 c 0,18,19
 437 335 437 335 398 389.5 c 128,-1,20
 359 444 359 444 279 444 c 0,21,22
 207 444 207 444 166 388 c 128,-1,23
 125 332 125 332 125 251 c 0,12,13
442 637 m 128,-1,25
 442 615 442 615 427 600 c 128,-1,26
 412 585 412 585 390 585 c 128,-1,27
 368 585 368 585 353.5 600 c 128,-1,28
 339 615 339 615 339 637 c 128,-1,29
 339 659 339 659 353.5 673.5 c 128,-1,30
 368 688 368 688 390 688 c 128,-1,31
 412 688 412 688 427 673.5 c 128,-1,24
 442 659 442 659 442 637 c 128,-1,25
240 637 m 128,-1,33
 240 615 240 615 225.5 600 c 128,-1,34
 211 585 211 585 189 585 c 128,-1,35
 167 585 167 585 152 600 c 128,-1,36
 137 615 137 615 137 637 c 128,-1,37
 137 659 137 659 152 673.5 c 128,-1,38
 167 688 167 688 189 688 c 128,-1,39
 211 688 211 688 225.5 673.5 c 128,-1,32
 240 659 240 659 240 637 c 128,-1,33
EndSplineSet
EndChar

StartChar: divide
Encoding: 247 247 184
Width: 553
GlyphClass: 2
Flags: W
LayerCount: 2
Fore
SplineSet
497 304 m 1,0,-1
 57 304 l 1,1,-1
 57 376 l 1,2,-1
 497 376 l 1,3,-1
 497 304 l 1,0,-1
328 162 m 0,4,5
 328 140 328 140 312.5 124.5 c 128,-1,6
 297 109 297 109 276 109 c 0,7,8
 254 109 254 109 238.5 124.5 c 128,-1,9
 223 140 223 140 223 162 c 0,10,11
 223 183 223 183 238.5 198.5 c 128,-1,12
 254 214 254 214 276 214 c 0,13,14
 297 214 297 214 312.5 198.5 c 128,-1,15
 328 183 328 183 328 162 c 0,4,5
328 518 m 0,16,17
 328 497 328 497 312.5 481.5 c 128,-1,18
 297 466 297 466 276 466 c 0,19,20
 254 466 254 466 238.5 481.5 c 128,-1,21
 223 497 223 497 223 518 c 0,22,23
 223 540 223 540 238.5 555.5 c 128,-1,24
 254 571 254 571 276 571 c 0,25,26
 297 571 297 571 312.5 555.5 c 128,-1,27
 328 540 328 540 328 518 c 0,16,17
EndSplineSet
EndChar

StartChar: oslash
Encoding: 248 248 185
Width: 563
GlyphClass: 2
Flags: W
LayerCount: 2
Fore
SplineSet
533 252 m 0,0,1
 533 139 533 139 469 65 c 128,-1,2
 405 -9 405 -9 293 -9 c 0,3,4
 221 -9 221 -9 165 26 c 1,5,-1
 138 -9 l 1,6,-1
 56 -9 l 1,7,-1
 115 70 l 1,8,9
 56 141 56 141 56 250 c 0,10,11
 56 362 56 362 122 438 c 128,-1,12
 188 514 188 514 293 514 c 0,13,14
 368 514 368 514 424 479 c 1,15,-1
 450 514 l 1,16,-1
 533 514 l 1,17,-1
 474 436 l 1,18,19
 533 363 533 363 533 252 c 0,0,1
133 251 m 0,20,21
 133 182 133 182 163 133 c 1,22,-1
 383 425 l 1,23,24
 345 450 345 450 292 450 c 0,25,26
 217 450 217 450 175 392.5 c 128,-1,27
 133 335 133 335 133 251 c 0,20,21
293 55 m 0,28,29
 372 55 372 55 414 111 c 128,-1,30
 456 167 456 167 456 251 c 0,31,32
 456 323 456 323 428 375 c 1,33,-1
 207 82 l 1,34,35
 245 55 245 55 293 55 c 0,28,29
EndSplineSet
EndChar

StartChar: ugrave
Encoding: 249 249 186
Width: 540
GlyphClass: 2
Flags: W
LayerCount: 2
Fore
SplineSet
467 0 m 1,0,-1
 388 0 l 1,1,-1
 388 88 l 1,2,3
 348 -6 348 -6 229 -6 c 0,4,5
 154 -6 154 -6 110.5 38.5 c 128,-1,6
 67 83 67 83 67 158 c 2,7,-1
 67 507 l 1,8,-1
 146 507 l 1,9,-1
 146 178 l 2,10,11
 146 123 146 123 174 94 c 128,-1,12
 202 65 202 65 250 65 c 0,13,14
 313 65 313 65 350.5 109 c 128,-1,15
 388 153 388 153 388 228 c 2,16,-1
 388 507 l 1,17,-1
 467 507 l 1,18,-1
 467 0 l 1,0,-1
304 559 m 1,19,-1
 235 559 l 1,20,-1
 111 715 l 1,21,-1
 206 715 l 1,22,-1
 304 559 l 1,19,-1
EndSplineSet
EndChar

StartChar: uacute
Encoding: 250 250 187
Width: 540
GlyphClass: 2
Flags: W
LayerCount: 2
Fore
SplineSet
467 0 m 1,0,-1
 388 0 l 1,1,-1
 388 88 l 1,2,3
 348 -6 348 -6 229 -6 c 0,4,5
 154 -6 154 -6 110.5 38.5 c 128,-1,6
 67 83 67 83 67 158 c 2,7,-1
 67 507 l 1,8,-1
 146 507 l 1,9,-1
 146 178 l 2,10,11
 146 123 146 123 174 94 c 128,-1,12
 202 65 202 65 250 65 c 0,13,14
 313 65 313 65 350.5 109 c 128,-1,15
 388 153 388 153 388 228 c 2,16,-1
 388 507 l 1,17,-1
 467 507 l 1,18,-1
 467 0 l 1,0,-1
309 560 m 1,19,-1
 240 560 l 1,20,-1
 339 716 l 1,21,-1
 433 716 l 1,22,-1
 309 560 l 1,19,-1
EndSplineSet
EndChar

StartChar: ucircumflex
Encoding: 251 251 188
Width: 540
GlyphClass: 2
Flags: W
LayerCount: 2
Fore
SplineSet
467 0 m 1,0,-1
 388 0 l 1,1,-1
 388 88 l 1,2,3
 348 -6 348 -6 229 -6 c 0,4,5
 154 -6 154 -6 110.5 38.5 c 128,-1,6
 67 83 67 83 67 158 c 2,7,-1
 67 507 l 1,8,-1
 146 507 l 1,9,-1
 146 178 l 2,10,11
 146 123 146 123 174 94 c 128,-1,12
 202 65 202 65 250 65 c 0,13,14
 313 65 313 65 350.5 109 c 128,-1,15
 388 153 388 153 388 228 c 2,16,-1
 388 507 l 1,17,-1
 467 507 l 1,18,-1
 467 0 l 1,0,-1
184 560 m 1,19,-1
 104 560 l 1,20,-1
 231 716 l 1,21,-1
 307 716 l 1,22,-1
 434 560 l 1,23,-1
 354 560 l 1,24,-1
 269 665 l 1,25,-1
 184 560 l 1,19,-1
EndSplineSet
EndChar

StartChar: udieresis
Encoding: 252 252 189
Width: 540
GlyphClass: 2
Flags: W
LayerCount: 2
Fore
SplineSet
467 0 m 1,0,-1
 388 0 l 1,1,-1
 388 88 l 1,2,3
 348 -6 348 -6 229 -6 c 0,4,5
 154 -6 154 -6 110.5 38.5 c 128,-1,6
 67 83 67 83 67 158 c 2,7,-1
 67 507 l 1,8,-1
 146 507 l 1,9,-1
 146 178 l 2,10,11
 146 123 146 123 174 94 c 128,-1,12
 202 65 202 65 250 65 c 0,13,14
 313 65 313 65 350.5 109 c 128,-1,15
 388 153 388 153 388 228 c 2,16,-1
 388 507 l 1,17,-1
 467 507 l 1,18,-1
 467 0 l 1,0,-1
423 637 m 128,-1,20
 423 615 423 615 408 600 c 128,-1,21
 393 585 393 585 371 585 c 128,-1,22
 349 585 349 585 334.5 600 c 128,-1,23
 320 615 320 615 320 637 c 128,-1,24
 320 659 320 659 334.5 673.5 c 128,-1,25
 349 688 349 688 371 688 c 128,-1,26
 393 688 393 688 408 673.5 c 128,-1,19
 423 659 423 659 423 637 c 128,-1,20
221 637 m 128,-1,28
 221 615 221 615 206.5 600 c 128,-1,29
 192 585 192 585 170 585 c 128,-1,30
 148 585 148 585 133 600 c 128,-1,31
 118 615 118 615 118 637 c 128,-1,32
 118 659 118 659 133 673.5 c 128,-1,33
 148 688 148 688 170 688 c 128,-1,34
 192 688 192 688 206.5 673.5 c 128,-1,27
 221 659 221 659 221 637 c 128,-1,28
EndSplineSet
EndChar

StartChar: yacute
Encoding: 253 253 190
Width: 493
GlyphClass: 2
Flags: W
LayerCount: 2
Fore
SplineSet
293 13 m 2,0,1
 254 -90 254 -90 200.5 -132 c 128,-1,2
 147 -174 147 -174 78 -174 c 0,3,4
 52 -174 52 -174 36 -169 c 1,5,-1
 36 -98 l 1,6,7
 51 -102 51 -102 70 -102 c 0,8,9
 171 -102 171 -102 213 13 c 1,10,-1
 8 507 l 1,11,-1
 97 507 l 1,12,-1
 163 340 l 1,13,-1
 252 110 l 1,14,15
 260 136 260 136 332 340 c 2,16,-1
 391 507 l 1,17,-1
 476 507 l 1,18,-1
 293 13 l 2,0,1
291 560 m 1,19,-1
 222 560 l 1,20,-1
 321 716 l 1,21,-1
 415 716 l 1,22,-1
 291 560 l 1,19,-1
EndSplineSet
EndChar

StartChar: thorn
Encoding: 254 254 191
Width: 567
GlyphClass: 2
Flags: W
LayerCount: 2
Fore
SplineSet
151 -197 m 1,0,-1
 73 -197 l 1,1,-1
 73 707 l 1,2,-1
 151 707 l 1,3,-1
 151 430 l 1,4,5
 204 515 204 515 308 515 c 0,6,7
 409 515 409 515 466.5 441.5 c 128,-1,8
 524 368 524 368 524 258 c 0,9,10
 524 141 524 141 463.5 66.5 c 128,-1,11
 403 -8 403 -8 306 -8 c 0,12,13
 206 -8 206 -8 151 77 c 1,14,-1
 151 -197 l 1,0,-1
151 253 m 0,15,16
 151 156 151 156 196 110 c 128,-1,17
 241 64 241 64 296 64 c 0,18,19
 360 64 360 64 401 114.5 c 128,-1,20
 442 165 442 165 442 258 c 0,21,22
 442 341 442 341 402 392 c 128,-1,23
 362 443 362 443 301 443 c 128,-1,24
 240 443 240 443 195.5 398.5 c 128,-1,25
 151 354 151 354 151 253 c 0,15,16
EndSplineSet
EndChar

StartChar: ydieresis
Encoding: 255 255 192
Width: 493
GlyphClass: 2
Flags: W
LayerCount: 2
Fore
SplineSet
293 13 m 2,0,1
 254 -90 254 -90 200.5 -132 c 128,-1,2
 147 -174 147 -174 78 -174 c 0,3,4
 52 -174 52 -174 36 -169 c 1,5,-1
 36 -98 l 1,6,7
 51 -102 51 -102 70 -102 c 0,8,9
 171 -102 171 -102 213 13 c 1,10,-1
 8 507 l 1,11,-1
 97 507 l 1,12,-1
 163 340 l 1,13,-1
 252 110 l 1,14,15
 260 136 260 136 332 340 c 2,16,-1
 391 507 l 1,17,-1
 476 507 l 1,18,-1
 293 13 l 2,0,1
408 637 m 128,-1,20
 408 615 408 615 393 600 c 128,-1,21
 378 585 378 585 356 585 c 128,-1,22
 334 585 334 585 319.5 600 c 128,-1,23
 305 615 305 615 305 637 c 128,-1,24
 305 659 305 659 319.5 673.5 c 128,-1,25
 334 688 334 688 356 688 c 128,-1,26
 378 688 378 688 393 673.5 c 128,-1,19
 408 659 408 659 408 637 c 128,-1,20
206 637 m 128,-1,28
 206 615 206 615 191.5 600 c 128,-1,29
 177 585 177 585 155 585 c 128,-1,30
 133 585 133 585 118 600 c 128,-1,31
 103 615 103 615 103 637 c 128,-1,32
 103 659 103 659 118 673.5 c 128,-1,33
 133 688 133 688 155 688 c 128,-1,34
 177 688 177 688 191.5 673.5 c 128,-1,27
 206 659 206 659 206 637 c 128,-1,28
EndSplineSet
EndChar

StartChar: Amacron
Encoding: 256 256 193
Width: 648
GlyphClass: 2
Flags: W
LayerCount: 2
Fore
SplineSet
218 284 m 2,0,-1
 205 246 l 1,1,-1
 444 246 l 1,2,-1
 431 285 l 1,3,-1
 326 609 l 1,4,5
 314 566 314 566 218 284 c 2,0,-1
122 0 m 1,6,-1
 35 0 l 1,7,-1
 270 674 l 1,8,-1
 382 674 l 1,9,-1
 613 0 l 1,10,-1
 526 0 l 1,11,-1
 467 177 l 1,12,-1
 182 177 l 1,13,-1
 122 0 l 1,6,-1
468 777 m 1,14,-1
 186 777 l 1,15,-1
 186 833 l 1,16,-1
 468 833 l 1,17,-1
 468 777 l 1,14,-1
EndSplineSet
EndChar

StartChar: amacron
Encoding: 257 257 194
Width: 492
GlyphClass: 2
Flags: W
LayerCount: 2
Fore
SplineSet
228 61 m 0,0,1
 282 61 282 61 314 91.5 c 128,-1,2
 346 122 346 122 346 169 c 2,3,-1
 346 234 l 1,4,-1
 258 234 l 2,5,6
 194 234 194 234 162 209 c 128,-1,7
 130 184 130 184 130 146 c 128,-1,8
 130 108 130 108 155 84.5 c 128,-1,9
 180 61 180 61 228 61 c 0,0,1
347 60 m 1,10,11
 308 -5 308 -5 205 -5 c 0,12,13
 134 -5 134 -5 90.5 37 c 128,-1,14
 47 79 47 79 47 143 c 0,15,16
 47 216 47 216 102.5 256.5 c 128,-1,17
 158 297 158 297 254 297 c 2,18,-1
 346 297 l 1,19,-1
 346 323 l 2,20,21
 346 383 346 383 319 413.5 c 128,-1,22
 292 444 292 444 228 444 c 0,23,24
 147 444 147 444 84 401 c 1,25,-1
 84 480 l 1,26,27
 141 515 141 515 234 515 c 0,28,29
 425 515 425 515 425 321 c 2,30,-1
 425 0 l 1,31,-1
 347 0 l 1,32,-1
 347 60 l 1,10,11
388 610 m 1,33,-1
 106 610 l 1,34,-1
 106 666 l 1,35,-1
 388 666 l 1,36,-1
 388 610 l 1,33,-1
EndSplineSet
EndChar

StartChar: Abreve
Encoding: 258 258 195
Width: 648
GlyphClass: 2
Flags: W
LayerCount: 2
Fore
SplineSet
218 284 m 2,0,-1
 205 246 l 1,1,-1
 444 246 l 1,2,-1
 431 285 l 1,3,-1
 326 609 l 1,4,5
 314 566 314 566 218 284 c 2,0,-1
122 0 m 1,6,-1
 35 0 l 1,7,-1
 270 674 l 1,8,-1
 382 674 l 1,9,-1
 613 0 l 1,10,-1
 526 0 l 1,11,-1
 467 177 l 1,12,-1
 182 177 l 1,13,-1
 122 0 l 1,6,-1
490 882 m 1,14,15
 490 809 490 809 449 766 c 128,-1,16
 408 723 408 723 326 723 c 128,-1,17
 244 723 244 723 202.5 766 c 128,-1,18
 161 809 161 809 161 882 c 1,19,-1
 226 882 l 1,20,21
 226 836 226 836 250 808 c 128,-1,22
 274 780 274 780 326 780 c 0,23,24
 377 780 377 780 401 808 c 128,-1,25
 425 836 425 836 425 882 c 1,26,-1
 490 882 l 1,14,15
EndSplineSet
EndChar

StartChar: abreve
Encoding: 259 259 196
Width: 492
GlyphClass: 2
Flags: W
LayerCount: 2
Fore
SplineSet
228 61 m 0,0,1
 282 61 282 61 314 91.5 c 128,-1,2
 346 122 346 122 346 169 c 2,3,-1
 346 234 l 1,4,-1
 258 234 l 2,5,6
 194 234 194 234 162 209 c 128,-1,7
 130 184 130 184 130 146 c 128,-1,8
 130 108 130 108 155 84.5 c 128,-1,9
 180 61 180 61 228 61 c 0,0,1
347 60 m 1,10,11
 308 -5 308 -5 205 -5 c 0,12,13
 134 -5 134 -5 90.5 37 c 128,-1,14
 47 79 47 79 47 143 c 0,15,16
 47 216 47 216 102.5 256.5 c 128,-1,17
 158 297 158 297 254 297 c 2,18,-1
 346 297 l 1,19,-1
 346 323 l 2,20,21
 346 383 346 383 319 413.5 c 128,-1,22
 292 444 292 444 228 444 c 0,23,24
 147 444 147 444 84 401 c 1,25,-1
 84 480 l 1,26,27
 141 515 141 515 234 515 c 0,28,29
 425 515 425 515 425 321 c 2,30,-1
 425 0 l 1,31,-1
 347 0 l 1,32,-1
 347 60 l 1,10,11
414 715 m 1,33,34
 414 642 414 642 373 599 c 128,-1,35
 332 556 332 556 250 556 c 128,-1,36
 168 556 168 556 126.5 599 c 128,-1,37
 85 642 85 642 85 715 c 1,38,-1
 150 715 l 1,39,40
 150 669 150 669 174 641 c 128,-1,41
 198 613 198 613 250 613 c 0,42,43
 301 613 301 613 325 641 c 128,-1,44
 349 669 349 669 349 715 c 1,45,-1
 414 715 l 1,33,34
EndSplineSet
EndChar

StartChar: Aogonek
Encoding: 260 260 197
Width: 646
GlyphClass: 2
Flags: W
LayerCount: 2
Fore
SplineSet
217 284 m 2,0,-1
 204 246 l 1,1,-1
 443 246 l 1,2,-1
 430 285 l 1,3,-1
 325 609 l 1,4,5
 313 566 313 566 217 284 c 2,0,-1
633 -222 m 1,6,7
 602 -242 602 -242 554 -242 c 0,8,9
 495 -242 495 -242 463 -211 c 128,-1,10
 431 -180 431 -180 431 -132 c 0,11,12
 431 -48 431 -48 522 10 c 1,13,-1
 466 177 l 1,14,-1
 181 177 l 1,15,-1
 121 0 l 1,16,-1
 34 0 l 1,17,-1
 269 674 l 1,18,-1
 381 674 l 1,19,-1
 612 0 l 1,20,21
 500 -55 500 -55 500 -125 c 0,22,23
 500 -154 500 -154 517 -169 c 128,-1,24
 534 -184 534 -184 564 -184 c 0,25,26
 602 -184 602 -184 633 -162 c 1,27,-1
 633 -222 l 1,6,7
EndSplineSet
EndChar

StartChar: aogonek
Encoding: 261 261 198
Width: 491
GlyphClass: 2
Flags: W
LayerCount: 2
Fore
SplineSet
228 64 m 0,0,1
 279 64 279 64 312.5 93 c 128,-1,2
 346 122 346 122 346 162 c 2,3,-1
 346 232 l 1,4,-1
 271 232 l 2,5,6
 129 232 129 232 129 145 c 0,7,8
 129 108 129 108 154.5 86 c 128,-1,9
 180 64 180 64 228 64 c 0,0,1
446 -222 m 1,10,11
 415 -242 415 -242 367 -242 c 0,12,13
 308 -242 308 -242 276 -211 c 128,-1,14
 244 -180 244 -180 244 -132 c 0,15,16
 244 -87 244 -87 273 -49 c 128,-1,17
 302 -11 302 -11 347 16 c 1,18,-1
 347 63 l 1,19,20
 296 -5 296 -5 205 -5 c 0,21,22
 134 -5 134 -5 90.5 35.5 c 128,-1,23
 47 76 47 76 47 142 c 0,24,25
 47 216 47 216 103 257 c 128,-1,26
 159 298 159 298 256 298 c 2,27,-1
 346 298 l 1,28,-1
 346 323 l 2,29,30
 346 383 346 383 319 413.5 c 128,-1,31
 292 444 292 444 228 444 c 0,32,33
 148 444 148 444 84 402 c 1,34,-1
 84 479 l 1,35,36
 142 515 142 515 234 515 c 0,37,38
 425 515 425 515 425 321 c 2,39,-1
 425 0 l 1,40,41
 313 -55 313 -55 313 -125 c 0,42,43
 313 -154 313 -154 330 -169 c 128,-1,44
 347 -184 347 -184 377 -184 c 0,45,46
 415 -184 415 -184 446 -162 c 1,47,-1
 446 -222 l 1,10,11
EndSplineSet
EndChar

StartChar: Cacute
Encoding: 262 262 199
Width: 602
GlyphClass: 2
Flags: W
LayerCount: 2
Fore
SplineSet
560 34 m 1,0,1
 498 -8 498 -8 390 -8 c 0,2,3
 238 -8 238 -8 143 85.5 c 128,-1,4
 48 179 48 179 48 340 c 0,5,6
 48 492 48 492 144.5 587.5 c 128,-1,7
 241 683 241 683 387 683 c 0,8,9
 492 683 492 683 558 647 c 1,10,-1
 558 564 l 1,11,12
 514 587 514 587 479 597 c 128,-1,13
 444 607 444 607 387 607 c 0,14,15
 278 607 278 607 205.5 533 c 128,-1,16
 133 459 133 459 133 340 c 0,17,18
 133 216 133 216 205 142 c 128,-1,19
 277 68 277 68 396 68 c 0,20,21
 492 68 492 68 560 119 c 1,22,-1
 560 34 l 1,0,1
399 727 m 1,23,-1
 330 727 l 1,24,-1
 429 883 l 1,25,-1
 523 883 l 1,26,-1
 399 727 l 1,23,-1
EndSplineSet
EndChar

StartChar: cacute
Encoding: 263 263 200
Width: 471
GlyphClass: 2
Flags: W
LayerCount: 2
Fore
SplineSet
422 18 m 1,0,1
 374 -11 374 -11 304 -11 c 0,2,3
 184 -11 184 -11 113.5 65.5 c 128,-1,4
 43 142 43 142 43 252 c 0,5,6
 43 360 43 360 113.5 438 c 128,-1,7
 184 516 184 516 306 516 c 0,8,9
 371 516 371 516 422 488 c 1,10,-1
 422 413 l 1,11,12
 376 444 376 444 314 444 c 0,13,14
 228 444 228 444 176.5 388.5 c 128,-1,15
 125 333 125 333 125 251 c 0,16,17
 126 169 126 169 175 114.5 c 128,-1,18
 224 60 224 60 314 60 c 0,19,20
 372 60 372 60 422 93 c 1,21,-1
 422 18 l 1,0,1
328 559 m 1,22,-1
 259 559 l 1,23,-1
 358 715 l 1,24,-1
 452 715 l 1,25,-1
 328 559 l 1,22,-1
EndSplineSet
EndChar

StartChar: Ccaron
Encoding: 268 268 201
Width: 602
GlyphClass: 2
Flags: W
LayerCount: 2
Fore
SplineSet
560 34 m 1,0,1
 498 -8 498 -8 390 -8 c 0,2,3
 238 -8 238 -8 143 85.5 c 128,-1,4
 48 179 48 179 48 340 c 0,5,6
 48 492 48 492 144.5 587.5 c 128,-1,7
 241 683 241 683 387 683 c 0,8,9
 492 683 492 683 558 647 c 1,10,-1
 558 564 l 1,11,12
 514 587 514 587 479 597 c 128,-1,13
 444 607 444 607 387 607 c 0,14,15
 278 607 278 607 205.5 533 c 128,-1,16
 133 459 133 459 133 340 c 0,17,18
 133 216 133 216 205 142 c 128,-1,19
 277 68 277 68 396 68 c 0,20,21
 492 68 492 68 560 119 c 1,22,-1
 560 34 l 1,0,1
416 727 m 1,23,-1
 340 727 l 1,24,-1
 213 883 l 1,25,-1
 293 883 l 1,26,-1
 379 778 l 1,27,-1
 463 883 l 1,28,-1
 543 883 l 1,29,-1
 416 727 l 1,23,-1
EndSplineSet
EndChar

StartChar: ccaron
Encoding: 269 269 202
Width: 471
GlyphClass: 2
Flags: W
LayerCount: 2
Fore
SplineSet
422 18 m 1,0,1
 374 -11 374 -11 304 -11 c 0,2,3
 184 -11 184 -11 113.5 65.5 c 128,-1,4
 43 142 43 142 43 252 c 0,5,6
 43 360 43 360 113.5 438 c 128,-1,7
 184 516 184 516 306 516 c 0,8,9
 371 516 371 516 422 488 c 1,10,-1
 422 413 l 1,11,12
 376 444 376 444 314 444 c 0,13,14
 228 444 228 444 176.5 388.5 c 128,-1,15
 125 333 125 333 125 251 c 0,16,17
 126 169 126 169 175 114.5 c 128,-1,18
 224 60 224 60 314 60 c 0,19,20
 372 60 372 60 422 93 c 1,21,-1
 422 18 l 1,0,1
313 560 m 1,22,-1
 237 560 l 1,23,-1
 110 716 l 1,24,-1
 190 716 l 1,25,-1
 276 611 l 1,26,-1
 360 716 l 1,27,-1
 440 716 l 1,28,-1
 313 560 l 1,22,-1
EndSplineSet
EndChar

StartChar: Dcaron
Encoding: 270 270 203
Width: 661
GlyphClass: 2
Flags: W
LayerCount: 2
Fore
SplineSet
281 0 m 2,0,-1
 77 0 l 1,1,-1
 77 674 l 1,2,-1
 277 674 l 2,3,4
 426 674 426 674 521.5 581.5 c 128,-1,5
 617 489 617 489 617 342 c 0,6,7
 617 196 617 196 528.5 98 c 128,-1,8
 440 0 440 0 281 0 c 2,0,-1
276 602 m 2,9,-1
 159 602 l 1,10,-1
 159 71 l 1,11,-1
 280 71 l 2,12,13
 405 71 405 71 469 148.5 c 128,-1,14
 533 226 533 226 533 342 c 0,15,16
 533 452 533 452 461.5 527 c 128,-1,17
 390 602 390 602 276 602 c 2,9,-1
344 726 m 1,18,-1
 268 726 l 1,19,-1
 141 882 l 1,20,-1
 221 882 l 1,21,-1
 307 777 l 1,22,-1
 391 882 l 1,23,-1
 471 882 l 1,24,-1
 344 726 l 1,18,-1
EndSplineSet
EndChar

StartChar: dcaron
Encoding: 271 271 204
Width: 660
GlyphClass: 2
Flags: W
LayerCount: 2
Fore
SplineSet
125 248 m 0,0,1
 125 166 125 166 165 115 c 128,-1,2
 205 64 205 64 266 64 c 0,3,4
 328 64 328 64 371.5 110 c 128,-1,5
 415 156 415 156 415 257 c 0,6,7
 415 353 415 353 370 398 c 128,-1,8
 325 443 325 443 271 443 c 0,9,10
 208 443 208 443 166.5 392.5 c 128,-1,11
 125 342 125 342 125 248 c 0,0,1
494 0 m 1,12,-1
 415 0 l 1,13,-1
 415 75 l 1,14,15
 361 -8 361 -8 259 -8 c 0,16,17
 158 -8 158 -8 100.5 67 c 128,-1,18
 43 142 43 142 43 249 c 0,19,20
 43 368 43 368 104 441.5 c 128,-1,21
 165 515 165 515 261 515 c 0,22,23
 360 515 360 515 415 430 c 1,24,-1
 415 707 l 1,25,-1
 494 707 l 1,26,-1
 494 0 l 1,12,-1
617 515 m 1,27,-1
 552 515 l 1,28,-1
 636 707 l 1,29,-1
 728 707 l 1,30,-1
 617 515 l 1,27,-1
EndSplineSet
EndChar

StartChar: Dcroat
Encoding: 272 272 205
Width: 730
GlyphClass: 2
Flags: W
LayerCount: 2
Fore
SplineSet
350 0 m 2,0,-1
 146 0 l 1,1,-1
 146 304 l 1,2,-1
 61 304 l 1,3,-1
 61 372 l 1,4,-1
 146 372 l 1,5,-1
 146 674 l 1,6,-1
 346 674 l 2,7,8
 496 674 496 674 591 581.5 c 128,-1,9
 686 489 686 489 686 342 c 0,10,11
 686 196 686 196 597.5 98 c 128,-1,12
 509 0 509 0 350 0 c 2,0,-1
403 304 m 1,13,-1
 228 304 l 1,14,-1
 228 71 l 1,15,-1
 350 71 l 2,16,17
 414 71 414 71 463.5 93 c 128,-1,18
 513 115 513 115 542.5 153.5 c 128,-1,19
 572 192 572 192 587 239.5 c 128,-1,20
 602 287 602 287 602 342 c 0,21,22
 602 452 602 452 531 527 c 128,-1,23
 460 602 460 602 345 602 c 2,24,-1
 228 602 l 1,25,-1
 228 372 l 1,26,-1
 403 372 l 1,27,-1
 403 304 l 1,13,-1
EndSplineSet
EndChar

StartChar: dcroat
Encoding: 273 273 206
Width: 567
GlyphClass: 2
Flags: W
LayerCount: 2
Fore
SplineSet
125 248 m 0,0,1
 125 166 125 166 165 115 c 128,-1,2
 205 64 205 64 266 64 c 0,3,4
 328 64 328 64 371.5 110 c 128,-1,5
 415 156 415 156 415 257 c 0,6,7
 415 353 415 353 370 398 c 128,-1,8
 325 443 325 443 271 443 c 0,9,10
 208 443 208 443 166.5 392.5 c 128,-1,11
 125 342 125 342 125 248 c 0,0,1
494 0 m 1,12,-1
 415 0 l 1,13,-1
 415 75 l 1,14,15
 361 -8 361 -8 259 -8 c 0,16,17
 158 -8 158 -8 100.5 67 c 128,-1,18
 43 142 43 142 43 249 c 0,19,20
 43 368 43 368 104 441.5 c 128,-1,21
 165 515 165 515 261 515 c 0,22,23
 360 515 360 515 415 430 c 1,24,-1
 415 587 l 1,25,-1
 222 587 l 1,26,-1
 222 642 l 1,27,-1
 415 642 l 1,28,-1
 415 707 l 1,29,-1
 494 707 l 1,30,-1
 494 642 l 1,31,-1
 565 642 l 1,32,-1
 565 587 l 1,33,-1
 494 587 l 1,34,-1
 494 0 l 1,12,-1
EndSplineSet
EndChar

StartChar: Emacron
Encoding: 274 274 207
Width: 501
GlyphClass: 2
Flags: W
LayerCount: 2
Fore
SplineSet
453 0 m 1,0,-1
 77 0 l 1,1,-1
 77 674 l 1,2,-1
 448 674 l 1,3,-1
 448 603 l 1,4,-1
 158 603 l 1,5,-1
 158 372 l 1,6,-1
 414 372 l 1,7,-1
 414 301 l 1,8,-1
 158 301 l 1,9,-1
 158 71 l 1,10,-1
 453 71 l 1,11,-1
 453 0 l 1,0,-1
404 778 m 1,12,-1
 122 778 l 1,13,-1
 122 834 l 1,14,-1
 404 834 l 1,15,-1
 404 778 l 1,12,-1
EndSplineSet
EndChar

StartChar: emacron
Encoding: 275 275 208
Width: 522
GlyphClass: 2
Flags: W
LayerCount: 2
Fore
SplineSet
443 26 m 1,0,1
 384 -5 384 -5 299 -5 c 0,2,3
 184 -5 184 -5 113.5 65.5 c 128,-1,4
 43 136 43 136 43 252 c 0,5,6
 43 373 43 373 106 443 c 128,-1,7
 169 513 169 513 268 513 c 0,8,9
 363 513 363 513 419 452 c 128,-1,10
 475 391 475 391 475 279 c 0,11,12
 475 247 475 247 470 220 c 1,13,-1
 124 220 l 1,14,15
 133 145 133 145 181 105 c 128,-1,16
 229 65 229 65 307 65 c 0,17,18
 392 65 392 65 443 100 c 1,19,-1
 443 26 l 1,0,1
268 444 m 0,20,21
 211 444 211 444 171 403 c 128,-1,22
 131 362 131 362 124 286 c 1,23,-1
 396 286 l 1,24,-1
 396 306 l 2,25,26
 396 369 396 369 362 406.5 c 128,-1,27
 328 444 328 444 268 444 c 0,20,21
417 610 m 1,28,-1
 135 610 l 1,29,-1
 135 666 l 1,30,-1
 417 666 l 1,31,-1
 417 610 l 1,28,-1
EndSplineSet
EndChar

StartChar: Edotaccent
Encoding: 278 278 209
Width: 501
GlyphClass: 2
Flags: W
LayerCount: 2
Fore
SplineSet
453 0 m 1,0,-1
 77 0 l 1,1,-1
 77 674 l 1,2,-1
 448 674 l 1,3,-1
 448 603 l 1,4,-1
 158 603 l 1,5,-1
 158 372 l 1,6,-1
 414 372 l 1,7,-1
 414 301 l 1,8,-1
 158 301 l 1,9,-1
 158 71 l 1,10,-1
 453 71 l 1,11,-1
 453 0 l 1,0,-1
326 807 m 128,-1,13
 326 785 326 785 311.5 770 c 128,-1,14
 297 755 297 755 275 755 c 128,-1,15
 253 755 253 755 238 770 c 128,-1,16
 223 785 223 785 223 807 c 128,-1,17
 223 829 223 829 238 843.5 c 128,-1,18
 253 858 253 858 275 858 c 128,-1,19
 297 858 297 858 311.5 843.5 c 128,-1,12
 326 829 326 829 326 807 c 128,-1,13
EndSplineSet
EndChar

StartChar: edotaccent
Encoding: 279 279 210
Width: 522
GlyphClass: 2
Flags: W
LayerCount: 2
Fore
SplineSet
443 26 m 1,0,1
 384 -5 384 -5 299 -5 c 0,2,3
 184 -5 184 -5 113.5 65.5 c 128,-1,4
 43 136 43 136 43 252 c 0,5,6
 43 373 43 373 106 443 c 128,-1,7
 169 513 169 513 268 513 c 0,8,9
 363 513 363 513 419 452 c 128,-1,10
 475 391 475 391 475 279 c 0,11,12
 475 247 475 247 470 220 c 1,13,-1
 124 220 l 1,14,15
 133 145 133 145 181 105 c 128,-1,16
 229 65 229 65 307 65 c 0,17,18
 392 65 392 65 443 100 c 1,19,-1
 443 26 l 1,0,1
268 444 m 0,20,21
 211 444 211 444 171 403 c 128,-1,22
 131 362 131 362 124 286 c 1,23,-1
 396 286 l 1,24,-1
 396 306 l 2,25,26
 396 369 396 369 362 406.5 c 128,-1,27
 328 444 328 444 268 444 c 0,20,21
333 639 m 128,-1,29
 333 617 333 617 318.5 602 c 128,-1,30
 304 587 304 587 282 587 c 128,-1,31
 260 587 260 587 245 602 c 128,-1,32
 230 617 230 617 230 639 c 128,-1,33
 230 661 230 661 245 675.5 c 128,-1,34
 260 690 260 690 282 690 c 128,-1,35
 304 690 304 690 318.5 675.5 c 128,-1,28
 333 661 333 661 333 639 c 128,-1,29
EndSplineSet
EndChar

StartChar: Eogonek
Encoding: 280 280 211
Width: 501
GlyphClass: 2
Flags: W
LayerCount: 2
Fore
SplineSet
384 -223 m 1,0,1
 352 -242 352 -242 305 -242 c 0,2,3
 247 -242 247 -242 215 -211 c 128,-1,4
 183 -180 183 -180 183 -132 c 0,5,6
 183 -58 183 -58 261 0 c 1,7,-1
 77 0 l 1,8,-1
 77 674 l 1,9,-1
 448 674 l 1,10,-1
 448 603 l 1,11,-1
 158 603 l 1,12,-1
 158 372 l 1,13,-1
 414 372 l 1,14,-1
 414 301 l 1,15,-1
 158 301 l 1,16,-1
 158 71 l 1,17,-1
 453 71 l 1,18,-1
 453 0 l 1,19,-1
 364 0 l 1,20,21
 251 -56 251 -56 251 -125 c 0,22,23
 251 -154 251 -154 268.5 -169 c 128,-1,24
 286 -184 286 -184 316 -184 c 0,25,26
 355 -184 355 -184 384 -162 c 1,27,-1
 384 -223 l 1,0,1
EndSplineSet
EndChar

StartChar: eogonek
Encoding: 281 281 212
Width: 522
GlyphClass: 2
Flags: W
LayerCount: 2
Fore
SplineSet
268 444 m 0,0,1
 211 444 211 444 171 403 c 128,-1,2
 131 362 131 362 124 286 c 1,3,-1
 396 286 l 1,4,-1
 396 306 l 2,5,6
 396 369 396 369 362 406.5 c 128,-1,7
 328 444 328 444 268 444 c 0,0,1
386 -219 m 1,8,9
 354 -238 354 -238 307 -238 c 0,10,11
 249 -238 249 -238 217 -207 c 128,-1,12
 185 -176 185 -176 185 -128 c 0,13,14
 185 -59 185 -59 255 -2 c 1,15,16
 158 12 158 12 100.5 80 c 128,-1,17
 43 148 43 148 43 252 c 0,18,19
 43 373 43 373 106 443 c 128,-1,20
 169 513 169 513 268 513 c 0,21,22
 363 513 363 513 419 452 c 128,-1,23
 475 391 475 391 475 279 c 0,24,25
 475 247 475 247 470 220 c 1,26,-1
 124 220 l 1,27,28
 133 145 133 145 181 105 c 128,-1,29
 229 65 229 65 307 65 c 0,30,31
 392 65 392 65 443 100 c 1,32,-1
 443 26 l 1,33,34
 409 8 409 8 358 0 c 1,35,36
 253 -55 253 -55 253 -121 c 0,37,38
 253 -150 253 -150 270.5 -165 c 128,-1,39
 288 -180 288 -180 318 -180 c 0,40,41
 357 -180 357 -180 386 -158 c 1,42,-1
 386 -219 l 1,8,9
EndSplineSet
EndChar

StartChar: Ecaron
Encoding: 282 282 213
Width: 501
GlyphClass: 2
Flags: W
LayerCount: 2
Fore
SplineSet
453 0 m 1,0,-1
 77 0 l 1,1,-1
 77 674 l 1,2,-1
 448 674 l 1,3,-1
 448 603 l 1,4,-1
 158 603 l 1,5,-1
 158 372 l 1,6,-1
 414 372 l 1,7,-1
 414 301 l 1,8,-1
 158 301 l 1,9,-1
 158 71 l 1,10,-1
 453 71 l 1,11,-1
 453 0 l 1,0,-1
309 726 m 1,12,-1
 233 726 l 1,13,-1
 106 882 l 1,14,-1
 186 882 l 1,15,-1
 272 777 l 1,16,-1
 356 882 l 1,17,-1
 436 882 l 1,18,-1
 309 726 l 1,12,-1
EndSplineSet
EndChar

StartChar: ecaron
Encoding: 283 283 214
Width: 522
GlyphClass: 2
Flags: W
LayerCount: 2
Fore
SplineSet
443 26 m 1,0,1
 384 -5 384 -5 299 -5 c 0,2,3
 184 -5 184 -5 113.5 65.5 c 128,-1,4
 43 136 43 136 43 252 c 0,5,6
 43 373 43 373 106 443 c 128,-1,7
 169 513 169 513 268 513 c 0,8,9
 363 513 363 513 419 452 c 128,-1,10
 475 391 475 391 475 279 c 0,11,12
 475 247 475 247 470 220 c 1,13,-1
 124 220 l 1,14,15
 133 145 133 145 181 105 c 128,-1,16
 229 65 229 65 307 65 c 0,17,18
 392 65 392 65 443 100 c 1,19,-1
 443 26 l 1,0,1
268 444 m 0,20,21
 211 444 211 444 171 403 c 128,-1,22
 131 362 131 362 124 286 c 1,23,-1
 396 286 l 1,24,-1
 396 306 l 2,25,26
 396 369 396 369 362 406.5 c 128,-1,27
 328 444 328 444 268 444 c 0,20,21
312 560 m 1,28,-1
 236 560 l 1,29,-1
 109 716 l 1,30,-1
 189 716 l 1,31,-1
 275 611 l 1,32,-1
 359 716 l 1,33,-1
 439 716 l 1,34,-1
 312 560 l 1,28,-1
EndSplineSet
EndChar

StartChar: Gbreve
Encoding: 286 286 215
Width: 670
GlyphClass: 2
Flags: W
LayerCount: 2
Fore
SplineSet
603 53 m 1,0,1
 522 -8 522 -8 394 -8 c 0,2,3
 238 -8 238 -8 143 84.5 c 128,-1,4
 48 177 48 177 48 338 c 0,5,6
 48 491 48 491 142.5 588.5 c 128,-1,7
 237 686 237 686 381 686 c 0,8,9
 500 686 500 686 578 640 c 1,10,-1
 578 553 l 1,11,12
 496 607 496 607 388 607 c 0,13,14
 275 607 275 607 204 533.5 c 128,-1,15
 133 460 133 460 133 338 c 0,16,17
 133 213 133 213 203 141.5 c 128,-1,18
 273 70 273 70 396 70 c 0,19,20
 464 70 464 70 522 97 c 1,21,-1
 522 307 l 1,22,-1
 374 307 l 1,23,-1
 374 378 l 1,24,-1
 603 378 l 1,25,-1
 603 56 l 1,26,-1
 602 56 l 1,27,-1
 603 53 l 1,0,1
533 883 m 1,28,29
 533 810 533 810 492 767 c 128,-1,30
 451 724 451 724 369 724 c 128,-1,31
 287 724 287 724 245.5 767 c 128,-1,32
 204 810 204 810 204 883 c 1,33,-1
 269 883 l 1,34,35
 269 837 269 837 293 809 c 128,-1,36
 317 781 317 781 369 781 c 0,37,38
 420 781 420 781 444 809 c 128,-1,39
 468 837 468 837 468 883 c 1,40,-1
 533 883 l 1,28,29
EndSplineSet
EndChar

StartChar: gbreve
Encoding: 287 287 216
Width: 549
GlyphClass: 2
Flags: W
LayerCount: 2
Fore
SplineSet
482 41 m 2,0,1
 482 -75 482 -75 418 -133.5 c 128,-1,2
 354 -192 354 -192 253 -192 c 0,3,4
 161 -192 161 -192 96 -161 c 1,5,-1
 96 -82 l 1,6,7
 160 -119 160 -119 246 -119 c 0,8,9
 319 -119 319 -119 361 -80 c 128,-1,10
 403 -41 403 -41 403 42 c 2,11,-1
 403 99 l 1,12,13
 353 13 353 13 254 13 c 0,14,15
 167 13 167 13 105.5 77 c 128,-1,16
 44 141 44 141 44 255 c 0,17,18
 44 368 44 368 101 441 c 128,-1,19
 158 514 158 514 250 514 c 0,20,21
 354 514 354 514 403 423 c 1,22,-1
 403 507 l 1,23,-1
 482 507 l 1,24,-1
 482 41 l 2,0,1
126 257 m 0,25,26
 126 172 126 172 168 127.5 c 128,-1,27
 210 83 210 83 263 83 c 0,28,29
 318 83 318 83 360.5 125.5 c 128,-1,30
 403 168 403 168 403 252 c 0,31,32
 403 349 403 349 362 396 c 128,-1,33
 321 443 321 443 267 443 c 0,34,35
 202 443 202 443 164 391.5 c 128,-1,36
 126 340 126 340 126 257 c 0,25,26
456 716 m 1,37,38
 456 643 456 643 415 600 c 128,-1,39
 374 557 374 557 292 557 c 128,-1,40
 210 557 210 557 168.5 600 c 128,-1,41
 127 643 127 643 127 716 c 1,42,-1
 192 716 l 1,43,44
 192 670 192 670 216 642 c 128,-1,45
 240 614 240 614 292 614 c 0,46,47
 343 614 343 614 367 642 c 128,-1,48
 391 670 391 670 391 716 c 1,49,-1
 456 716 l 1,37,38
EndSplineSet
EndChar

StartChar: uni0122
Encoding: 290 290 217
Width: 670
GlyphClass: 2
Flags: W
LayerCount: 2
Fore
SplineSet
603 53 m 1,0,1
 522 -8 522 -8 394 -8 c 0,2,3
 238 -8 238 -8 143 84.5 c 128,-1,4
 48 177 48 177 48 338 c 0,5,6
 48 491 48 491 142.5 588.5 c 128,-1,7
 237 686 237 686 381 686 c 0,8,9
 500 686 500 686 578 640 c 1,10,-1
 578 553 l 1,11,12
 496 607 496 607 388 607 c 0,13,14
 275 607 275 607 204 533.5 c 128,-1,15
 133 460 133 460 133 338 c 0,16,17
 133 213 133 213 203 141.5 c 128,-1,18
 273 70 273 70 396 70 c 0,19,20
 464 70 464 70 522 97 c 1,21,-1
 522 307 l 1,22,-1
 374 307 l 1,23,-1
 374 378 l 1,24,-1
 603 378 l 1,25,-1
 603 56 l 1,26,-1
 602 56 l 1,27,-1
 603 53 l 1,0,1
310 -243 m 1,28,-1
 245 -243 l 1,29,-1
 329 -51 l 1,30,-1
 421 -51 l 1,31,-1
 310 -243 l 1,28,-1
EndSplineSet
EndChar

StartChar: uni0123
Encoding: 291 291 218
Width: 549
GlyphClass: 2
Flags: W
LayerCount: 2
Fore
SplineSet
482 41 m 2,0,1
 482 -75 482 -75 418 -133.5 c 128,-1,2
 354 -192 354 -192 253 -192 c 0,3,4
 161 -192 161 -192 96 -161 c 1,5,-1
 96 -82 l 1,6,7
 160 -119 160 -119 246 -119 c 0,8,9
 319 -119 319 -119 361 -80 c 128,-1,10
 403 -41 403 -41 403 42 c 2,11,-1
 403 99 l 1,12,13
 353 13 353 13 254 13 c 0,14,15
 167 13 167 13 105.5 77 c 128,-1,16
 44 141 44 141 44 255 c 0,17,18
 44 368 44 368 101 441 c 128,-1,19
 158 514 158 514 250 514 c 0,20,21
 354 514 354 514 403 423 c 1,22,-1
 403 507 l 1,23,-1
 482 507 l 1,24,-1
 482 41 l 2,0,1
126 257 m 0,25,26
 126 172 126 172 168 127.5 c 128,-1,27
 210 83 210 83 263 83 c 0,28,29
 318 83 318 83 360.5 125.5 c 128,-1,30
 403 168 403 168 403 252 c 0,31,32
 403 349 403 349 362 396 c 128,-1,33
 321 443 321 443 267 443 c 0,34,35
 202 443 202 443 164 391.5 c 128,-1,36
 126 340 126 340 126 257 c 0,25,26
353 560 m 1,37,-1
 262 560 l 1,38,-1
 373 752 l 1,39,-1
 438 752 l 1,40,-1
 353 560 l 1,37,-1
EndSplineSet
EndChar

StartChar: Imacron
Encoding: 298 298 219
Width: 247
GlyphClass: 2
Flags: W
LayerCount: 2
Fore
SplineSet
164 0 m 1,0,-1
 83 0 l 1,1,-1
 83 674 l 1,2,-1
 164 674 l 1,3,-1
 164 0 l 1,0,-1
265 777 m 1,4,-1
 -17 777 l 1,5,-1
 -17 833 l 1,6,-1
 265 833 l 1,7,-1
 265 777 l 1,4,-1
EndSplineSet
EndChar

StartChar: imacron
Encoding: 299 299 220
Width: 233
GlyphClass: 2
Flags: W
LayerCount: 2
Fore
SplineSet
156 0 m 1,0,-1
 77 0 l 1,1,-1
 77 507 l 1,2,-1
 156 507 l 1,3,-1
 156 0 l 1,0,-1
258 610 m 1,4,-1
 -24 610 l 1,5,-1
 -24 666 l 1,6,-1
 258 666 l 1,7,-1
 258 610 l 1,4,-1
EndSplineSet
EndChar

StartChar: Iogonek
Encoding: 302 302 221
Width: 247
GlyphClass: 2
Flags: W
LayerCount: 2
Fore
SplineSet
185 -223 m 1,0,1
 153 -242 153 -242 106 -242 c 0,2,3
 48 -242 48 -242 16 -211 c 128,-1,4
 -16 -180 -16 -180 -16 -132 c 0,5,6
 -16 -46 -16 -46 83 14 c 1,7,-1
 83 674 l 1,8,-1
 164 674 l 1,9,-1
 164 1 l 1,10,-1
 165 0 l 1,11,12
 52 -56 52 -56 52 -125 c 0,13,14
 52 -154 52 -154 69.5 -169 c 128,-1,15
 87 -184 87 -184 117 -184 c 0,16,17
 156 -184 156 -184 185 -162 c 1,18,-1
 185 -223 l 1,0,1
EndSplineSet
EndChar

StartChar: iogonek
Encoding: 303 303 222
Width: 233
GlyphClass: 2
Flags: W
LayerCount: 2
Fore
SplineSet
168 666 m 128,-1,1
 168 644 168 644 153 629.5 c 128,-1,2
 138 615 138 615 116 615 c 128,-1,3
 94 615 94 615 79.5 629.5 c 128,-1,4
 65 644 65 644 65 666 c 128,-1,5
 65 688 65 688 79.5 703 c 128,-1,6
 94 718 94 718 116 718 c 128,-1,7
 138 718 138 718 153 703 c 128,-1,0
 168 688 168 688 168 666 c 128,-1,1
176 -223 m 1,8,9
 144 -242 144 -242 97 -242 c 0,10,11
 39 -242 39 -242 7 -211 c 128,-1,12
 -25 -180 -25 -180 -25 -132 c 0,13,14
 -25 -87 -25 -87 3.5 -48.5 c 128,-1,15
 32 -10 32 -10 77 16 c 1,16,-1
 77 507 l 1,17,-1
 156 507 l 1,18,-1
 156 0 l 1,19,20
 43 -56 43 -56 43 -125 c 0,21,22
 43 -154 43 -154 60.5 -169 c 128,-1,23
 78 -184 78 -184 108 -184 c 0,24,25
 147 -184 147 -184 176 -162 c 1,26,-1
 176 -223 l 1,8,9
EndSplineSet
EndChar

StartChar: Idotaccent
Encoding: 304 304 223
Width: 247
GlyphClass: 2
Flags: W
LayerCount: 2
Fore
SplineSet
164 0 m 1,0,-1
 83 0 l 1,1,-1
 83 674 l 1,2,-1
 164 674 l 1,3,-1
 164 0 l 1,0,-1
176 808 m 128,-1,5
 176 786 176 786 161.5 771 c 128,-1,6
 147 756 147 756 125 756 c 128,-1,7
 103 756 103 756 88 771 c 128,-1,8
 73 786 73 786 73 808 c 128,-1,9
 73 830 73 830 88 844.5 c 128,-1,10
 103 859 103 859 125 859 c 128,-1,11
 147 859 147 859 161.5 844.5 c 128,-1,4
 176 830 176 830 176 808 c 128,-1,5
EndSplineSet
EndChar

StartChar: dotlessi
Encoding: 305 305 224
Width: 233
GlyphClass: 2
Flags: W
LayerCount: 2
Fore
SplineSet
156 0 m 1,0,-1
 77 0 l 1,1,-1
 77 507 l 1,2,-1
 156 507 l 1,3,-1
 156 0 l 1,0,-1
EndSplineSet
EndChar

StartChar: uni0136
Encoding: 310 310 225
Width: 573
GlyphClass: 2
Flags: W
LayerCount: 2
Fore
SplineSet
545 0 m 1,0,-1
 440 0 l 1,1,-1
 174 333 l 1,2,-1
 431 674 l 1,3,-1
 531 674 l 1,4,-1
 274 333 l 1,5,-1
 545 0 l 1,0,-1
230 -243 m 1,6,-1
 165 -243 l 1,7,-1
 250 -51 l 1,8,-1
 341 -51 l 1,9,-1
 230 -243 l 1,6,-1
158 0 m 1,10,-1
 77 0 l 1,11,-1
 77 674 l 1,12,-1
 158 674 l 1,13,-1
 158 0 l 1,10,-1
EndSplineSet
EndChar

StartChar: uni0137
Encoding: 311 311 226
Width: 480
GlyphClass: 2
Flags: W
LayerCount: 2
Fore
SplineSet
151 0 m 1,0,-1
 73 0 l 1,1,-1
 73 703 l 1,2,-1
 151 703 l 1,3,-1
 151 0 l 1,0,-1
254 266 m 1,4,-1
 460 0 l 1,5,-1
 365 0 l 1,6,-1
 161 266 l 1,7,-1
 360 507 l 1,8,-1
 454 507 l 1,9,-1
 254 266 l 1,4,-1
182 -243 m 1,10,-1
 117 -243 l 1,11,-1
 202 -51 l 1,12,-1
 293 -51 l 1,13,-1
 182 -243 l 1,10,-1
EndSplineSet
EndChar

StartChar: Lacute
Encoding: 313 313 227
Width: 477
GlyphClass: 2
Flags: W
LayerCount: 2
Fore
SplineSet
445 0 m 1,0,-1
 77 0 l 1,1,-1
 77 674 l 1,2,-1
 158 674 l 1,3,-1
 158 73 l 1,4,-1
 445 73 l 1,5,-1
 445 0 l 1,0,-1
324 727 m 1,6,-1
 255 727 l 1,7,-1
 354 883 l 1,8,-1
 448 883 l 1,9,-1
 324 727 l 1,6,-1
EndSplineSet
EndChar

StartChar: lacute
Encoding: 314 314 228
Width: 233
GlyphClass: 2
Flags: W
LayerCount: 2
Fore
SplineSet
156 0 m 1,0,-1
 77 0 l 1,1,-1
 77 707 l 1,2,-1
 156 707 l 1,3,-1
 156 0 l 1,0,-1
153 760 m 1,4,-1
 84 760 l 1,5,-1
 183 916 l 1,6,-1
 277 916 l 1,7,-1
 153 760 l 1,4,-1
EndSplineSet
EndChar

StartChar: uni013B
Encoding: 315 315 229
Width: 477
GlyphClass: 2
Flags: W
LayerCount: 2
Fore
SplineSet
204 -243 m 1,0,-1
 139 -243 l 1,1,-1
 223 -51 l 1,2,-1
 315 -51 l 1,3,-1
 204 -243 l 1,0,-1
445 0 m 1,4,-1
 77 0 l 1,5,-1
 77 674 l 1,6,-1
 158 674 l 1,7,-1
 158 73 l 1,8,-1
 445 73 l 1,9,-1
 445 0 l 1,4,-1
EndSplineSet
EndChar

StartChar: uni013C
Encoding: 316 316 230
Width: 233
GlyphClass: 2
Flags: W
LayerCount: 2
Fore
SplineSet
156 0 m 1,0,-1
 77 0 l 1,1,-1
 77 707 l 1,2,-1
 156 707 l 1,3,-1
 156 0 l 1,0,-1
52 -243 m 1,4,-1
 -13 -243 l 1,5,-1
 71 -51 l 1,6,-1
 163 -51 l 1,7,-1
 52 -243 l 1,4,-1
EndSplineSet
EndChar

StartChar: Lcaron
Encoding: 317 317 231
Width: 477
GlyphClass: 2
Flags: W
LayerCount: 2
Fore
SplineSet
445 0 m 1,0,-1
 77 0 l 1,1,-1
 77 674 l 1,2,-1
 158 674 l 1,3,-1
 158 73 l 1,4,-1
 445 73 l 1,5,-1
 445 0 l 1,0,-1
313 509 m 1,6,-1
 248 509 l 1,7,-1
 333 701 l 1,8,-1
 424 701 l 1,9,-1
 313 509 l 1,6,-1
EndSplineSet
EndChar

StartChar: lcaron
Encoding: 318 318 232
Width: 259
GlyphClass: 2
Flags: W
LayerCount: 2
Fore
SplineSet
156 0 m 1,0,-1
 77 0 l 1,1,-1
 77 707 l 1,2,-1
 156 707 l 1,3,-1
 156 0 l 1,0,-1
288 515 m 1,4,-1
 223 515 l 1,5,-1
 308 707 l 1,6,-1
 399 707 l 1,7,-1
 288 515 l 1,4,-1
EndSplineSet
EndChar

StartChar: Lslash
Encoding: 321 321 233
Width: 500
GlyphClass: 2
Flags: W
LayerCount: 2
Fore
SplineSet
328 404 m 1,0,-1
 178 301 l 1,1,-1
 178 73 l 1,2,-1
 465 73 l 1,3,-1
 465 0 l 1,4,-1
 97 0 l 1,5,-1
 97 245 l 1,6,-1
 29 198 l 1,7,-1
 29 275 l 1,8,-1
 97 322 l 1,9,-1
 97 674 l 1,10,-1
 178 674 l 1,11,-1
 178 378 l 1,12,-1
 328 482 l 1,13,-1
 328 404 l 1,0,-1
EndSplineSet
EndChar

StartChar: lslash
Encoding: 322 322 234
Width: 291
GlyphClass: 2
Flags: W
LayerCount: 2
Fore
SplineSet
180 0 m 1,0,-1
 101 0 l 1,1,-1
 101 304 l 1,2,-1
 33 256 l 1,3,-1
 33 333 l 1,4,-1
 101 381 l 1,5,-1
 101 707 l 1,6,-1
 180 707 l 1,7,-1
 180 437 l 1,8,-1
 261 495 l 1,9,-1
 261 417 l 1,10,-1
 180 360 l 1,11,-1
 180 0 l 1,0,-1
EndSplineSet
EndChar

StartChar: Nacute
Encoding: 323 323 235
Width: 673
GlyphClass: 2
Flags: W
LayerCount: 2
Fore
SplineSet
158 0 m 1,0,-1
 77 0 l 1,1,-1
 77 674 l 1,2,-1
 179 674 l 1,3,-1
 348 390 l 1,4,-1
 519 98 l 1,5,6
 515 195 515 195 515 389 c 2,7,-1
 515 674 l 1,8,-1
 596 674 l 1,9,-1
 596 0 l 1,10,-1
 494 0 l 1,11,-1
 325 282 l 2,12,13
 274 367 274 367 231 440.5 c 128,-1,14
 188 514 188 514 170 546 c 2,15,-1
 153 577 l 1,16,17
 158 473 158 473 158 284 c 2,18,-1
 158 0 l 1,0,-1
395 726 m 1,19,-1
 326 726 l 1,20,-1
 425 882 l 1,21,-1
 519 882 l 1,22,-1
 395 726 l 1,19,-1
EndSplineSet
EndChar

StartChar: nacute
Encoding: 324 324 236
Width: 540
GlyphClass: 2
Flags: W
LayerCount: 2
Fore
SplineSet
473 0 m 1,0,-1
 394 0 l 1,1,-1
 394 328 l 2,2,3
 394 384 394 384 365.5 413.5 c 128,-1,4
 337 443 337 443 291 443 c 0,5,6
 234 443 234 443 192.5 399 c 128,-1,7
 151 355 151 355 151 277 c 2,8,-1
 151 0 l 1,9,-1
 73 0 l 1,10,-1
 73 507 l 1,11,-1
 151 507 l 1,12,-1
 151 419 l 1,13,14
 196 514 196 514 311 514 c 0,15,16
 385 514 385 514 429 469 c 128,-1,17
 473 424 473 424 473 349 c 2,18,-1
 473 0 l 1,0,-1
335 560 m 1,19,-1
 266 560 l 1,20,-1
 365 716 l 1,21,-1
 459 716 l 1,22,-1
 335 560 l 1,19,-1
EndSplineSet
EndChar

StartChar: uni0145
Encoding: 325 325 237
Width: 673
GlyphClass: 2
Flags: W
LayerCount: 2
Fore
SplineSet
158 0 m 1,0,-1
 77 0 l 1,1,-1
 77 674 l 1,2,-1
 179 674 l 1,3,-1
 348 390 l 1,4,-1
 519 98 l 1,5,6
 515 195 515 195 515 389 c 2,7,-1
 515 674 l 1,8,-1
 596 674 l 1,9,-1
 596 0 l 1,10,-1
 494 0 l 1,11,-1
 325 282 l 2,12,13
 274 367 274 367 231 440.5 c 128,-1,14
 188 514 188 514 170 546 c 2,15,-1
 153 577 l 1,16,17
 158 473 158 473 158 284 c 2,18,-1
 158 0 l 1,0,-1
283 -243 m 1,19,-1
 218 -243 l 1,20,-1
 302 -51 l 1,21,-1
 394 -51 l 1,22,-1
 283 -243 l 1,19,-1
EndSplineSet
EndChar

StartChar: uni0146
Encoding: 326 326 238
Width: 540
GlyphClass: 2
Flags: W
LayerCount: 2
Fore
SplineSet
473 0 m 1,0,-1
 394 0 l 1,1,-1
 394 328 l 2,2,3
 394 384 394 384 365.5 413.5 c 128,-1,4
 337 443 337 443 291 443 c 0,5,6
 234 443 234 443 192.5 399 c 128,-1,7
 151 355 151 355 151 277 c 2,8,-1
 151 0 l 1,9,-1
 73 0 l 1,10,-1
 73 507 l 1,11,-1
 151 507 l 1,12,-1
 151 419 l 1,13,14
 196 514 196 514 311 514 c 0,15,16
 385 514 385 514 429 469 c 128,-1,17
 473 424 473 424 473 349 c 2,18,-1
 473 0 l 1,0,-1
214 -243 m 1,19,-1
 149 -243 l 1,20,-1
 233 -51 l 1,21,-1
 325 -51 l 1,22,-1
 214 -243 l 1,19,-1
EndSplineSet
EndChar

StartChar: Ncaron
Encoding: 327 327 239
Width: 673
GlyphClass: 2
Flags: W
LayerCount: 2
Fore
SplineSet
158 0 m 1,0,-1
 77 0 l 1,1,-1
 77 674 l 1,2,-1
 179 674 l 1,3,-1
 348 390 l 1,4,-1
 519 98 l 1,5,6
 515 195 515 195 515 389 c 2,7,-1
 515 674 l 1,8,-1
 596 674 l 1,9,-1
 596 0 l 1,10,-1
 494 0 l 1,11,-1
 325 282 l 2,12,13
 274 367 274 367 231 440.5 c 128,-1,14
 188 514 188 514 170 546 c 2,15,-1
 153 577 l 1,16,17
 158 473 158 473 158 284 c 2,18,-1
 158 0 l 1,0,-1
391 727 m 1,19,-1
 315 727 l 1,20,-1
 188 883 l 1,21,-1
 268 883 l 1,22,-1
 354 778 l 1,23,-1
 438 883 l 1,24,-1
 518 883 l 1,25,-1
 391 727 l 1,19,-1
EndSplineSet
EndChar

StartChar: ncaron
Encoding: 328 328 240
Width: 540
GlyphClass: 2
Flags: W
LayerCount: 2
Fore
SplineSet
473 0 m 1,0,-1
 394 0 l 1,1,-1
 394 328 l 2,2,3
 394 384 394 384 365.5 413.5 c 128,-1,4
 337 443 337 443 291 443 c 0,5,6
 234 443 234 443 192.5 399 c 128,-1,7
 151 355 151 355 151 277 c 2,8,-1
 151 0 l 1,9,-1
 73 0 l 1,10,-1
 73 507 l 1,11,-1
 151 507 l 1,12,-1
 151 419 l 1,13,14
 196 514 196 514 311 514 c 0,15,16
 385 514 385 514 429 469 c 128,-1,17
 473 424 473 424 473 349 c 2,18,-1
 473 0 l 1,0,-1
325 560 m 1,19,-1
 249 560 l 1,20,-1
 122 716 l 1,21,-1
 202 716 l 1,22,-1
 288 611 l 1,23,-1
 372 716 l 1,24,-1
 452 716 l 1,25,-1
 325 560 l 1,19,-1
EndSplineSet
EndChar

StartChar: Omacron
Encoding: 332 332 241
Width: 700
GlyphClass: 2
Flags: W
LayerCount: 2
Fore
SplineSet
653 340 m 0,0,1
 653 181 653 181 571.5 86.5 c 128,-1,2
 490 -8 490 -8 351 -8 c 0,3,4
 214 -8 214 -8 131 87 c 128,-1,5
 48 182 48 182 48 340 c 0,6,7
 48 499 48 499 129.5 593 c 128,-1,8
 211 687 211 687 350 687 c 0,9,10
 492 687 492 687 572.5 593.5 c 128,-1,11
 653 500 653 500 653 340 c 0,0,1
133 340 m 0,12,13
 133 215 133 215 192.5 142 c 128,-1,14
 252 69 252 69 351 69 c 0,15,16
 454 69 454 69 510.5 141 c 128,-1,17
 567 213 567 213 567 340 c 128,-1,18
 567 467 567 467 510 539 c 128,-1,19
 453 611 453 611 350 611 c 0,20,21
 248 611 248 611 190.5 538.5 c 128,-1,22
 133 466 133 466 133 340 c 0,12,13
492 777 m 1,23,-1
 210 777 l 1,24,-1
 210 833 l 1,25,-1
 492 833 l 1,26,-1
 492 777 l 1,23,-1
EndSplineSet
EndChar

StartChar: omacron
Encoding: 333 333 242
Width: 562
GlyphClass: 2
Flags: W
LayerCount: 2
Fore
SplineSet
519 252 m 0,0,1
 519 139 519 139 455 65 c 128,-1,2
 391 -9 391 -9 279 -9 c 0,3,4
 170 -9 170 -9 106.5 64.5 c 128,-1,5
 43 138 43 138 43 250 c 0,6,7
 43 363 43 363 108.5 438.5 c 128,-1,8
 174 514 174 514 279 514 c 0,9,10
 394 514 394 514 456.5 440 c 128,-1,11
 519 366 519 366 519 252 c 0,0,1
125 251 m 0,12,13
 125 172 125 172 167 116.5 c 128,-1,14
 209 61 209 61 279 61 c 0,15,16
 355 61 355 61 396 115.5 c 128,-1,17
 437 170 437 170 437 251 c 0,18,19
 437 335 437 335 398 389.5 c 128,-1,20
 359 444 359 444 279 444 c 0,21,22
 207 444 207 444 166 388 c 128,-1,23
 125 332 125 332 125 251 c 0,12,13
425 610 m 1,24,-1
 143 610 l 1,25,-1
 143 666 l 1,26,-1
 425 666 l 1,27,-1
 425 610 l 1,24,-1
EndSplineSet
EndChar

StartChar: Ohungarumlaut
Encoding: 336 336 243
Width: 700
GlyphClass: 2
Flags: W
LayerCount: 2
Fore
SplineSet
653 340 m 0,0,1
 653 181 653 181 571.5 86.5 c 128,-1,2
 490 -8 490 -8 351 -8 c 0,3,4
 214 -8 214 -8 131 87 c 128,-1,5
 48 182 48 182 48 340 c 0,6,7
 48 499 48 499 129.5 593 c 128,-1,8
 211 687 211 687 350 687 c 0,9,10
 492 687 492 687 572.5 593.5 c 128,-1,11
 653 500 653 500 653 340 c 0,0,1
133 340 m 0,12,13
 133 215 133 215 192.5 142 c 128,-1,14
 252 69 252 69 351 69 c 0,15,16
 454 69 454 69 510.5 141 c 128,-1,17
 567 213 567 213 567 340 c 128,-1,18
 567 467 567 467 510 539 c 128,-1,19
 453 611 453 611 350 611 c 0,20,21
 248 611 248 611 190.5 538.5 c 128,-1,22
 133 466 133 466 133 340 c 0,12,13
474 727 m 1,23,-1
 413 727 l 1,24,-1
 514 883 l 1,25,-1
 608 883 l 1,26,-1
 474 727 l 1,23,-1
318 727 m 1,27,-1
 257 727 l 1,28,-1
 353 883 l 1,29,-1
 445 883 l 1,30,-1
 318 727 l 1,27,-1
EndSplineSet
EndChar

StartChar: ohungarumlaut
Encoding: 337 337 244
Width: 562
GlyphClass: 2
Flags: W
LayerCount: 2
Fore
SplineSet
519 252 m 0,0,1
 519 139 519 139 455 65 c 128,-1,2
 391 -9 391 -9 279 -9 c 0,3,4
 170 -9 170 -9 106.5 64.5 c 128,-1,5
 43 138 43 138 43 250 c 0,6,7
 43 363 43 363 108.5 438.5 c 128,-1,8
 174 514 174 514 279 514 c 0,9,10
 394 514 394 514 456.5 440 c 128,-1,11
 519 366 519 366 519 252 c 0,0,1
125 251 m 0,12,13
 125 172 125 172 167 116.5 c 128,-1,14
 209 61 209 61 279 61 c 0,15,16
 355 61 355 61 396 115.5 c 128,-1,17
 437 170 437 170 437 251 c 0,18,19
 437 335 437 335 398 389.5 c 128,-1,20
 359 444 359 444 279 444 c 0,21,22
 207 444 207 444 166 388 c 128,-1,23
 125 332 125 332 125 251 c 0,12,13
410 560 m 1,24,-1
 349 560 l 1,25,-1
 450 716 l 1,26,-1
 544 716 l 1,27,-1
 410 560 l 1,24,-1
254 560 m 1,28,-1
 193 560 l 1,29,-1
 289 716 l 1,30,-1
 381 716 l 1,31,-1
 254 560 l 1,28,-1
EndSplineSet
EndChar

StartChar: OE
Encoding: 338 338 245
Width: 983
GlyphClass: 2
Flags: W
LayerCount: 2
Fore
SplineSet
133 340 m 0,0,1
 133 214 133 214 190.5 141.5 c 128,-1,2
 248 69 248 69 346 69 c 0,3,4
 448 69 448 69 503.5 141 c 128,-1,5
 559 213 559 213 559 340 c 128,-1,6
 559 467 559 467 503.5 539 c 128,-1,7
 448 611 448 611 345 611 c 0,8,9
 244 611 244 611 188.5 539 c 128,-1,10
 133 467 133 467 133 340 c 0,0,1
935 0 m 1,11,-1
 559 0 l 1,12,-1
 559 88 l 1,13,14
 480 -8 480 -8 346 -8 c 0,15,16
 210 -8 210 -8 129 86.5 c 128,-1,17
 48 181 48 181 48 340 c 128,-1,18
 48 499 48 499 127.5 593 c 128,-1,19
 207 687 207 687 345 687 c 0,20,21
 481 687 481 687 559 592 c 1,22,-1
 559 674 l 1,23,-1
 930 674 l 1,24,-1
 930 603 l 1,25,-1
 638 603 l 1,26,-1
 638 372 l 1,27,-1
 896 372 l 1,28,-1
 896 301 l 1,29,-1
 638 301 l 1,30,-1
 638 71 l 1,31,-1
 935 71 l 1,32,-1
 935 0 l 1,11,-1
EndSplineSet
EndChar

StartChar: oe
Encoding: 339 339 246
Width: 892
GlyphClass: 2
Flags: W
LayerCount: 2
Fore
SplineSet
125 251 m 0,0,1
 125 171 125 171 163.5 116 c 128,-1,2
 202 61 202 61 272 61 c 0,3,4
 346 61 346 61 382.5 114.5 c 128,-1,5
 419 168 419 168 419 251 c 0,6,7
 419 444 419 444 271 444 c 0,8,9
 199 444 199 444 162 389 c 128,-1,10
 125 334 125 334 125 251 c 0,0,1
646 444 m 128,-1,12
 590 444 590 444 549 404 c 128,-1,13
 508 364 508 364 500 286 c 1,14,-1
 771 286 l 1,15,-1
 771 308 l 2,16,17
 770 374 770 374 736 409 c 128,-1,11
 702 444 702 444 646 444 c 128,-1,12
814 26 m 1,18,19
 755 -5 755 -5 672 -5 c 0,20,21
 533 -5 533 -5 462 99 c 1,22,23
 403 -9 403 -9 271 -9 c 0,24,25
 163 -9 163 -9 103 64 c 128,-1,26
 43 137 43 137 43 250 c 0,27,28
 43 364 43 364 105 439 c 128,-1,29
 167 514 167 514 271 514 c 0,30,31
 401 514 401 514 460 412 c 1,32,33
 523 513 523 513 646 513 c 0,34,35
 744 513 744 513 797 451.5 c 128,-1,36
 850 390 850 390 850 275 c 0,37,38
 850 247 850 247 845 220 c 1,39,-1
 500 220 l 1,40,41
 509 145 509 145 558 105 c 128,-1,42
 607 65 607 65 680 65 c 0,43,44
 763 65 763 65 814 100 c 1,45,-1
 814 26 l 1,18,19
EndSplineSet
EndChar

StartChar: Racute
Encoding: 340 340 247
Width: 548
GlyphClass: 2
Flags: W
LayerCount: 2
Fore
SplineSet
251 604 m 2,0,-1
 158 604 l 1,1,-1
 158 335 l 1,2,-1
 260 335 l 2,3,4
 329 335 329 335 365.5 372.5 c 128,-1,5
 402 410 402 410 402 469 c 0,6,7
 402 604 402 604 251 604 c 2,0,-1
255 266 m 1,8,-1
 158 266 l 1,9,-1
 158 0 l 1,10,-1
 77 0 l 1,11,-1
 77 674 l 1,12,-1
 246 674 l 2,13,14
 363 674 363 674 423.5 619 c 128,-1,15
 484 564 484 564 484 467 c 0,16,17
 482 397 482 397 447 348 c 128,-1,18
 412 299 412 299 348 279 c 1,19,-1
 525 0 l 1,20,-1
 428 0 l 1,21,-1
 263 266 l 1,22,-1
 255 266 l 1,8,-1
305 727 m 1,23,-1
 236 727 l 1,24,-1
 335 883 l 1,25,-1
 429 883 l 1,26,-1
 305 727 l 1,23,-1
EndSplineSet
EndChar

StartChar: racute
Encoding: 341 341 248
Width: 326
GlyphClass: 2
Flags: W
LayerCount: 2
Fore
SplineSet
151 0 m 1,0,-1
 72 0 l 1,1,-1
 73 507 l 1,2,-1
 151 507 l 1,3,-1
 151 418 l 1,4,5
 191 512 191 512 289 512 c 0,6,7
 307 512 307 512 317 510 c 1,8,-1
 317 432 l 1,9,10
 296 439 296 439 274 439 c 0,11,12
 221 439 221 439 186 390 c 128,-1,13
 151 341 151 341 151 277 c 2,14,-1
 151 0 l 1,0,-1
237 560 m 1,15,-1
 168 560 l 1,16,-1
 267 716 l 1,17,-1
 361 716 l 1,18,-1
 237 560 l 1,15,-1
EndSplineSet
EndChar

StartChar: uni0156
Encoding: 342 342 249
Width: 548
GlyphClass: 2
Flags: W
LayerCount: 2
Fore
SplineSet
251 604 m 2,0,-1
 158 604 l 1,1,-1
 158 335 l 1,2,-1
 260 335 l 2,3,4
 329 335 329 335 365.5 372.5 c 128,-1,5
 402 410 402 410 402 469 c 0,6,7
 402 604 402 604 251 604 c 2,0,-1
255 266 m 1,8,-1
 158 266 l 1,9,-1
 158 0 l 1,10,-1
 77 0 l 1,11,-1
 77 674 l 1,12,-1
 246 674 l 2,13,14
 363 674 363 674 423.5 619 c 128,-1,15
 484 564 484 564 484 467 c 0,16,17
 482 397 482 397 447 348 c 128,-1,18
 412 299 412 299 348 279 c 1,19,-1
 525 0 l 1,20,-1
 428 0 l 1,21,-1
 263 266 l 1,22,-1
 255 266 l 1,8,-1
222 -243 m 1,23,-1
 157 -243 l 1,24,-1
 242 -51 l 1,25,-1
 333 -51 l 1,26,-1
 222 -243 l 1,23,-1
EndSplineSet
EndChar

StartChar: uni0157
Encoding: 343 343 250
Width: 326
GlyphClass: 2
Flags: W
LayerCount: 2
Fore
SplineSet
45 -243 m 1,0,-1
 -20 -243 l 1,1,-1
 64 -51 l 1,2,-1
 156 -51 l 1,3,-1
 45 -243 l 1,0,-1
151 0 m 1,4,-1
 72 0 l 1,5,-1
 73 507 l 1,6,-1
 151 507 l 1,7,-1
 151 418 l 1,8,9
 191 512 191 512 289 512 c 0,10,11
 307 512 307 512 317 510 c 1,12,-1
 317 432 l 1,13,14
 296 439 296 439 274 439 c 0,15,16
 221 439 221 439 186 390 c 128,-1,17
 151 341 151 341 151 277 c 2,18,-1
 151 0 l 1,4,-1
EndSplineSet
EndChar

StartChar: Rcaron
Encoding: 344 344 251
Width: 548
GlyphClass: 2
Flags: W
LayerCount: 2
Fore
SplineSet
251 604 m 2,0,-1
 158 604 l 1,1,-1
 158 335 l 1,2,-1
 260 335 l 2,3,4
 329 335 329 335 365.5 372.5 c 128,-1,5
 402 410 402 410 402 469 c 0,6,7
 402 604 402 604 251 604 c 2,0,-1
255 266 m 1,8,-1
 158 266 l 1,9,-1
 158 0 l 1,10,-1
 77 0 l 1,11,-1
 77 674 l 1,12,-1
 246 674 l 2,13,14
 363 674 363 674 423.5 619 c 128,-1,15
 484 564 484 564 484 467 c 0,16,17
 482 397 482 397 447 348 c 128,-1,18
 412 299 412 299 348 279 c 1,19,-1
 525 0 l 1,20,-1
 428 0 l 1,21,-1
 263 266 l 1,22,-1
 255 266 l 1,8,-1
316 726 m 1,23,-1
 240 726 l 1,24,-1
 113 882 l 1,25,-1
 193 882 l 1,26,-1
 279 777 l 1,27,-1
 363 882 l 1,28,-1
 443 882 l 1,29,-1
 316 726 l 1,23,-1
EndSplineSet
EndChar

StartChar: rcaron
Encoding: 345 345 252
Width: 326
GlyphClass: 2
Flags: W
LayerCount: 2
Fore
SplineSet
151 0 m 1,0,-1
 72 0 l 1,1,-1
 73 507 l 1,2,-1
 151 507 l 1,3,-1
 151 418 l 1,4,5
 191 512 191 512 289 512 c 0,6,7
 307 512 307 512 317 510 c 1,8,-1
 317 432 l 1,9,10
 296 439 296 439 274 439 c 0,11,12
 221 439 221 439 186 390 c 128,-1,13
 151 341 151 341 151 277 c 2,14,-1
 151 0 l 1,0,-1
240 559 m 1,15,-1
 164 559 l 1,16,-1
 37 715 l 1,17,-1
 117 715 l 1,18,-1
 203 610 l 1,19,-1
 287 715 l 1,20,-1
 367 715 l 1,21,-1
 240 559 l 1,15,-1
EndSplineSet
EndChar

StartChar: Sacute
Encoding: 346 346 253
Width: 524
GlyphClass: 2
Flags: W
LayerCount: 2
Fore
SplineSet
467 179 m 0,0,1
 467 90 467 90 406 41.5 c 128,-1,2
 345 -7 345 -7 249 -7 c 0,3,4
 143 -7 143 -7 69 36 c 1,5,-1
 69 123 l 1,6,7
 142 68 142 68 247 68 c 0,8,9
 310 68 310 68 346 96 c 128,-1,10
 382 124 382 124 382 177 c 0,11,12
 382 199 382 199 373.5 216.5 c 128,-1,13
 365 234 365 234 345.5 248.5 c 128,-1,14
 326 263 326 263 308.5 272.5 c 128,-1,15
 291 282 291 282 261 296 c 0,16,17
 255 299 255 299 243 304 c 0,18,19
 200 323 200 323 177.5 335 c 128,-1,20
 155 347 155 347 124.5 370.5 c 128,-1,21
 94 394 94 394 80 425 c 128,-1,22
 66 456 66 456 66 497 c 0,23,24
 66 583 66 583 127.5 631.5 c 128,-1,25
 189 680 189 680 282 680 c 0,26,27
 369 680 369 680 430 649 c 1,28,-1
 430 564 l 1,29,30
 369 604 369 604 284 604 c 0,31,32
 223 604 223 604 187 575.5 c 128,-1,33
 151 547 151 547 151 501 c 0,34,35
 151 477 151 477 160.5 458 c 128,-1,36
 170 439 170 439 194 422.5 c 128,-1,37
 218 406 218 406 235 397.5 c 128,-1,38
 252 389 252 389 288 373 c 0,39,40
 322 358 322 358 340 349.5 c 128,-1,41
 358 341 358 341 386.5 322.5 c 128,-1,42
 415 304 415 304 429.5 286.5 c 128,-1,43
 444 269 444 269 455.5 240.5 c 128,-1,44
 467 212 467 212 467 179 c 0,0,1
316 726 m 1,45,-1
 247 726 l 1,46,-1
 346 882 l 1,47,-1
 440 882 l 1,48,-1
 316 726 l 1,45,-1
EndSplineSet
EndChar

StartChar: sacute
Encoding: 347 347 254
Width: 412
GlyphClass: 2
Flags: W
LayerCount: 2
Fore
SplineSet
378 135 m 0,0,1
 378 70 378 70 332.5 32 c 128,-1,2
 287 -6 287 -6 208 -6 c 0,3,4
 116 -6 116 -6 59 25 c 1,5,-1
 59 102 l 1,6,7
 126 62 126 62 203 62 c 0,8,9
 249 62 249 62 273 80 c 128,-1,10
 297 98 297 98 297 129 c 0,11,12
 297 165 297 165 270.5 185 c 128,-1,13
 244 205 244 205 182 230 c 0,14,15
 125 252 125 252 90.5 285 c 128,-1,16
 56 318 56 318 56 374 c 0,17,18
 56 437 56 437 103.5 474.5 c 128,-1,19
 151 512 151 512 222 512 c 0,20,21
 301 512 301 512 349 490 c 1,22,-1
 349 415 l 1,23,24
 303 443 303 443 223 443 c 0,25,26
 183 443 183 443 159.5 424.5 c 128,-1,27
 136 406 136 406 136 377 c 0,28,29
 136 359 136 359 143 345.5 c 128,-1,30
 150 332 150 332 170.5 319 c 128,-1,31
 191 306 191 306 200.5 301.5 c 128,-1,32
 210 297 210 297 242 283 c 0,33,34
 306 257 306 257 342 224 c 128,-1,35
 378 191 378 191 378 135 c 0,0,1
257 560 m 1,36,-1
 188 560 l 1,37,-1
 287 716 l 1,38,-1
 381 716 l 1,39,-1
 257 560 l 1,36,-1
EndSplineSet
EndChar

StartChar: uni015E
Encoding: 350 350 255
Width: 524
GlyphClass: 2
Flags: W
LayerCount: 2
Fore
SplineSet
467 179 m 0,0,1
 467 90 467 90 406 41.5 c 128,-1,2
 345 -7 345 -7 249 -7 c 0,3,4
 143 -7 143 -7 69 36 c 1,5,-1
 69 123 l 1,6,7
 142 68 142 68 247 68 c 0,8,9
 310 68 310 68 346 96 c 128,-1,10
 382 124 382 124 382 177 c 0,11,12
 382 199 382 199 373.5 216.5 c 128,-1,13
 365 234 365 234 345.5 248.5 c 128,-1,14
 326 263 326 263 308.5 272.5 c 128,-1,15
 291 282 291 282 261 296 c 0,16,17
 255 299 255 299 243 304 c 0,18,19
 200 323 200 323 177.5 335 c 128,-1,20
 155 347 155 347 124.5 370.5 c 128,-1,21
 94 394 94 394 80 425 c 128,-1,22
 66 456 66 456 66 497 c 0,23,24
 66 583 66 583 127.5 631.5 c 128,-1,25
 189 680 189 680 282 680 c 0,26,27
 369 680 369 680 430 649 c 1,28,-1
 430 564 l 1,29,30
 369 604 369 604 284 604 c 0,31,32
 223 604 223 604 187 575.5 c 128,-1,33
 151 547 151 547 151 501 c 0,34,35
 151 477 151 477 160.5 458 c 128,-1,36
 170 439 170 439 194 422.5 c 128,-1,37
 218 406 218 406 235 397.5 c 128,-1,38
 252 389 252 389 288 373 c 0,39,40
 322 358 322 358 340 349.5 c 128,-1,41
 358 341 358 341 386.5 322.5 c 128,-1,42
 415 304 415 304 429.5 286.5 c 128,-1,43
 444 269 444 269 455.5 240.5 c 128,-1,44
 467 212 467 212 467 179 c 0,0,1
313 -122 m 0,45,46
 313 -176 313 -176 274.5 -213 c 128,-1,47
 236 -250 236 -250 163 -252 c 1,48,-1
 163 -194 l 1,49,50
 247 -188 247 -188 247 -123 c 0,51,52
 247 -89 247 -89 224 -51 c 1,53,-1
 295 -51 l 1,54,55
 313 -76 313 -76 313 -122 c 0,45,46
EndSplineSet
EndChar

StartChar: uni015F
Encoding: 351 351 256
Width: 412
GlyphClass: 2
Flags: W
LayerCount: 2
Fore
SplineSet
378 135 m 0,0,1
 378 70 378 70 332.5 32 c 128,-1,2
 287 -6 287 -6 208 -6 c 0,3,4
 116 -6 116 -6 59 25 c 1,5,-1
 59 102 l 1,6,7
 126 62 126 62 203 62 c 0,8,9
 249 62 249 62 273 80 c 128,-1,10
 297 98 297 98 297 129 c 0,11,12
 297 165 297 165 270.5 185 c 128,-1,13
 244 205 244 205 182 230 c 0,14,15
 125 252 125 252 90.5 285 c 128,-1,16
 56 318 56 318 56 374 c 0,17,18
 56 437 56 437 103.5 474.5 c 128,-1,19
 151 512 151 512 222 512 c 0,20,21
 301 512 301 512 349 490 c 1,22,-1
 349 415 l 1,23,24
 303 443 303 443 223 443 c 0,25,26
 183 443 183 443 159.5 424.5 c 128,-1,27
 136 406 136 406 136 377 c 0,28,29
 136 359 136 359 143 345.5 c 128,-1,30
 150 332 150 332 170.5 319 c 128,-1,31
 191 306 191 306 200.5 301.5 c 128,-1,32
 210 297 210 297 242 283 c 0,33,34
 306 257 306 257 342 224 c 128,-1,35
 378 191 378 191 378 135 c 0,0,1
277 -122 m 0,36,37
 277 -176 277 -176 238.5 -213 c 128,-1,38
 200 -250 200 -250 127 -252 c 1,39,-1
 127 -194 l 1,40,41
 211 -188 211 -188 211 -123 c 0,42,43
 211 -89 211 -89 188 -51 c 1,44,-1
 259 -51 l 1,45,46
 277 -76 277 -76 277 -122 c 0,36,37
EndSplineSet
EndChar

StartChar: Scaron
Encoding: 352 352 257
Width: 524
GlyphClass: 2
Flags: W
LayerCount: 2
Fore
SplineSet
467 179 m 0,0,1
 467 90 467 90 406 41.5 c 128,-1,2
 345 -7 345 -7 249 -7 c 0,3,4
 143 -7 143 -7 69 36 c 1,5,-1
 69 123 l 1,6,7
 142 68 142 68 247 68 c 0,8,9
 310 68 310 68 346 96 c 128,-1,10
 382 124 382 124 382 177 c 0,11,12
 382 199 382 199 373.5 216.5 c 128,-1,13
 365 234 365 234 345.5 248.5 c 128,-1,14
 326 263 326 263 308.5 272.5 c 128,-1,15
 291 282 291 282 261 296 c 0,16,17
 255 299 255 299 243 304 c 0,18,19
 200 323 200 323 177.5 335 c 128,-1,20
 155 347 155 347 124.5 370.5 c 128,-1,21
 94 394 94 394 80 425 c 128,-1,22
 66 456 66 456 66 497 c 0,23,24
 66 583 66 583 127.5 631.5 c 128,-1,25
 189 680 189 680 282 680 c 0,26,27
 369 680 369 680 430 649 c 1,28,-1
 430 564 l 1,29,30
 369 604 369 604 284 604 c 0,31,32
 223 604 223 604 187 575.5 c 128,-1,33
 151 547 151 547 151 501 c 0,34,35
 151 477 151 477 160.5 458 c 128,-1,36
 170 439 170 439 194 422.5 c 128,-1,37
 218 406 218 406 235 397.5 c 128,-1,38
 252 389 252 389 288 373 c 0,39,40
 322 358 322 358 340 349.5 c 128,-1,41
 358 341 358 341 386.5 322.5 c 128,-1,42
 415 304 415 304 429.5 286.5 c 128,-1,43
 444 269 444 269 455.5 240.5 c 128,-1,44
 467 212 467 212 467 179 c 0,0,1
301 726 m 1,45,-1
 225 726 l 1,46,-1
 98 882 l 1,47,-1
 178 882 l 1,48,-1
 264 777 l 1,49,-1
 348 882 l 1,50,-1
 428 882 l 1,51,-1
 301 726 l 1,45,-1
EndSplineSet
EndChar

StartChar: scaron
Encoding: 353 353 258
Width: 412
GlyphClass: 2
Flags: W
LayerCount: 2
Fore
SplineSet
378 135 m 0,0,1
 378 70 378 70 332.5 32 c 128,-1,2
 287 -6 287 -6 208 -6 c 0,3,4
 116 -6 116 -6 59 25 c 1,5,-1
 59 102 l 1,6,7
 126 62 126 62 203 62 c 0,8,9
 249 62 249 62 273 80 c 128,-1,10
 297 98 297 98 297 129 c 0,11,12
 297 165 297 165 270.5 185 c 128,-1,13
 244 205 244 205 182 230 c 0,14,15
 125 252 125 252 90.5 285 c 128,-1,16
 56 318 56 318 56 374 c 0,17,18
 56 437 56 437 103.5 474.5 c 128,-1,19
 151 512 151 512 222 512 c 0,20,21
 301 512 301 512 349 490 c 1,22,-1
 349 415 l 1,23,24
 303 443 303 443 223 443 c 0,25,26
 183 443 183 443 159.5 424.5 c 128,-1,27
 136 406 136 406 136 377 c 0,28,29
 136 359 136 359 143 345.5 c 128,-1,30
 150 332 150 332 170.5 319 c 128,-1,31
 191 306 191 306 200.5 301.5 c 128,-1,32
 210 297 210 297 242 283 c 0,33,34
 306 257 306 257 342 224 c 128,-1,35
 378 191 378 191 378 135 c 0,0,1
269 560 m 1,36,-1
 193 560 l 1,37,-1
 66 716 l 1,38,-1
 146 716 l 1,39,-1
 232 611 l 1,40,-1
 316 716 l 1,41,-1
 396 716 l 1,42,-1
 269 560 l 1,36,-1
EndSplineSet
EndChar

StartChar: uni0162
Encoding: 354 354 259
Width: 482
GlyphClass: 2
Flags: W
LayerCount: 2
Fore
SplineSet
463 603 m 1,0,-1
 281 603 l 1,1,-1
 281 0 l 1,2,-1
 200 0 l 1,3,-1
 200 603 l 1,4,-1
 18 603 l 1,5,-1
 18 674 l 1,6,-1
 463 674 l 1,7,-1
 463 603 l 1,0,-1
295 -122 m 0,8,9
 295 -176 295 -176 256.5 -213 c 128,-1,10
 218 -250 218 -250 145 -252 c 1,11,-1
 145 -194 l 1,12,13
 229 -188 229 -188 229 -123 c 0,14,15
 229 -89 229 -89 206 -51 c 1,16,-1
 277 -51 l 1,17,18
 295 -76 295 -76 295 -122 c 0,8,9
EndSplineSet
EndChar

StartChar: uni0163
Encoding: 355 355 260
Width: 369
GlyphClass: 2
Flags: W
LayerCount: 2
Fore
SplineSet
327 13 m 1,0,1
 294 -5 294 -5 253 -5 c 0,2,3
 103 -5 103 -5 103 148 c 2,4,-1
 103 443 l 1,5,-1
 22 443 l 1,6,-1
 22 507 l 1,7,-1
 103 507 l 1,8,-1
 103 633 l 1,9,-1
 182 633 l 1,10,-1
 182 507 l 1,11,-1
 322 507 l 1,12,-1
 322 443 l 1,13,-1
 182 443 l 1,14,-1
 182 146 l 2,15,16
 182 65 182 65 258 65 c 0,17,18
 297 65 297 65 327 88 c 1,19,-1
 327 13 l 1,0,1
251 -122 m 0,20,21
 251 -176 251 -176 212.5 -213 c 128,-1,22
 174 -250 174 -250 101 -252 c 1,23,-1
 101 -194 l 1,24,25
 185 -188 185 -188 185 -123 c 0,26,27
 185 -89 185 -89 162 -51 c 1,28,-1
 233 -51 l 1,29,30
 251 -76 251 -76 251 -122 c 0,20,21
EndSplineSet
EndChar

StartChar: Tcaron
Encoding: 356 356 261
Width: 482
GlyphClass: 2
Flags: W
LayerCount: 2
Fore
SplineSet
463 603 m 1,0,-1
 281 603 l 1,1,-1
 281 0 l 1,2,-1
 200 0 l 1,3,-1
 200 603 l 1,4,-1
 18 603 l 1,5,-1
 18 674 l 1,6,-1
 463 674 l 1,7,-1
 463 603 l 1,0,-1
279 727 m 1,8,-1
 203 727 l 1,9,-1
 76 883 l 1,10,-1
 156 883 l 1,11,-1
 242 778 l 1,12,-1
 326 883 l 1,13,-1
 406 883 l 1,14,-1
 279 727 l 1,8,-1
EndSplineSet
EndChar

StartChar: tcaron
Encoding: 357 357 262
Width: 369
GlyphClass: 2
Flags: W
LayerCount: 2
Fore
SplineSet
327 13 m 1,0,1
 294 -5 294 -5 253 -5 c 0,2,3
 103 -5 103 -5 103 148 c 2,4,-1
 103 443 l 1,5,-1
 22 443 l 1,6,-1
 22 507 l 1,7,-1
 103 507 l 1,8,-1
 103 633 l 1,9,-1
 182 633 l 1,10,-1
 182 507 l 1,11,-1
 322 507 l 1,12,-1
 322 443 l 1,13,-1
 182 443 l 1,14,-1
 182 146 l 2,15,16
 182 65 182 65 258 65 c 0,17,18
 297 65 297 65 327 88 c 1,19,-1
 327 13 l 1,0,1
306 567 m 1,20,-1
 241 567 l 1,21,-1
 326 760 l 1,22,-1
 417 760 l 1,23,-1
 306 567 l 1,20,-1
EndSplineSet
EndChar

StartChar: Umacron
Encoding: 362 362 263
Width: 645
GlyphClass: 2
Flags: W
LayerCount: 2
Fore
SplineSet
569 256 m 2,0,1
 569 126 569 126 503.5 59 c 128,-1,2
 438 -8 438 -8 321 -8 c 0,3,4
 206 -8 206 -8 141 57.5 c 128,-1,5
 76 123 76 123 76 248 c 2,6,-1
 76 674 l 1,7,-1
 157 674 l 1,8,-1
 157 249 l 2,9,10
 157 156 157 156 201.5 112 c 128,-1,11
 246 68 246 68 321 68 c 0,12,13
 488 68 488 68 488 254 c 2,14,-1
 488 674 l 1,15,-1
 569 674 l 1,16,-1
 569 256 l 2,0,1
467 777 m 1,17,-1
 185 777 l 1,18,-1
 185 833 l 1,19,-1
 467 833 l 1,20,-1
 467 777 l 1,17,-1
EndSplineSet
EndChar

StartChar: umacron
Encoding: 363 363 264
Width: 540
GlyphClass: 2
Flags: W
LayerCount: 2
Fore
SplineSet
467 0 m 1,0,-1
 388 0 l 1,1,-1
 388 88 l 1,2,3
 348 -6 348 -6 229 -6 c 0,4,5
 154 -6 154 -6 110.5 38.5 c 128,-1,6
 67 83 67 83 67 158 c 2,7,-1
 67 507 l 1,8,-1
 146 507 l 1,9,-1
 146 178 l 2,10,11
 146 123 146 123 174 94 c 128,-1,12
 202 65 202 65 250 65 c 0,13,14
 313 65 313 65 350.5 109 c 128,-1,15
 388 153 388 153 388 228 c 2,16,-1
 388 507 l 1,17,-1
 467 507 l 1,18,-1
 467 0 l 1,0,-1
408 610 m 1,19,-1
 126 610 l 1,20,-1
 126 666 l 1,21,-1
 408 666 l 1,22,-1
 408 610 l 1,19,-1
EndSplineSet
EndChar

StartChar: Uring
Encoding: 366 366 265
Width: 645
GlyphClass: 2
Flags: W
LayerCount: 2
Fore
SplineSet
569 256 m 2,0,1
 569 126 569 126 503.5 59 c 128,-1,2
 438 -8 438 -8 321 -8 c 0,3,4
 206 -8 206 -8 141 57.5 c 128,-1,5
 76 123 76 123 76 248 c 2,6,-1
 76 674 l 1,7,-1
 157 674 l 1,8,-1
 157 249 l 2,9,10
 157 156 157 156 201.5 112 c 128,-1,11
 246 68 246 68 321 68 c 0,12,13
 488 68 488 68 488 254 c 2,14,-1
 488 674 l 1,15,-1
 569 674 l 1,16,-1
 569 256 l 2,0,1
431 822 m 128,-1,18
 431 778 431 778 400 747 c 128,-1,19
 369 716 369 716 325 716 c 128,-1,20
 281 716 281 716 250 747 c 128,-1,21
 219 778 219 778 219 822 c 128,-1,22
 219 866 219 866 250 897.5 c 128,-1,23
 281 929 281 929 325 929 c 128,-1,24
 369 929 369 929 400 897.5 c 128,-1,17
 431 866 431 866 431 822 c 128,-1,18
272 823 m 0,25,26
 272 801 272 801 287.5 785 c 128,-1,27
 303 769 303 769 325 769 c 128,-1,28
 347 769 347 769 363 785 c 128,-1,29
 379 801 379 801 379 823 c 0,30,31
 379 846 379 846 363.5 861.5 c 128,-1,32
 348 877 348 877 325 877 c 0,33,34
 303 877 303 877 287.5 861.5 c 128,-1,35
 272 846 272 846 272 823 c 0,25,26
EndSplineSet
EndChar

StartChar: uring
Encoding: 367 367 266
Width: 540
GlyphClass: 2
Flags: W
LayerCount: 2
Fore
SplineSet
467 0 m 1,0,-1
 388 0 l 1,1,-1
 388 88 l 1,2,3
 348 -6 348 -6 229 -6 c 0,4,5
 154 -6 154 -6 110.5 38.5 c 128,-1,6
 67 83 67 83 67 158 c 2,7,-1
 67 507 l 1,8,-1
 146 507 l 1,9,-1
 146 178 l 2,10,11
 146 123 146 123 174 94 c 128,-1,12
 202 65 202 65 250 65 c 0,13,14
 313 65 313 65 350.5 109 c 128,-1,15
 388 153 388 153 388 228 c 2,16,-1
 388 507 l 1,17,-1
 467 507 l 1,18,-1
 467 0 l 1,0,-1
381 656 m 128,-1,20
 381 612 381 612 350 581 c 128,-1,21
 319 550 319 550 275 550 c 128,-1,22
 231 550 231 550 200 581 c 128,-1,23
 169 612 169 612 169 656 c 128,-1,24
 169 700 169 700 200 731.5 c 128,-1,25
 231 763 231 763 275 763 c 128,-1,26
 319 763 319 763 350 731.5 c 128,-1,19
 381 700 381 700 381 656 c 128,-1,20
222 657 m 0,27,28
 222 635 222 635 237.5 619 c 128,-1,29
 253 603 253 603 275 603 c 128,-1,30
 297 603 297 603 313 619 c 128,-1,31
 329 635 329 635 329 657 c 0,32,33
 329 680 329 680 313.5 695.5 c 128,-1,34
 298 711 298 711 275 711 c 0,35,36
 253 711 253 711 237.5 695.5 c 128,-1,37
 222 680 222 680 222 657 c 0,27,28
EndSplineSet
EndChar

StartChar: Uhungarumlaut
Encoding: 368 368 267
Width: 645
GlyphClass: 2
Flags: W
LayerCount: 2
Fore
SplineSet
569 256 m 2,0,1
 569 126 569 126 503.5 59 c 128,-1,2
 438 -8 438 -8 321 -8 c 0,3,4
 206 -8 206 -8 141 57.5 c 128,-1,5
 76 123 76 123 76 248 c 2,6,-1
 76 674 l 1,7,-1
 157 674 l 1,8,-1
 157 249 l 2,9,10
 157 156 157 156 201.5 112 c 128,-1,11
 246 68 246 68 321 68 c 0,12,13
 488 68 488 68 488 254 c 2,14,-1
 488 674 l 1,15,-1
 569 674 l 1,16,-1
 569 256 l 2,0,1
428 727 m 1,17,-1
 367 727 l 1,18,-1
 468 883 l 1,19,-1
 562 883 l 1,20,-1
 428 727 l 1,17,-1
272 727 m 1,21,-1
 211 727 l 1,22,-1
 307 883 l 1,23,-1
 399 883 l 1,24,-1
 272 727 l 1,21,-1
EndSplineSet
EndChar

StartChar: uhungarumlaut
Encoding: 369 369 268
Width: 540
GlyphClass: 2
Flags: W
LayerCount: 2
Fore
SplineSet
467 0 m 1,0,-1
 388 0 l 1,1,-1
 388 88 l 1,2,3
 348 -6 348 -6 229 -6 c 0,4,5
 154 -6 154 -6 110.5 38.5 c 128,-1,6
 67 83 67 83 67 158 c 2,7,-1
 67 507 l 1,8,-1
 146 507 l 1,9,-1
 146 178 l 2,10,11
 146 123 146 123 174 94 c 128,-1,12
 202 65 202 65 250 65 c 0,13,14
 313 65 313 65 350.5 109 c 128,-1,15
 388 153 388 153 388 228 c 2,16,-1
 388 507 l 1,17,-1
 467 507 l 1,18,-1
 467 0 l 1,0,-1
379 560 m 1,19,-1
 318 560 l 1,20,-1
 419 716 l 1,21,-1
 513 716 l 1,22,-1
 379 560 l 1,19,-1
223 560 m 1,23,-1
 162 560 l 1,24,-1
 258 716 l 1,25,-1
 350 716 l 1,26,-1
 223 560 l 1,23,-1
EndSplineSet
EndChar

StartChar: Uogonek
Encoding: 370 370 269
Width: 645
GlyphClass: 2
Flags: W
LayerCount: 2
Fore
SplineSet
569 256 m 2,0,1
 569 56 569 56 419 7 c 1,2,3
 307 -49 307 -49 307 -118 c 0,4,5
 307 -147 307 -147 324.5 -162 c 128,-1,6
 342 -177 342 -177 372 -177 c 0,7,8
 411 -177 411 -177 440 -155 c 1,9,-1
 440 -216 l 1,10,11
 408 -235 408 -235 361 -235 c 0,12,13
 303 -235 303 -235 271 -204 c 128,-1,14
 239 -173 239 -173 239 -125 c 0,15,16
 239 -62 239 -62 299 -7 c 1,17,18
 194 -1 194 -1 135 64 c 128,-1,19
 76 129 76 129 76 248 c 2,20,-1
 76 674 l 1,21,-1
 157 674 l 1,22,-1
 157 249 l 2,23,24
 157 156 157 156 201.5 112 c 128,-1,25
 246 68 246 68 321 68 c 0,26,27
 488 68 488 68 488 254 c 2,28,-1
 488 674 l 1,29,-1
 569 674 l 1,30,-1
 569 256 l 2,0,1
EndSplineSet
EndChar

StartChar: uogonek
Encoding: 371 371 270
Width: 540
GlyphClass: 2
Flags: W
LayerCount: 2
Fore
SplineSet
487 -223 m 1,0,1
 455 -242 455 -242 408 -242 c 0,2,3
 350 -242 350 -242 318 -211 c 128,-1,4
 286 -180 286 -180 286 -132 c 0,5,6
 286 -87 286 -87 314.5 -48.5 c 128,-1,7
 343 -10 343 -10 388 16 c 1,8,-1
 388 88 l 1,9,10
 348 -6 348 -6 229 -6 c 0,11,12
 154 -6 154 -6 110.5 38.5 c 128,-1,13
 67 83 67 83 67 158 c 2,14,-1
 67 507 l 1,15,-1
 146 507 l 1,16,-1
 146 178 l 2,17,18
 146 123 146 123 174 94 c 128,-1,19
 202 65 202 65 250 65 c 0,20,21
 313 65 313 65 350.5 109 c 128,-1,22
 388 153 388 153 388 228 c 2,23,-1
 388 507 l 1,24,-1
 467 507 l 1,25,-1
 467 0 l 1,26,27
 354 -56 354 -56 354 -125 c 0,28,29
 354 -154 354 -154 371.5 -169 c 128,-1,30
 389 -184 389 -184 419 -184 c 0,31,32
 458 -184 458 -184 487 -162 c 1,33,-1
 487 -223 l 1,0,1
EndSplineSet
EndChar

StartChar: Ydieresis
Encoding: 376 376 271
Width: 593
GlyphClass: 2
Flags: W
LayerCount: 2
Fore
SplineSet
336 0 m 1,0,-1
 255 0 l 1,1,-1
 255 250 l 1,2,-1
 26 674 l 1,3,-1
 120 674 l 1,4,-1
 171 575 l 2,5,6
 223 475 223 475 254 412 c 128,-1,7
 285 349 285 349 290 336 c 2,8,-1
 295 324 l 1,9,10
 304 349 304 349 422 575 c 2,11,-1
 473 674 l 1,12,-1
 567 674 l 1,13,-1
 336 251 l 1,14,-1
 336 0 l 1,0,-1
450 805 m 128,-1,16
 450 783 450 783 435 768 c 128,-1,17
 420 753 420 753 398 753 c 128,-1,18
 376 753 376 753 361.5 768 c 128,-1,19
 347 783 347 783 347 805 c 128,-1,20
 347 827 347 827 361.5 841.5 c 128,-1,21
 376 856 376 856 398 856 c 128,-1,22
 420 856 420 856 435 841.5 c 128,-1,15
 450 827 450 827 450 805 c 128,-1,16
248 805 m 128,-1,24
 248 783 248 783 233.5 768 c 128,-1,25
 219 753 219 753 197 753 c 128,-1,26
 175 753 175 753 160 768 c 128,-1,27
 145 783 145 783 145 805 c 128,-1,28
 145 827 145 827 160 841.5 c 128,-1,29
 175 856 175 856 197 856 c 128,-1,30
 219 856 219 856 233.5 841.5 c 128,-1,23
 248 827 248 827 248 805 c 128,-1,24
EndSplineSet
EndChar

StartChar: Zacute
Encoding: 377 377 272
Width: 569
GlyphClass: 2
Flags: W
LayerCount: 2
Fore
SplineSet
517 0 m 1,0,-1
 52 0 l 1,1,-1
 52 67 l 1,2,-1
 408 605 l 1,3,-1
 57 605 l 1,4,-1
 57 674 l 1,5,-1
 502 674 l 1,6,-1
 502 608 l 1,7,-1
 146 69 l 1,8,-1
 517 69 l 1,9,-1
 517 0 l 1,0,-1
332 727 m 1,10,-1
 263 727 l 1,11,-1
 362 883 l 1,12,-1
 456 883 l 1,13,-1
 332 727 l 1,10,-1
EndSplineSet
EndChar

StartChar: zacute
Encoding: 378 378 273
Width: 453
GlyphClass: 2
Flags: W
LayerCount: 2
Fore
SplineSet
409 0 m 1,0,-1
 44 0 l 1,1,-1
 44 62 l 1,2,-1
 301 437 l 1,3,-1
 54 437 l 1,4,-1
 54 507 l 1,5,-1
 395 507 l 1,6,-1
 395 449 l 1,7,-1
 135 71 l 1,8,-1
 409 71 l 1,9,-1
 409 0 l 1,0,-1
269 560 m 1,10,-1
 200 560 l 1,11,-1
 299 716 l 1,12,-1
 393 716 l 1,13,-1
 269 560 l 1,10,-1
EndSplineSet
EndChar

StartChar: Zdotaccent
Encoding: 379 379 274
Width: 569
GlyphClass: 2
Flags: W
LayerCount: 2
Fore
SplineSet
517 0 m 1,0,-1
 52 0 l 1,1,-1
 52 67 l 1,2,-1
 408 605 l 1,3,-1
 57 605 l 1,4,-1
 57 674 l 1,5,-1
 502 674 l 1,6,-1
 502 608 l 1,7,-1
 146 69 l 1,8,-1
 517 69 l 1,9,-1
 517 0 l 1,0,-1
343 808 m 128,-1,11
 343 786 343 786 328.5 771 c 128,-1,12
 314 756 314 756 292 756 c 128,-1,13
 270 756 270 756 255 771 c 128,-1,14
 240 786 240 786 240 808 c 128,-1,15
 240 830 240 830 255 844.5 c 128,-1,16
 270 859 270 859 292 859 c 128,-1,17
 314 859 314 859 328.5 844.5 c 128,-1,10
 343 830 343 830 343 808 c 128,-1,11
EndSplineSet
EndChar

StartChar: zdotaccent
Encoding: 380 380 275
Width: 453
GlyphClass: 2
Flags: W
LayerCount: 2
Fore
SplineSet
409 0 m 1,0,-1
 44 0 l 1,1,-1
 44 62 l 1,2,-1
 301 437 l 1,3,-1
 54 437 l 1,4,-1
 54 507 l 1,5,-1
 395 507 l 1,6,-1
 395 449 l 1,7,-1
 135 71 l 1,8,-1
 409 71 l 1,9,-1
 409 0 l 1,0,-1
294 638 m 128,-1,11
 294 616 294 616 279.5 601 c 128,-1,12
 265 586 265 586 243 586 c 128,-1,13
 221 586 221 586 206 601 c 128,-1,14
 191 616 191 616 191 638 c 128,-1,15
 191 660 191 660 206 674.5 c 128,-1,16
 221 689 221 689 243 689 c 128,-1,17
 265 689 265 689 279.5 674.5 c 128,-1,10
 294 660 294 660 294 638 c 128,-1,11
EndSplineSet
EndChar

StartChar: Zcaron
Encoding: 381 381 276
Width: 569
GlyphClass: 2
Flags: W
LayerCount: 2
Fore
SplineSet
517 0 m 1,0,-1
 52 0 l 1,1,-1
 52 67 l 1,2,-1
 408 605 l 1,3,-1
 57 605 l 1,4,-1
 57 674 l 1,5,-1
 502 674 l 1,6,-1
 502 608 l 1,7,-1
 146 69 l 1,8,-1
 517 69 l 1,9,-1
 517 0 l 1,0,-1
321 727 m 1,10,-1
 245 727 l 1,11,-1
 118 883 l 1,12,-1
 198 883 l 1,13,-1
 284 778 l 1,14,-1
 368 883 l 1,15,-1
 448 883 l 1,16,-1
 321 727 l 1,10,-1
EndSplineSet
EndChar

StartChar: zcaron
Encoding: 382 382 277
Width: 453
GlyphClass: 2
Flags: W
LayerCount: 2
Fore
SplineSet
409 0 m 1,0,-1
 44 0 l 1,1,-1
 44 62 l 1,2,-1
 301 437 l 1,3,-1
 54 437 l 1,4,-1
 54 507 l 1,5,-1
 395 507 l 1,6,-1
 395 449 l 1,7,-1
 135 71 l 1,8,-1
 409 71 l 1,9,-1
 409 0 l 1,0,-1
280 560 m 1,10,-1
 204 560 l 1,11,-1
 77 716 l 1,12,-1
 157 716 l 1,13,-1
 243 611 l 1,14,-1
 327 716 l 1,15,-1
 407 716 l 1,16,-1
 280 560 l 1,10,-1
EndSplineSet
EndChar

StartChar: florin
Encoding: 402 402 278
Width: 392
GlyphClass: 2
Flags: W
LayerCount: 2
Fore
SplineSet
163 -80 m 2,0,1
 148 -167 148 -167 110 -212 c 128,-1,2
 72 -257 72 -257 2 -257 c 0,3,4
 -39 -257 -39 -257 -66 -247 c 1,5,-1
 -66 -175 l 1,6,7
 -39 -186 -39 -186 -6 -186 c 0,8,9
 65 -186 65 -186 86 -72 c 2,10,-1
 151 307 l 1,11,-1
 54 307 l 1,12,-1
 54 371 l 1,13,-1
 162 371 l 1,14,-1
 185 504 l 2,15,16
 200 591 200 591 238.5 636 c 128,-1,17
 277 681 277 681 347 681 c 0,18,19
 388 681 388 681 413 672 c 1,20,-1
 413 600 l 1,21,22
 386 610 386 610 356 610 c 0,23,24
 283 610 283 610 263 496 c 2,25,-1
 241 371 l 1,26,-1
 340 371 l 1,27,-1
 340 307 l 1,28,-1
 230 307 l 1,29,-1
 163 -80 l 2,0,1
EndSplineSet
EndChar

StartChar: uni0218
Encoding: 536 536 279
Width: 524
GlyphClass: 2
Flags: W
LayerCount: 2
Fore
SplineSet
467 179 m 0,0,1
 467 90 467 90 406 41.5 c 128,-1,2
 345 -7 345 -7 249 -7 c 0,3,4
 143 -7 143 -7 69 36 c 1,5,-1
 69 123 l 1,6,7
 142 68 142 68 247 68 c 0,8,9
 310 68 310 68 346 96 c 128,-1,10
 382 124 382 124 382 177 c 0,11,12
 382 199 382 199 373.5 216.5 c 128,-1,13
 365 234 365 234 345.5 248.5 c 128,-1,14
 326 263 326 263 308.5 272.5 c 128,-1,15
 291 282 291 282 261 296 c 0,16,17
 255 299 255 299 243 304 c 0,18,19
 200 323 200 323 177.5 335 c 128,-1,20
 155 347 155 347 124.5 370.5 c 128,-1,21
 94 394 94 394 80 425 c 128,-1,22
 66 456 66 456 66 497 c 0,23,24
 66 583 66 583 127.5 631.5 c 128,-1,25
 189 680 189 680 282 680 c 0,26,27
 369 680 369 680 430 649 c 1,28,-1
 430 564 l 1,29,30
 369 604 369 604 284 604 c 0,31,32
 223 604 223 604 187 575.5 c 128,-1,33
 151 547 151 547 151 501 c 0,34,35
 151 477 151 477 160.5 458 c 128,-1,36
 170 439 170 439 194 422.5 c 128,-1,37
 218 406 218 406 235 397.5 c 128,-1,38
 252 389 252 389 288 373 c 0,39,40
 322 358 322 358 340 349.5 c 128,-1,41
 358 341 358 341 386.5 322.5 c 128,-1,42
 415 304 415 304 429.5 286.5 c 128,-1,43
 444 269 444 269 455.5 240.5 c 128,-1,44
 467 212 467 212 467 179 c 0,0,1
201 -243 m 1,45,-1
 136 -243 l 1,46,-1
 220 -51 l 1,47,-1
 312 -51 l 1,48,-1
 201 -243 l 1,45,-1
EndSplineSet
EndChar

StartChar: uni0219
Encoding: 537 537 280
Width: 412
GlyphClass: 2
Flags: W
LayerCount: 2
Fore
SplineSet
378 135 m 0,0,1
 378 70 378 70 332.5 32 c 128,-1,2
 287 -6 287 -6 208 -6 c 0,3,4
 116 -6 116 -6 59 25 c 1,5,-1
 59 102 l 1,6,7
 126 62 126 62 203 62 c 0,8,9
 249 62 249 62 273 80 c 128,-1,10
 297 98 297 98 297 129 c 0,11,12
 297 165 297 165 270.5 185 c 128,-1,13
 244 205 244 205 182 230 c 0,14,15
 125 252 125 252 90.5 285 c 128,-1,16
 56 318 56 318 56 374 c 0,17,18
 56 437 56 437 103.5 474.5 c 128,-1,19
 151 512 151 512 222 512 c 0,20,21
 301 512 301 512 349 490 c 1,22,-1
 349 415 l 1,23,24
 303 443 303 443 223 443 c 0,25,26
 183 443 183 443 159.5 424.5 c 128,-1,27
 136 406 136 406 136 377 c 0,28,29
 136 359 136 359 143 345.5 c 128,-1,30
 150 332 150 332 170.5 319 c 128,-1,31
 191 306 191 306 200.5 301.5 c 128,-1,32
 210 297 210 297 242 283 c 0,33,34
 306 257 306 257 342 224 c 128,-1,35
 378 191 378 191 378 135 c 0,0,1
152 -243 m 1,36,-1
 87 -243 l 1,37,-1
 171 -51 l 1,38,-1
 263 -51 l 1,39,-1
 152 -243 l 1,36,-1
EndSplineSet
EndChar

StartChar: uni021A
Encoding: 538 538 281
Width: 482
GlyphClass: 2
Flags: W
LayerCount: 2
Fore
SplineSet
173 -243 m 1,0,-1
 108 -243 l 1,1,-1
 192 -51 l 1,2,-1
 284 -51 l 1,3,-1
 173 -243 l 1,0,-1
463 603 m 1,4,-1
 281 603 l 1,5,-1
 281 0 l 1,6,-1
 200 0 l 1,7,-1
 200 603 l 1,8,-1
 18 603 l 1,9,-1
 18 674 l 1,10,-1
 463 674 l 1,11,-1
 463 603 l 1,4,-1
EndSplineSet
EndChar

StartChar: uni021B
Encoding: 539 539 282
Width: 369
GlyphClass: 2
Flags: W
LayerCount: 2
Fore
SplineSet
327 13 m 1,0,1
 294 -5 294 -5 253 -5 c 0,2,3
 103 -5 103 -5 103 148 c 2,4,-1
 103 443 l 1,5,-1
 22 443 l 1,6,-1
 22 507 l 1,7,-1
 103 507 l 1,8,-1
 103 633 l 1,9,-1
 182 633 l 1,10,-1
 182 507 l 1,11,-1
 322 507 l 1,12,-1
 322 443 l 1,13,-1
 182 443 l 1,14,-1
 182 146 l 2,15,16
 182 65 182 65 258 65 c 0,17,18
 297 65 297 65 327 88 c 1,19,-1
 327 13 l 1,0,1
177 -243 m 1,20,-1
 112 -243 l 1,21,-1
 196 -51 l 1,22,-1
 288 -51 l 1,23,-1
 177 -243 l 1,20,-1
EndSplineSet
EndChar

StartChar: circumflex
Encoding: 710 710 283
Width: 421
GlyphClass: 2
Flags: W
LayerCount: 2
Fore
SplineSet
125 642 m 1,0,-1
 45 642 l 1,1,-1
 172 798 l 1,2,-1
 248 798 l 1,3,-1
 375 642 l 1,4,-1
 295 642 l 1,5,-1
 210 747 l 1,6,-1
 125 642 l 1,0,-1
EndSplineSet
EndChar

StartChar: caron
Encoding: 711 711 284
Width: 421
GlyphClass: 2
Flags: W
LayerCount: 2
Fore
SplineSet
248 642 m 1,0,-1
 172 642 l 1,1,-1
 45 798 l 1,2,-1
 125 798 l 1,3,-1
 211 693 l 1,4,-1
 295 798 l 1,5,-1
 375 798 l 1,6,-1
 248 642 l 1,0,-1
EndSplineSet
EndChar

StartChar: uni02C9
Encoding: 713 713 285
Width: 421
GlyphClass: 2
Flags: W
LayerCount: 2
Fore
SplineSet
351 693 m 1,0,-1
 69 693 l 1,1,-1
 69 749 l 1,2,-1
 351 749 l 1,3,-1
 351 693 l 1,0,-1
EndSplineSet
EndChar

StartChar: breve
Encoding: 728 728 286
Width: 421
GlyphClass: 2
Flags: W
LayerCount: 2
Fore
SplineSet
375 798 m 1,0,1
 375 725 375 725 334 682 c 128,-1,2
 293 639 293 639 211 639 c 128,-1,3
 129 639 129 639 87.5 682 c 128,-1,4
 46 725 46 725 46 798 c 1,5,-1
 111 798 l 1,6,7
 111 752 111 752 135 724 c 128,-1,8
 159 696 159 696 211 696 c 0,9,10
 262 696 262 696 286 724 c 128,-1,11
 310 752 310 752 310 798 c 1,12,-1
 375 798 l 1,0,1
EndSplineSet
EndChar

StartChar: dotaccent
Encoding: 729 729 287
Width: 421
GlyphClass: 2
Flags: W
LayerCount: 2
Fore
SplineSet
262 724 m 128,-1,1
 262 702 262 702 247.5 687 c 128,-1,2
 233 672 233 672 211 672 c 128,-1,3
 189 672 189 672 174 687 c 128,-1,4
 159 702 159 702 159 724 c 128,-1,5
 159 746 159 746 174 760.5 c 128,-1,6
 189 775 189 775 211 775 c 128,-1,7
 233 775 233 775 247.5 760.5 c 128,-1,0
 262 746 262 746 262 724 c 128,-1,1
EndSplineSet
EndChar

StartChar: ring
Encoding: 730 730 288
Width: 421
GlyphClass: 2
Flags: W
LayerCount: 2
Fore
SplineSet
316 720 m 128,-1,1
 316 676 316 676 285 645 c 128,-1,2
 254 614 254 614 210 614 c 128,-1,3
 166 614 166 614 135 645 c 128,-1,4
 104 676 104 676 104 720 c 128,-1,5
 104 764 104 764 135 795.5 c 128,-1,6
 166 827 166 827 210 827 c 128,-1,7
 254 827 254 827 285 795.5 c 128,-1,0
 316 764 316 764 316 720 c 128,-1,1
157 721 m 0,8,9
 157 699 157 699 172.5 683 c 128,-1,10
 188 667 188 667 210 667 c 128,-1,11
 232 667 232 667 248 683 c 128,-1,12
 264 699 264 699 264 721 c 0,13,14
 264 744 264 744 248 759.5 c 128,-1,15
 232 775 232 775 210 775 c 128,-1,16
 188 775 188 775 172.5 759.5 c 128,-1,17
 157 744 157 744 157 721 c 0,8,9
EndSplineSet
EndChar

StartChar: ogonek
Encoding: 731 731 289
Width: 421
GlyphClass: 2
Flags: W
LayerCount: 2
Fore
SplineSet
311 -212 m 1,0,1
 279 -231 279 -231 232 -231 c 0,2,3
 174 -231 174 -231 142 -200 c 128,-1,4
 110 -169 110 -169 110 -121 c 0,5,6
 110 -63 110 -63 155.5 -17 c 128,-1,7
 201 29 201 29 260 49 c 1,8,-1
 291 11 l 1,9,10
 178 -45 178 -45 178 -114 c 0,11,12
 178 -143 178 -143 195.5 -158 c 128,-1,13
 213 -173 213 -173 243 -173 c 0,14,15
 282 -173 282 -173 311 -151 c 1,16,-1
 311 -212 l 1,0,1
EndSplineSet
EndChar

StartChar: tilde
Encoding: 732 732 290
Width: 421
GlyphClass: 2
Flags: W
LayerCount: 2
Fore
SplineSet
161 702 m 0,0,1
 120 702 120 702 93 654 c 1,2,-1
 50 691 l 1,3,4
 64 721 64 721 91.5 741.5 c 128,-1,5
 119 762 119 762 151 762 c 0,6,7
 181 762 181 762 224 740 c 128,-1,8
 267 718 267 718 285 718 c 0,9,10
 319 718 319 718 339 761 c 1,11,-1
 388 727 l 1,12,13
 356 658 356 658 289 658 c 0,14,15
 262 658 262 658 219.5 680 c 128,-1,16
 177 702 177 702 161 702 c 0,0,1
EndSplineSet
EndChar

StartChar: hungarumlaut
Encoding: 733 733 291
Width: 421
GlyphClass: 2
Flags: W
LayerCount: 2
Fore
SplineSet
252 642 m 1,0,-1
 191 642 l 1,1,-1
 292 798 l 1,2,-1
 386 798 l 1,3,-1
 252 642 l 1,0,-1
96 642 m 1,4,-1
 35 642 l 1,5,-1
 131 798 l 1,6,-1
 223 798 l 1,7,-1
 96 642 l 1,4,-1
EndSplineSet
EndChar

StartChar: pi
Encoding: 960 960 292
Width: 582
GlyphClass: 2
Flags: W
LayerCount: 2
Fore
SplineSet
564 443 m 1,0,-1
 469 443 l 1,1,-1
 469 0 l 1,2,-1
 390 0 l 1,3,-1
 390 443 l 1,4,-1
 199 443 l 1,5,-1
 199 165 l 2,6,7
 199 74 199 74 158.5 37 c 128,-1,8
 118 0 118 0 41 0 c 1,9,-1
 41 69 l 1,10,11
 85 69 85 69 102.5 88 c 128,-1,12
 120 107 120 107 120 162 c 2,13,-1
 120 443 l 1,14,-1
 24 443 l 1,15,-1
 24 507 l 1,16,-1
 564 507 l 1,17,-1
 564 443 l 1,0,-1
EndSplineSet
EndChar

StartChar: danda
Encoding: 2404 2404 293
Width: 311
GlyphClass: 2
Flags: W
LayerCount: 2
Fore
SplineSet
218 0 m 1,0,-1
 142 0 l 1,1,-1
 142 642 l 1,2,-1
 218 642 l 1,3,-1
 218 0 l 1,0,-1
EndSplineSet
EndChar

StartChar: doubledanda
Encoding: 2405 2405 294
Width: 556
GlyphClass: 2
Flags: W
LayerCount: 2
Fore
SplineSet
464 0 m 1,0,-1
 387 0 l 1,1,-1
 387 642 l 1,2,-1
 464 642 l 1,3,-1
 464 0 l 1,0,-1
218 0 m 1,4,-1
 142 0 l 1,5,-1
 142 642 l 1,6,-1
 218 642 l 1,7,-1
 218 0 l 1,4,-1
EndSplineSet
EndChar

StartChar: bnAnji
Encoding: 2432 2432 295
Width: 600
GlyphClass: 2
Flags: W
LayerCount: 2
Fore
SplineSet
286 291 m 1,0,-1
 286 216 l 1,1,2
 258 210 258 210 223 210 c 0,3,4
 136 210 136 210 83.5 260.5 c 128,-1,5
 31 311 31 311 31 396 c 0,6,7
 31 495 31 495 97.5 573.5 c 128,-1,8
 164 652 164 652 269 652 c 0,9,10
 337 652 337 652 377 609.5 c 128,-1,11
 417 567 417 567 417 492 c 2,12,-1
 417 155 l 2,13,14
 417 60 417 60 494 60 c 0,15,16
 510 60 510 60 528 63 c 1,17,-1
 528 -5 l 1,18,19
 501 -11 501 -11 478 -11 c 0,20,21
 409 -11 409 -11 374.5 34.5 c 128,-1,22
 340 80 340 80 340 150 c 2,23,-1
 340 492 l 2,24,25
 340 583 340 583 268 583 c 0,26,27
 202 583 202 583 155.5 526 c 128,-1,28
 109 469 109 469 109 396 c 0,29,30
 109 343 109 343 139.5 313.5 c 128,-1,31
 170 284 170 284 229 284 c 0,32,33
 261 284 261 284 286 291 c 1,0,-1
EndSplineSet
EndChar

